<svg width="24" height="24" viewBox="0 0 24 24" fill="none" xmlns="http://www.w3.org/2000/svg">
<path opacity="0.8" d="M6.04559 20C5.28379 20 4.55236 19.6919 3.96942 19.1217C2.67691 17.8545 2.67691 15.7935 3.96913 14.5271L14.0475 4.0686C15.62 2.52948 18.0287 2.66778 19.7865 4.38773C20.5741 5.1588 21.0161 6.2704 20.9995 7.4388C20.983 8.59487 20.5208 9.70124 19.7309 10.4745L12.1139 18.3987C11.9019 18.6207 11.5465 18.6308 11.3201 18.4226C11.0944 18.214 11.0834 17.8661 11.2963 17.6449L18.9247 9.70865C19.5214 9.12445 19.8637 8.29574 19.8763 7.42341C19.889 6.55056 19.5663 5.72761 18.9924 5.16536C17.9141 4.10947 16.1586 3.55655 14.8534 4.83499L4.77526 15.2935C3.90872 16.1425 3.909 17.506 4.76403 18.3437C5.16499 18.7359 5.64095 18.9269 6.14779 18.8969C6.64929 18.867 7.16484 18.6157 7.59952 18.1898L15.6185 9.84909C15.9092 9.56453 16.4932 8.86701 15.8988 8.28473C15.5621 7.95517 15.3257 7.97548 15.2479 7.98179C15.0258 8.00099 14.7663 8.15109 14.497 8.41507L8.46129 14.6882C8.24816 14.9096 7.89239 14.9203 7.66745 14.7115C7.44141 14.5035 7.43102 14.155 7.64358 13.9344L13.6903 7.64949C14.1657 7.18273 14.6518 6.92973 15.1466 6.88638C15.5327 6.85288 16.1069 6.9333 16.6926 7.50735C17.562 8.35852 17.4539 9.60707 16.4245 10.6152L8.40542 18.9554C7.7652 19.5832 6.99215 19.9479 6.21658 19.9945C6.15958 19.9983 6.10258 20 6.04558 20L6.04559 20Z" fill="#FBFBFB"/>
</svg>
