<svg width="18" height="18" viewBox="0 0 18 18" fill="none" xmlns="http://www.w3.org/2000/svg">
<path d="M15.1875 4.57031H12.7969L12.2273 2.97422C12.188 2.865 12.1159 2.7706 12.0209 2.7039C11.9259 2.6372 11.8126 2.60146 11.6965 2.60156H6.30352C6.06621 2.60156 5.85352 2.75098 5.77441 2.97422L5.20312 4.57031H2.8125C2.03555 4.57031 1.40625 5.19961 1.40625 5.97656V13.9922C1.40625 14.7691 2.03555 15.3984 2.8125 15.3984H15.1875C15.9645 15.3984 16.5938 14.7691 16.5938 13.9922V5.97656C16.5938 5.19961 15.9645 4.57031 15.1875 4.57031ZM9 12.5859C7.44609 12.5859 6.1875 11.3273 6.1875 9.77344C6.1875 8.21953 7.44609 6.96094 9 6.96094C10.5539 6.96094 11.8125 8.21953 11.8125 9.77344C11.8125 11.3273 10.5539 12.5859 9 12.5859ZM7.3125 9.77344C7.3125 10.221 7.49029 10.6502 7.80676 10.9667C8.12322 11.2831 8.55245 11.4609 9 11.4609C9.44755 11.4609 9.87678 11.2831 10.1932 10.9667C10.5097 10.6502 10.6875 10.221 10.6875 9.77344C10.6875 9.32588 10.5097 8.89666 10.1932 8.58019C9.87678 8.26373 9.44755 8.08594 9 8.08594C8.55245 8.08594 8.12322 8.26373 7.80676 8.58019C7.49029 8.89666 7.3125 9.32588 7.3125 9.77344Z" fill="#F2F2F2"/>
</svg>
