<svg width="46" height="46" viewBox="0 0 46 46" fill="none" xmlns="http://www.w3.org/2000/svg">
<path d="M42.1491 12.5471C42.1332 11.7248 42.0672 10.9042 41.9517 10.0899C41.814 9.36564 41.58 8.66302 41.256 8.00078C40.5465 6.60028 39.4092 5.4623 38.0091 4.75203C37.3511 4.42948 36.6531 4.19614 35.9334 4.0582C35.1129 3.94029 34.2858 3.87308 33.457 3.85695C33.1063 3.84353 32.652 3.83778 32.4412 3.83778L13.5659 3.83203C13.355 3.83203 12.9008 3.83778 12.55 3.8512C11.7277 3.86704 10.9072 3.93297 10.0929 4.04861C9.36857 4.18631 8.66595 4.4203 8.00371 4.74436C6.60328 5.45392 5.46534 6.59119 4.75496 7.9912C4.43249 8.64922 4.19916 9.34728 4.06113 10.0669C3.94268 10.8874 3.87483 11.7145 3.85796 12.5433C3.84646 12.894 3.83879 13.3483 3.83879 13.5591L3.83496 32.4344C3.83496 32.6453 3.84071 33.0995 3.85413 33.4503C3.86997 34.2726 3.9359 35.0932 4.05154 35.9074C4.18926 36.6317 4.42325 37.3344 4.74729 37.9966C5.45685 39.397 6.59412 40.535 7.99413 41.2454C8.65217 41.5678 9.35022 41.8011 10.0699 41.9392C10.8904 42.0571 11.7174 42.1243 12.5462 42.1404C12.897 42.1539 13.3512 42.1596 13.562 42.1596L32.4374 42.1634C32.6482 42.1634 33.1025 42.1577 33.4532 42.1443C34.2755 42.1284 35.0961 42.0624 35.9104 41.9469C36.6347 41.8091 37.3373 41.5751 37.9995 41.2511C39.4007 40.5419 40.5393 39.4046 41.2502 38.0043C41.5727 37.3463 41.8061 36.6482 41.944 35.9285C42.0625 35.108 42.1304 34.281 42.1472 33.4522C42.1587 33.1014 42.1664 32.6472 42.1664 32.4364L42.1683 13.5629C42.1683 13.3521 42.1625 12.8979 42.1491 12.5471Z" fill="#395937"/>
<path d="M31.2133 13.4438L11.912 21.3324C10.5947 21.8931 10.6024 22.672 11.6703 23.0193L16.6257 24.6577L28.0911 16.9906C28.6332 16.641 29.1285 16.829 28.7214 17.2121L19.4322 26.0976L19.0903 31.5125C19.5911 31.5125 19.8121 31.269 20.093 30.9817L22.4999 28.501L27.5065 32.4205C28.4296 32.9594 29.0926 32.6824 29.3223 31.5148L32.6089 15.0983C32.9452 13.6688 32.0939 13.0215 31.2133 13.4438Z" fill="#EAE5E1"/>
</svg>
