<svg width="46" height="46" viewBox="0 0 46 46" fill="none" xmlns="http://www.w3.org/2000/svg">
<rect x="3.63184" y="3.63086" width="38.7368" height="38.7368" rx="7" fill="#395937"/>
<path d="M12.1098 33.893L13.5828 28.4805C12.6122 26.8167 12.1023 24.9244 12.1055 22.9982C12.1055 16.9811 16.9831 12.1035 23.0002 12.1035C29.0174 12.1035 33.8949 16.9811 33.8949 22.9982C33.8949 29.0154 29.0174 33.893 23.0002 33.893C21.0749 33.8961 19.1834 33.3866 17.5202 32.4167L12.1098 33.893ZM19.0683 17.8864C18.9276 17.8952 18.7901 17.9322 18.6641 17.9954C18.5459 18.0623 18.438 18.146 18.3438 18.2438C18.2131 18.3669 18.139 18.4737 18.0595 18.5772C17.6568 19.1012 17.4402 19.7444 17.4439 20.4053C17.4461 20.9391 17.5855 21.4588 17.8034 21.9447C18.249 22.9274 18.9822 23.9679 19.9508 24.9321C20.1839 25.1641 20.4116 25.3973 20.6568 25.6141C21.8589 26.6725 23.2914 27.4357 24.8403 27.8431L25.4602 27.9379C25.6618 27.9488 25.8633 27.9336 26.066 27.9238C26.3833 27.9074 26.6931 27.8215 26.9735 27.6721C27.1162 27.5986 27.2554 27.5186 27.3908 27.4324C27.3908 27.4324 27.4376 27.4019 27.527 27.3343C27.6741 27.2254 27.7645 27.148 27.8865 27.0206C27.9769 26.9269 28.0554 26.8168 28.1153 26.6916C28.2003 26.514 28.2852 26.1751 28.3201 25.893C28.3463 25.6773 28.3386 25.5596 28.3354 25.4866C28.331 25.37 28.234 25.2491 28.1284 25.1979L27.4943 24.9135C27.4943 24.9135 26.5464 24.5006 25.9679 24.237C25.9069 24.2104 25.8416 24.1952 25.7751 24.1923C25.7006 24.1847 25.6252 24.193 25.5542 24.2169C25.4832 24.2408 25.4181 24.2796 25.3633 24.3307V24.3285C25.3578 24.3285 25.2848 24.3906 24.4971 25.345C24.4519 25.4057 24.3897 25.4516 24.3183 25.4769C24.2469 25.5021 24.1696 25.5055 24.0962 25.4866C24.0252 25.4676 23.9557 25.4436 23.8881 25.4147C23.753 25.358 23.7062 25.3363 23.6136 25.2959L23.6081 25.2938C22.9849 25.0216 22.4078 24.6541 21.8977 24.2043C21.7604 24.0845 21.6329 23.9537 21.5022 23.8273C21.0736 23.4169 20.7 22.9525 20.3909 22.4459L20.3266 22.3424C20.2805 22.2728 20.2431 22.1978 20.2155 22.119C20.1741 21.9589 20.282 21.8303 20.282 21.8303C20.282 21.8303 20.5467 21.5405 20.6698 21.3836C20.7723 21.2533 20.868 21.1176 20.9564 20.9773C21.0849 20.7703 21.1252 20.5578 21.0577 20.3933C20.7526 19.6481 20.4367 18.9062 20.112 18.1697C20.0477 18.0237 19.8571 17.9191 19.6839 17.8984C19.625 17.8919 19.5662 17.8853 19.5074 17.881C19.3611 17.8737 19.2144 17.8752 19.0683 17.8853V17.8864Z" fill="#EAE5E1"/>
</svg>
