<svg width="778" height="428" viewBox="0 0 778 428" fill="none" xmlns="http://www.w3.org/2000/svg">
<path opacity="0.1" fill-rule="evenodd" clip-rule="evenodd" d="M165.898 209.652C166.879 212.966 164.223 216.647 156.138 223.177C145.899 231.448 142.722 237.526 144.442 245.554C146.908 257.058 157.105 265.108 177.562 271.698C183.085 273.477 186.12 271.646 187.376 265.773C188.62 259.962 186.715 257.737 179.636 256.727C164.02 254.5 156.182 250.833 152.765 244.156C150.019 238.792 151.637 233.838 158.787 225.718C165.294 218.328 167.722 213.131 166.242 209.756C165.827 208.81 165.631 208.751 165.898 209.652ZM274.38 209.346C272.487 212.848 274.474 217.094 282.537 226.776C295.851 242.762 287.945 253.133 259.565 256.913C253.812 257.679 251.899 260.398 253.132 266.059C254.456 272.134 257.438 273.513 264.291 271.22C283.092 264.928 292.501 257.683 295.653 247.069C298.118 238.771 295.154 232.051 285.576 224.224C277.846 217.907 275.847 215.776 274.784 212.716C274.303 211.333 274.25 210.651 274.545 209.652C274.761 208.923 274.685 208.782 274.38 209.346ZM167.746 270.662C166.231 271.083 164.271 272.027 161.989 273.434C156.47 276.838 150.463 279.175 147.188 279.193C144.17 279.21 153.746 285.718 158.193 286.672C165.224 288.18 171.049 284.889 176.147 276.527C177.564 274.205 177.566 274.167 176.383 272.891C174.372 270.724 170.82 269.807 167.746 270.662ZM271.382 270.746C269.804 271.314 269.165 271.732 268.027 272.939L266.941 274.091L267.562 275.283C274.377 288.366 285.136 290.575 296.221 281.167C298.277 279.421 298.405 279.198 297.347 279.198C294.134 279.198 287.391 276.58 282.357 273.378C278.009 270.612 274.251 269.711 271.382 270.746ZM179.565 279.689C178.277 286.344 183.579 298.721 190.963 306.297C195.601 311.054 196.781 314.035 197.871 323.732C198.953 333.365 200.486 336.851 204.445 338.681C206.969 339.847 207.292 339.777 205.783 338.391C203.313 336.121 202.816 334.465 202.959 328.982C203.409 311.722 202.652 309.163 194.797 301.37C187.949 294.576 184.003 288.895 180.501 280.789C179.71 278.958 179.707 278.956 179.565 279.689ZM260.183 280.297C257.227 287.737 252.006 295.304 245.642 301.37C237.931 308.72 236.781 312.66 237.616 328.879C237.856 333.551 237.101 336.062 234.79 338.277C233.267 339.739 233.471 339.817 235.949 338.724C239.898 336.982 241.482 333.444 242.566 323.952C243.316 317.375 244.029 314.31 245.421 311.678C246.59 309.468 247.009 308.909 249.199 306.644C256.107 299.495 259.799 292.104 260.776 283.466C261.225 279.502 260.992 278.26 260.183 280.297ZM209.851 334.451C206.391 337.089 211.038 341.866 218.028 342.856C225.789 343.956 234.546 338.502 230.931 334.82L230.095 333.968L229.501 334.374C224.762 337.61 216.605 337.733 211.429 334.646L210.4 334.033L209.851 334.451Z" fill="white"/>
<path opacity="0.1" fill-rule="evenodd" clip-rule="evenodd" d="M2.187 23.6328C3.136 26.848 0.566114 30.4188 -7.25585 36.754C-17.1625 44.7774 -20.2366 50.6746 -18.5723 58.4625C-16.1867 69.6239 -6.32057 77.4332 13.4719 83.8263C18.8162 85.5525 21.7522 83.7755 22.9678 78.0787C24.171 72.4411 22.3285 70.2821 15.4787 69.3024C0.369764 67.1418 -7.21321 63.5847 -10.5199 57.1068C-13.1765 51.9025 -11.611 47.0964 -4.69355 39.2191C1.60264 32.0492 3.95136 27.0073 2.52007 23.7338C2.11875 22.816 1.92895 22.7584 2.187 23.6328ZM107.147 23.3354C105.315 26.7334 107.238 30.8526 115.039 40.2452C127.921 55.754 120.272 65.816 92.8127 69.4824C87.2464 70.2257 85.3957 72.8641 86.589 78.3556C87.8697 84.249 90.755 85.587 97.3851 83.3623C115.576 77.2586 124.679 70.2295 127.729 59.9325C130.114 51.882 127.246 45.3628 117.979 37.7695C110.5 31.6411 108.566 29.5738 107.538 26.6054C107.072 25.2632 107.021 24.6013 107.307 23.6328C107.515 22.9257 107.442 22.7889 107.147 23.3354ZM3.97513 82.8209C2.509 83.2296 0.612646 84.1456 -1.59547 85.5109C-6.93507 88.8129 -12.7467 91.0802 -15.9157 91.0979C-18.8355 91.1145 -9.57013 97.4281 -5.26828 98.3534C1.53479 99.8167 7.17037 96.6241 12.1037 88.5115C13.4739 86.2584 13.4762 86.2213 12.3314 84.9841C10.3859 82.8815 6.9488 81.9918 3.97513 82.8209ZM104.246 82.9024C102.719 83.4543 102.102 83.8592 101 85.0301L99.949 86.1478L100.55 87.3046C107.144 99.997 117.554 102.14 128.279 93.0124C130.268 91.3192 130.392 91.1023 129.368 91.1023C126.26 91.1023 119.735 88.5625 114.865 85.4567C110.658 82.7733 107.022 81.899 104.246 82.9024ZM15.4107 91.5789C14.1643 98.0352 19.2942 110.043 26.4385 117.392C30.9253 122.008 32.0675 124.9 33.1215 134.307C34.1685 143.652 35.652 147.035 39.4826 148.81C41.9242 149.941 42.2366 149.873 40.7774 148.529C38.3875 146.326 37.9064 144.72 38.0448 139.401C38.4799 122.656 37.748 120.173 30.1478 112.612C23.5223 106.022 19.7041 100.51 16.3156 92.6463C15.5502 90.8699 15.548 90.8673 15.4107 91.5789ZM93.4106 92.1689C90.5511 99.3865 85.4992 106.728 79.342 112.612C71.8816 119.743 70.7691 123.566 71.5762 139.301C71.8088 143.833 71.0784 146.269 68.8424 148.418C67.3682 149.836 67.5665 149.912 69.9637 148.852C73.7841 147.162 75.3175 143.729 76.3655 134.521C77.0917 128.14 77.7816 125.166 79.1282 122.613C80.2592 120.469 80.6647 119.927 82.7832 117.729C89.4674 110.793 93.0392 103.624 93.9847 95.2428C94.4186 91.3977 94.1935 90.1927 93.4106 92.1689ZM44.7134 144.706C41.3655 147.265 45.8612 151.9 52.6241 152.861C60.1331 153.927 68.6058 148.636 65.1087 145.064L64.2997 144.238L63.7252 144.631C59.1398 147.771 51.248 147.89 46.2394 144.896L45.2441 144.301L44.7134 144.706Z" fill="white"/>
<path opacity="0.1" fill-rule="evenodd" clip-rule="evenodd" d="M376.338 352.686C377.205 356.174 374.859 360.047 367.719 366.918C358.677 375.62 355.871 382.016 357.39 390.463C359.568 402.569 368.573 411.039 386.639 417.973C391.517 419.845 394.197 417.918 395.306 411.739C396.404 405.625 394.723 403.283 388.471 402.22C374.68 399.877 367.758 396.019 364.74 388.993C362.315 383.348 363.744 378.135 370.058 369.591C375.805 361.815 377.949 356.346 376.642 352.796C376.276 351.8 376.103 351.738 376.338 352.686ZM472.141 352.364C470.469 356.049 472.224 360.517 479.344 370.704C491.102 387.525 484.12 398.439 459.057 402.416C453.977 403.222 452.287 406.083 453.377 412.04C454.545 418.432 457.179 419.883 463.231 417.47C479.835 410.85 488.144 403.226 490.927 392.058C493.104 383.326 490.486 376.255 482.028 368.019C475.201 361.372 473.437 359.13 472.497 355.91C472.072 354.455 472.026 353.737 472.287 352.686C472.477 351.919 472.41 351.771 472.141 352.364ZM377.971 416.883C376.632 417.326 374.901 418.319 372.886 419.8C368.012 423.382 362.708 425.841 359.815 425.86C357.15 425.878 365.607 432.726 369.534 433.729C375.743 435.317 380.887 431.854 385.39 423.055C386.641 420.611 386.643 420.571 385.598 419.229C383.822 416.948 380.685 415.983 377.971 416.883ZM469.493 416.971C468.1 417.57 467.536 418.009 466.53 419.279L465.571 420.491L466.119 421.746C472.138 435.512 481.64 437.836 491.429 427.936C493.245 426.1 493.358 425.865 492.423 425.865C489.586 425.865 483.631 423.11 479.186 419.742C475.345 416.831 472.027 415.883 469.493 416.971ZM388.408 426.382C387.271 433.384 391.953 446.408 398.474 454.38C402.569 459.386 403.612 462.522 404.574 472.725C405.53 482.861 406.884 486.53 410.38 488.455C412.609 489.682 412.894 489.609 411.562 488.15C409.381 485.761 408.941 484.019 409.068 478.25C409.465 460.089 408.797 457.395 401.86 449.195C395.812 442.046 392.327 436.069 389.234 427.539C388.536 425.613 388.534 425.61 388.408 426.382ZM459.603 427.022C456.993 434.85 452.382 442.812 446.762 449.195C439.952 456.929 438.937 461.076 439.674 478.142C439.886 483.057 439.219 485.699 437.178 488.031C435.833 489.568 436.014 489.651 438.202 488.501C441.689 486.668 443.088 482.945 444.045 472.957C444.708 466.036 445.338 462.811 446.567 460.042C447.599 457.716 447.969 457.129 449.903 454.745C456.004 447.222 459.264 439.446 460.127 430.356C460.523 426.185 460.318 424.878 459.603 427.022ZM415.155 484.005C412.099 486.78 416.202 491.807 422.375 492.849C429.229 494.006 436.962 488.267 433.77 484.393L433.032 483.496L432.508 483.923C428.322 487.329 421.119 487.458 416.547 484.21L415.639 483.565L415.155 484.005Z" fill="white"/>
<path opacity="0.1" fill-rule="evenodd" clip-rule="evenodd" d="M600.898 -34.3477C601.879 -31.0336 599.223 -27.3529 591.138 -20.8228C580.899 -12.5525 577.722 -6.47385 579.442 1.55364C581.908 13.0584 592.105 21.1081 612.562 27.6979C618.085 29.4772 621.12 27.6455 622.376 21.7735C623.62 15.9623 621.715 13.7369 614.636 12.7271C599.02 10.5 591.182 6.83344 587.765 0.156185C585.019 -5.2082 586.637 -10.1622 593.787 -18.2819C600.294 -25.6723 602.722 -30.8694 601.242 -34.2437C600.827 -35.1897 600.631 -35.249 600.898 -34.3477ZM709.38 -34.6542C707.487 -31.1517 709.474 -26.9058 717.537 -17.2242C730.851 -1.2382 722.945 9.13337 694.565 12.9127C688.812 13.6788 686.899 16.3984 688.132 22.0588C689.456 28.1335 692.438 29.5127 699.291 27.2196C718.092 20.928 727.501 13.6827 730.653 3.06892C733.118 -5.22935 730.154 -11.9491 720.576 -19.776C712.846 -26.093 710.847 -28.224 709.784 -31.2837C709.303 -32.6672 709.25 -33.3494 709.545 -34.3477C709.761 -35.0765 709.685 -35.2176 709.38 -34.6542ZM602.746 26.6616C601.231 27.0828 599.271 28.027 596.989 29.4343C591.47 32.8379 585.463 35.175 582.188 35.1933C579.17 35.2103 588.746 41.7182 593.193 42.672C600.224 44.1803 606.049 40.8894 611.147 32.5273C612.564 30.2048 612.566 30.1666 611.383 28.8913C609.372 26.724 605.82 25.8069 602.746 26.6616ZM706.382 26.7455C704.804 27.3144 704.165 27.7318 703.027 28.9387L701.941 30.0908L702.562 31.2832C709.377 44.3661 720.136 46.5749 731.221 37.1666C733.277 35.4213 733.405 35.1978 732.347 35.1978C729.134 35.1978 722.391 32.5798 717.357 29.3784C713.009 26.6125 709.251 25.7112 706.382 26.7455ZM614.565 35.689C613.277 42.3439 618.579 54.7212 625.963 62.2969C630.601 67.0544 631.781 70.0349 632.871 79.7318C633.953 89.3646 635.486 92.8513 639.445 94.6809C641.969 95.847 642.292 95.777 640.783 94.391C638.313 92.1207 637.816 90.4647 637.959 84.9821C638.409 67.7224 637.652 65.163 629.797 57.3698C622.949 50.5761 619.003 44.8954 615.501 36.7892C614.71 34.9582 614.707 34.9555 614.565 35.689ZM695.183 36.2971C692.227 43.7369 687.006 51.3039 680.642 57.3698C672.931 64.7196 671.781 68.6604 672.616 84.8794C672.856 89.5505 672.101 92.0615 669.79 94.2775C668.267 95.7386 668.471 95.8174 670.949 94.7244C674.898 92.9823 676.482 89.444 677.566 79.9523C678.316 73.3746 679.029 70.3098 680.421 67.6781C681.59 65.4679 682.009 64.9095 684.199 62.6438C691.107 55.4946 694.799 48.1043 695.776 39.4657C696.225 35.5022 695.992 34.2602 695.183 36.2971ZM644.851 90.4512C641.391 93.089 646.038 97.8659 653.028 98.8562C660.789 99.956 669.546 94.5021 665.931 90.8199L665.095 89.9681L664.501 90.3738C659.762 93.6103 651.605 93.7332 646.429 90.6464L645.4 90.033L644.851 90.4512Z" fill="white"/>
<path opacity="0.1" fill-rule="evenodd" clip-rule="evenodd" d="M299.609 23.6815C300.622 27.144 297.879 30.9895 289.532 37.812C278.961 46.4526 275.68 52.8034 277.456 61.1904C280.002 73.2103 290.53 81.6204 311.651 88.5053C317.354 90.3642 320.487 88.4506 321.784 82.3156C323.068 76.2442 321.102 73.9192 313.793 72.8641C297.67 70.5373 289.578 66.7066 286.049 59.7303C283.214 54.1258 284.885 48.9499 292.267 40.4667C298.985 32.7453 301.492 27.3155 299.964 23.7902C299.536 22.8018 299.334 22.7399 299.609 23.6815ZM411.614 23.3612C409.659 27.0206 411.71 31.4567 420.035 41.5717C433.781 58.2735 425.619 69.1095 396.317 73.058C390.377 73.8585 388.402 76.6998 389.676 82.6137C391.042 88.9604 394.121 90.4013 401.196 88.0055C420.608 81.4323 430.322 73.8626 433.577 62.7735C436.122 54.1037 433.061 47.083 423.172 38.9056C415.191 32.3058 413.128 30.0794 412.03 26.8827C411.533 25.4373 411.479 24.7245 411.783 23.6815C412.006 22.92 411.928 22.7727 411.614 23.3612ZM301.517 87.4225C299.953 87.8627 297.929 88.8491 295.573 90.3194C289.875 93.8754 283.673 96.3172 280.291 96.3363C277.176 96.354 287.063 103.153 291.653 104.15C298.913 105.726 304.927 102.287 310.191 93.5509C311.653 91.1244 311.656 91.0845 310.434 89.7521C308.358 87.4877 304.69 86.5296 301.517 87.4225ZM408.518 87.5102C406.888 88.1046 406.229 88.5407 405.054 89.8016L403.932 91.0053L404.573 92.2511C411.61 105.92 422.719 108.227 434.163 98.3979C436.286 96.5745 436.418 96.341 435.326 96.341C432.009 96.341 425.046 93.6058 419.849 90.2611C415.36 87.3713 411.48 86.4297 408.518 87.5102ZM313.72 96.8542C312.39 103.807 317.864 116.739 325.488 124.653C330.276 129.624 331.495 132.738 332.62 142.869C333.737 152.933 335.32 156.576 339.408 158.488C342.013 159.706 342.346 159.633 340.789 158.185C338.239 155.813 337.726 154.083 337.873 148.354C338.338 130.322 337.557 127.648 329.446 119.506C322.376 112.408 318.302 106.473 314.686 98.0037C313.869 96.0907 313.867 96.0879 313.72 96.8542ZM396.955 97.4895C393.903 105.262 388.513 113.168 381.942 119.506C373.981 127.185 372.794 131.302 373.655 148.247C373.903 153.127 373.124 155.751 370.738 158.066C369.165 159.593 369.376 159.675 371.934 158.533C376.011 156.713 377.648 153.016 378.766 143.099C379.541 136.227 380.277 133.025 381.714 130.276C382.921 127.966 383.354 127.383 385.614 125.016C392.747 117.547 396.559 109.825 397.568 100.8C398.031 96.659 397.79 95.3614 396.955 97.4895ZM344.989 154.068C341.417 156.824 346.214 161.815 353.431 162.85C361.444 163.999 370.485 158.301 366.754 154.454L365.89 153.564L365.277 153.988C360.384 157.369 351.963 157.497 346.618 154.272L345.556 153.632L344.989 154.068Z" fill="white"/>
<path opacity="0.1" fill-rule="evenodd" clip-rule="evenodd" d="M575.742 190.745C576.85 194.529 573.849 198.731 564.715 206.187C553.146 215.63 549.556 222.571 551.499 231.737C554.285 244.873 565.807 254.064 588.92 261.588C595.161 263.619 598.59 261.528 600.009 254.823C601.414 248.188 599.263 245.647 591.264 244.494C573.62 241.952 564.764 237.765 560.903 230.141C557.801 224.016 559.629 218.36 567.707 209.089C575.059 200.65 577.802 194.716 576.131 190.864C575.662 189.783 575.441 189.716 575.742 190.745ZM698.313 190.395C696.174 194.394 698.418 199.242 707.529 210.296C722.572 228.549 713.639 240.391 681.573 244.706C675.073 245.581 672.912 248.686 674.305 255.149C675.801 262.085 679.17 263.66 686.913 261.042C708.156 253.858 718.787 245.586 722.348 233.467C725.133 223.992 721.784 216.319 710.962 207.383C702.228 200.17 699.97 197.737 698.769 194.243C698.225 192.664 698.165 191.885 698.499 190.745C698.743 189.913 698.657 189.752 698.313 190.395ZM577.83 260.405C576.118 260.886 573.903 261.964 571.325 263.571C565.089 267.457 558.302 270.125 554.602 270.146C551.192 270.165 562.012 277.596 567.036 278.685C574.98 280.407 581.561 276.65 587.322 267.102C588.923 264.45 588.925 264.407 587.588 262.95C585.316 260.476 581.303 259.429 577.83 260.405ZM694.925 260.5C693.142 261.15 692.421 261.627 691.135 263.005L689.907 264.32L690.609 265.682C698.309 280.619 710.466 283.141 722.99 272.399C725.313 270.406 725.458 270.151 724.262 270.151C720.632 270.151 713.013 267.162 707.326 263.507C702.412 260.349 698.167 259.32 694.925 260.5ZM591.184 270.712C589.729 278.311 595.719 292.443 604.062 301.093C609.302 306.525 610.636 309.928 611.867 321C613.089 331.998 614.822 335.979 619.295 338.068C622.146 339.4 622.511 339.32 620.807 337.738C618.016 335.145 617.454 333.255 617.616 326.994C618.124 307.288 617.269 304.365 608.394 295.467C600.657 287.71 596.198 281.224 592.241 271.968C591.347 269.878 591.345 269.875 591.184 270.712ZM682.271 271.406C678.932 279.901 673.033 288.541 665.842 295.467C657.13 303.859 655.831 308.359 656.774 326.877C657.045 332.211 656.192 335.078 653.581 337.608C651.86 339.276 652.091 339.366 654.891 338.118C659.352 336.129 661.143 332.089 662.366 321.252C663.214 313.741 664.02 310.242 665.593 307.237C666.913 304.713 667.387 304.076 669.861 301.489C677.667 293.326 681.838 284.888 682.942 275.024C683.449 270.499 683.186 269.081 682.271 271.406ZM625.404 333.239C621.494 336.251 626.744 341.705 634.642 342.836C643.41 344.092 653.305 337.864 649.221 333.66L648.276 332.687L647.605 333.151C642.251 336.846 633.035 336.986 627.186 333.462L626.023 332.762L625.404 333.239Z" fill="white"/>
<path opacity="0.1" fill-rule="evenodd" clip-rule="evenodd" d="M-5.51933 316.589C-4.64676 319.582 -7.00968 322.905 -14.2017 328.802C-23.3105 336.27 -26.137 341.759 -24.6067 349.007C-22.4133 359.396 -13.3417 366.665 4.8567 372.615C9.77061 374.222 12.4701 372.568 13.5879 367.266C14.6941 362.018 13.0001 360.009 6.70192 359.097C-7.19021 357.086 -14.1625 353.775 -17.2029 347.746C-19.6455 342.902 -18.2061 338.428 -11.8457 331.096C-6.05663 324.423 -3.89707 319.73 -5.21309 316.683C-5.58209 315.829 -5.75661 315.775 -5.51933 316.589ZM90.9878 316.312C89.3033 319.475 91.0709 323.309 98.244 332.051C110.088 346.486 103.055 355.852 77.8076 359.264C72.6896 359.956 70.988 362.412 72.0852 367.523C73.2627 373.009 75.9157 374.254 82.0118 372.183C98.7378 366.502 107.108 359.96 109.912 350.376C112.105 342.882 109.468 336.815 100.947 329.747C94.0706 324.043 92.2927 322.119 91.3466 319.356C90.9186 318.106 90.8715 317.49 91.1342 316.589C91.3262 315.931 91.2588 315.804 90.9878 316.312ZM-3.87521 371.679C-5.22326 372.06 -6.96689 372.912 -8.99717 374.183C-13.9067 377.257 -19.2503 379.367 -22.1641 379.383C-24.8487 379.399 -16.3296 385.275 -12.3742 386.137C-6.11901 387.499 -0.937305 384.527 3.59874 376.976C4.85859 374.879 4.86066 374.844 3.80811 373.693C2.01925 371.736 -1.14104 370.908 -3.87521 371.679ZM88.3205 371.755C86.9165 372.269 86.3484 372.646 85.3359 373.736L84.3692 374.776L84.9218 375.853C90.9844 387.666 100.556 389.661 110.417 381.165C112.247 379.589 112.36 379.388 111.419 379.388C108.561 379.388 102.562 377.024 98.084 374.133C94.2155 371.635 90.873 370.821 88.3205 371.755ZM6.63934 379.831C5.49332 385.84 10.2101 397.017 16.779 403.858C20.9044 408.154 21.9547 410.845 22.9238 419.601C23.8864 428.299 25.2505 431.448 28.7726 433.1C31.0176 434.153 31.3048 434.09 29.9631 432.838C27.7657 430.788 27.3234 429.293 27.4506 424.342C27.8507 408.757 27.1777 406.446 20.1896 399.409C14.0976 393.274 10.587 388.144 7.47139 380.825C6.76768 379.171 6.76561 379.169 6.63934 379.831ZM78.3574 380.38C75.7282 387.098 71.0832 393.931 65.4219 399.409C58.5623 406.045 57.5393 409.604 58.2815 424.249C58.4954 428.467 57.8237 430.735 55.7678 432.736C54.4124 434.055 54.5947 434.126 56.7989 433.139C60.3116 431.566 61.7214 428.371 62.685 419.8C63.3528 413.861 63.9871 411.093 65.2253 408.717C66.2652 406.721 66.638 406.217 68.5859 404.171C74.7318 397.715 78.0159 391.042 78.8852 383.241C79.2842 379.662 79.0773 378.541 78.3574 380.38ZM33.5821 429.281C30.5038 431.662 34.6375 435.976 40.8557 436.87C47.76 437.863 55.5503 432.938 52.3348 429.613L51.591 428.844L51.0627 429.211C46.8467 432.133 39.5904 432.244 34.9852 429.457L34.0701 428.903L33.5821 429.281Z" fill="white"/>
</svg>
