<svg width="778" height="428" viewBox="0 0 778 428" fill="none" xmlns="http://www.w3.org/2000/svg">
<g opacity="0.6">
<path opacity="0.1" fill-rule="evenodd" clip-rule="evenodd" d="M307.29 356.212V330.846C307.173 329.566 307.778 327.006 311.129 327.006H416.898C418.178 326.928 420.738 327.588 420.738 330.846V356.212C420.427 355.746 419.225 354.815 416.898 354.815H401.19V345.623C401.19 345.158 400.91 344.227 399.793 344.227H371.518C371.053 344.188 370.122 344.413 370.122 345.623V354.815H357.672V345.623C357.711 345.158 357.486 344.227 356.276 344.227H328.001C327.535 344.188 326.605 344.413 326.605 345.623V354.815H311.129C309.85 354.854 307.29 355.188 307.29 356.212ZM296 403.685V374.48C296 369.244 302.376 359.586 310.196 359.586H417.593C422.248 359.586 431.556 364.706 431.556 373.549V403.685H296ZM313.337 407.409H300.77V411.83C300.77 414.25 302.865 414.7 303.912 414.623H310.544C312.964 414.623 313.414 412.761 313.337 411.83V407.409ZM414.916 407.409H427.483V411.83C427.561 412.761 427.111 414.623 424.69 414.623H418.058C417.011 414.7 414.916 414.25 414.916 411.83V407.409Z" fill="white"/>
<path opacity="0.1" fill-rule="evenodd" clip-rule="evenodd" d="M635.033 117.944V90.9071C634.909 89.5428 635.554 86.8144 639.125 86.8144H751.86C753.224 86.7317 755.953 87.4345 755.953 90.9071V117.944C755.622 117.448 754.34 116.455 751.86 116.455H735.117V106.658C735.117 106.162 734.819 105.169 733.629 105.169H703.492C702.996 105.128 702.004 105.368 702.004 106.658V116.455H688.733V106.658C688.775 106.162 688.535 105.169 687.245 105.169H657.108C656.612 105.128 655.62 105.368 655.62 106.658V116.455H639.125C637.761 116.497 635.033 116.852 635.033 117.944ZM623 168.544V137.415C623 131.834 629.796 121.54 638.131 121.54H752.602C757.563 121.54 767.484 126.997 767.484 136.423V168.544H623ZM641.482 172.513H628.087V177.226C628.087 179.806 630.32 180.285 631.436 180.202H638.505C641.085 180.202 641.564 178.218 641.482 177.226V172.513ZM749.749 172.513H763.143V177.226C763.226 178.218 762.746 180.202 760.167 180.202H753.097C751.981 180.285 749.749 179.806 749.749 177.226V172.513Z" fill="white"/>
<path opacity="0.1" fill-rule="evenodd" clip-rule="evenodd" d="M17.7465 290.26C10.0443 294.316 3.46119 297.792 3.11729 297.986L2.49197 298.338L2.4908 309.245L2.48962 320.153H6.69078H10.8919V311.741V303.329L21.301 297.912C27.026 294.933 31.7356 292.496 31.7669 292.496C31.7981 292.496 31.8403 316.805 31.8608 346.516L31.8978 400.535L60.6794 400.573L89.4611 400.61V350.941V301.273L60.8268 292.073C45.0779 287.012 32.0931 282.875 31.9715 282.879C31.8499 282.883 25.4486 286.204 17.7465 290.26ZM46.4913 300.158L50.7662 301.299L50.8045 308.138C50.8256 311.899 50.7924 314.973 50.7308 314.969C50.6692 314.965 48.5624 314.546 46.0491 314.038L41.4794 313.114L41.441 305.973L41.4029 298.832L41.8096 298.924C42.0333 298.975 44.1401 299.531 46.4913 300.158ZM62.8667 304.481C64.7243 304.972 66.493 305.441 66.7969 305.522L67.3497 305.67V311.968C67.3497 317.892 67.3344 318.261 67.0917 318.197C66.9499 318.16 65.1589 317.807 63.1117 317.412L59.3896 316.694V310.141C59.3896 306.537 59.412 303.588 59.4394 303.588C59.4668 303.588 61.0092 303.99 62.8667 304.481ZM78.5897 308.64L81.501 309.398V315.219C81.501 319.783 81.4612 321.038 81.3167 321.031C81.2155 321.026 79.7063 320.739 77.9632 320.395L74.7939 319.768L74.7554 313.685L74.7169 307.601L75.1976 307.741C75.4621 307.818 76.9885 308.222 78.5897 308.64ZM-33.3308 318.894C-38.8034 321.439 -43.8613 323.845 -44.5708 324.24L-45.8606 324.958V337.777V350.597L-50.4303 355.736L-55 360.876V381.408V401.94H-50.7988H-46.5977V383.091V364.243L-41.9552 359.025L-37.3127 353.808L-37.2749 341.831L-37.2372 329.854L-30.3089 326.711C-26.4984 324.983 -23.3309 323.565 -23.2702 323.561C-23.2094 323.558 -23.1596 340.892 -23.1596 362.082V400.609H-2.00637H19.1469V364.182V327.755L-1.89581 320.991C-13.4694 317.271 -23.038 314.236 -23.1596 314.246C-23.2812 314.257 -27.8583 316.348 -33.3308 318.894ZM46.6018 321.869L50.8399 322.56V329.41V336.26L50.1397 336.179C49.7546 336.135 47.6484 335.921 45.4594 335.704L41.4794 335.309L41.441 328.158L41.4029 321.007L41.8833 321.093C42.1476 321.14 44.271 321.489 46.6018 321.869ZM63.7744 324.672L67.3484 325.255L67.3491 331.594L67.3497 337.933L67.018 337.856C66.8357 337.813 65.0445 337.626 63.038 337.439L59.3896 337.1V330.532V323.965L59.795 324.027C60.018 324.061 61.8087 324.352 63.7744 324.672ZM-12.5831 326.916L-9.30327 327.77V332.761C-9.30313 335.507 -9.32391 337.753 -9.34926 337.753C-9.37461 337.753 -10.8795 337.453 -12.6935 337.087C-14.5076 336.721 -16.0125 336.422 -16.0378 336.422C-16.1403 336.422 -16.0758 326.069 -15.9734 326.066C-15.9125 326.064 -14.387 326.447 -12.5831 326.916ZM78.5159 327.114L81.501 327.593V333.412V339.232H81.163C80.9769 339.232 79.537 339.099 77.9632 338.936C76.3893 338.773 75.0157 338.64 74.9108 338.64C74.7579 338.64 74.7202 337.434 74.7202 332.558V326.476L75.1255 326.556C75.3486 326.599 76.8741 326.851 78.5159 327.114ZM-9.33998 343.368C-9.31978 343.37 -9.30312 345.602 -9.30312 348.327V353.282H-9.71484C-9.94141 353.282 -11.4145 353.149 -12.9884 352.986C-14.5622 352.823 -15.9026 352.69 -15.9671 352.69C-16.0313 352.69 -16.084 350.34 -16.084 347.466V342.242L-12.7304 342.802C-10.886 343.11 -9.36017 343.365 -9.33998 343.368ZM46.6387 343.519C48.9088 343.677 50.7827 343.808 50.803 343.811C50.8233 343.814 50.8399 346.878 50.8399 350.62V357.423H46.1228H41.4057V350.324V343.225L41.9585 343.229C42.2626 343.231 44.3686 343.362 46.6387 343.519ZM63.7382 344.629C65.4408 344.748 66.9499 344.847 67.0917 344.849C67.3333 344.852 67.3497 345.251 67.3497 351.137V357.423H63.3696H59.3896V350.916V344.408L60.0161 344.41C60.3606 344.412 62.0356 344.51 63.7382 344.629ZM78.433 345.593C79.6237 345.673 80.8012 345.739 81.0495 345.739H81.501V351.581V357.423H78.1106H74.7202V351.37V345.317L75.4941 345.382C75.9198 345.418 77.2422 345.513 78.433 345.593ZM-12.2882 358.767L-9.30312 358.945V363.952V368.959H-12.6935H-16.084V363.697V358.435L-15.6786 358.512C-15.4557 358.554 -13.9299 358.669 -12.2882 358.767Z" fill="white"/>
<path opacity="0.1" d="M-19.676 226.523L-14.7753 241.606H1.08358L-11.7465 250.927L-6.84587 266.01L-19.676 256.688L-32.5061 266.01L-27.6054 250.927L-40.4356 241.606H-24.5767L-19.676 226.523Z" fill="white"/>
<path opacity="0.1" d="M27.156 226.523L32.0567 241.606H47.9156L35.0855 250.927L39.9862 266.01L27.156 256.688L14.3259 266.01L19.2266 250.927L6.39646 241.606H22.2554L27.156 226.523Z" fill="white"/>
<path opacity="0.1" d="M73.9842 226.523L78.8848 241.606H94.7437L81.9136 250.927L86.8143 266.01L73.9842 256.688L61.154 266.01L66.0547 250.927L53.2246 241.606H69.0835L73.9842 226.523Z" fill="white"/>
<path opacity="0.1" fill-rule="evenodd" clip-rule="evenodd" d="M694.703 371.955C686.37 376.343 679.248 380.105 678.876 380.314L678.199 380.695L678.198 392.496L678.197 404.296H682.742H687.287V395.195V386.094L698.548 380.234C704.742 377.012 709.837 374.375 709.871 374.375C709.905 374.375 709.95 400.674 709.972 432.817L710.013 491.26L741.151 491.3L772.289 491.34V437.605V383.87L741.31 373.917C724.272 368.442 710.224 363.966 710.092 363.97C709.961 363.974 703.035 367.568 694.703 371.955ZM725.801 382.664L730.426 383.899L730.467 391.297C730.49 395.366 730.454 398.692 730.387 398.688C730.321 398.684 728.042 398.23 725.322 397.68L720.379 396.681L720.337 388.955L720.296 381.229L720.736 381.329C720.978 381.385 723.257 381.985 725.801 382.664ZM743.517 387.341C745.527 387.872 747.44 388.379 747.769 388.467L748.367 388.628V395.44C748.367 401.85 748.35 402.249 748.088 402.18C747.935 402.14 745.997 401.758 743.782 401.33L739.755 400.554V393.464C739.755 389.565 739.779 386.375 739.809 386.375C739.839 386.375 741.507 386.81 743.517 387.341ZM760.527 391.84L763.677 392.661V398.958C763.677 403.895 763.634 405.254 763.478 405.246C763.368 405.24 761.735 404.93 759.85 404.558L756.421 403.88L756.379 397.298L756.337 390.717L756.858 390.868C757.144 390.951 758.795 391.389 760.527 391.84ZM639.443 402.934C633.523 405.687 628.051 408.29 627.283 408.718L625.888 409.495V423.364V437.233L620.944 442.793L616 448.354V470.567V492.78H620.545H625.09V472.388V451.995L630.113 446.351L635.135 440.707L635.176 427.749L635.217 414.792L642.713 411.391C646.835 409.521 650.262 407.988 650.328 407.984C650.393 407.98 650.447 426.733 650.447 449.658V491.34H673.332H696.218V451.93V412.521L673.452 405.203C660.931 401.178 650.579 397.895 650.447 397.906C650.316 397.918 645.364 400.18 639.443 402.934ZM725.92 406.153L730.506 406.9V414.311V421.722L729.748 421.635C729.331 421.587 727.053 421.355 724.685 421.12L720.379 420.693L720.337 412.956L720.296 405.22L720.816 405.313C721.102 405.364 723.399 405.742 725.92 406.153ZM744.499 409.186L748.366 409.816L748.366 416.674L748.367 423.532L748.008 423.448C747.811 423.402 745.873 423.2 743.702 422.998L739.755 422.631V415.525V408.42L740.194 408.487C740.435 408.525 742.372 408.839 744.499 409.186ZM661.89 411.613L665.438 412.536V417.937C665.438 420.907 665.416 423.337 665.388 423.337C665.361 423.337 663.733 423.013 661.77 422.617C659.808 422.221 658.18 421.897 658.152 421.897C658.041 421.897 658.111 410.696 658.222 410.693C658.288 410.691 659.938 411.105 661.89 411.613ZM760.448 411.827L763.677 412.345V418.641V424.937H763.311C763.11 424.937 761.552 424.793 759.85 424.617C758.147 424.441 756.661 424.297 756.547 424.297C756.382 424.297 756.341 422.992 756.341 417.717V411.136L756.78 411.223C757.021 411.27 758.671 411.542 760.448 411.827ZM665.398 429.411C665.42 429.415 665.438 431.829 665.438 434.777V440.138H664.993C664.748 440.138 663.154 439.994 661.451 439.818C659.749 439.642 658.298 439.498 658.229 439.498C658.159 439.498 658.102 436.954 658.102 433.846V428.194L661.73 428.8C663.726 429.133 665.377 429.408 665.398 429.411ZM725.96 429.576C728.416 429.746 730.444 429.888 730.466 429.892C730.488 429.895 730.506 433.209 730.506 437.257V444.618H725.402H720.299V436.937V429.257L720.897 429.261C721.226 429.264 723.504 429.405 725.96 429.576ZM744.46 430.776C746.302 430.905 747.935 431.012 748.088 431.014C748.349 431.017 748.367 431.449 748.367 437.817V444.618H744.061H739.755V437.577V430.537L740.433 430.54C740.806 430.541 742.618 430.647 744.46 430.776ZM760.358 431.819C761.646 431.906 762.92 431.977 763.189 431.977H763.677V438.297V444.618H760.009H756.341V438.069V431.52L757.178 431.591C757.639 431.629 759.07 431.732 760.358 431.819ZM662.209 446.072L665.438 446.265V451.682V457.098H661.77H658.102V451.405V445.712L658.541 445.796C658.782 445.842 660.433 445.966 662.209 446.072Z" fill="white"/>
<path opacity="0.1" d="M654.217 303L659.519 319.318H676.676L662.795 329.402L668.097 345.72L654.217 335.635L640.336 345.72L645.638 329.402L631.757 319.318H648.915L654.217 303Z" fill="white"/>
<path opacity="0.1" d="M704.881 303L710.183 319.318H727.34L713.459 329.402L718.761 345.72L704.881 335.635L691 345.72L696.302 329.402L682.421 319.318H699.579L704.881 303Z" fill="white"/>
<path opacity="0.1" d="M755.545 303L760.847 319.318H778.004L764.123 329.402L769.425 345.72L755.545 335.635L741.664 345.72L746.966 329.402L733.085 319.318H750.243L755.545 303Z" fill="white"/>
<path opacity="0.1" fill-rule="evenodd" clip-rule="evenodd" d="M217.676 83.7124C215.063 85.1431 215.102 84.682 215.102 114.087V142.041H219.679H224.257V129.155V116.269H245.428H266.6V129.155V142.041H271.177H275.755V114.311C275.755 84.3802 275.812 85.1242 273.425 83.8888C271.364 82.8218 219.603 82.658 217.676 83.7124ZM266.6 99.6599V107.105H245.428H224.257V99.6599V92.2145H245.428H266.6V99.6599ZM206.513 151.348C201.857 154.519 202.247 149.995 202.066 202.935C201.872 259.859 201.451 257.439 211.68 258.172L215.674 258.458V204.258V150.059H212.039C209.212 150.059 207.984 150.346 206.513 151.348ZM223.685 204.182V258.304H245.428H267.172V204.182V150.059H245.428H223.685V204.182ZM275.183 204.258V258.458L279.176 258.172C284.034 257.824 286.617 256.152 288.024 252.443C289.651 248.154 289.099 156.504 287.432 154.253C285.181 151.213 282.812 150.059 278.817 150.059H275.183V204.258ZM252.351 164.751C256.143 168.549 253.265 171.25 245.428 171.25C237.904 171.25 234.991 168.853 238.041 165.174C240.017 162.791 250.096 162.493 252.351 164.751ZM208.807 270.554C208.807 280.445 217.373 280.5 217.871 270.612L218.088 266.322H213.447H208.807V270.554ZM272.985 270.612C273.484 280.5 282.049 280.445 282.049 270.554V266.322H277.409H272.769L272.985 270.612Z" fill="white"/>
<path opacity="0.1" fill-rule="evenodd" clip-rule="evenodd" d="M472.839 -96.189C469.864 -94.5602 469.909 -95.0851 469.909 -61.6083V-29.7838H475.118H480.327V-44.4543V-59.1248H504.418H528.51V-44.4543V-29.7838H533.719H538.928V-61.3534C538.928 -95.4287 538.993 -94.5817 536.277 -95.9881C533.931 -97.2028 475.03 -97.3893 472.839 -96.189ZM528.51 -78.0334V-69.5571H504.418H480.327V-78.0334V-86.5097H504.418H528.51V-78.0334ZM460.135 -19.1884C454.838 -15.5782 455.281 -20.7285 455.075 39.5412C454.854 104.347 454.375 101.592 466.016 102.426L470.56 102.752V41.048V-20.6554H466.424C463.207 -20.6554 461.809 -20.3294 460.135 -19.1884ZM479.676 40.9606V102.577H504.418H529.161V40.9606V-20.6554H504.418H479.676V40.9606ZM538.277 41.048V102.752L542.821 102.426C548.349 102.03 551.288 100.126 552.889 95.9046C554.741 91.021 554.113 -13.3182 552.216 -15.8807C549.655 -19.3423 546.958 -20.6554 542.413 -20.6554H538.277V41.048ZM512.296 -3.92912C516.611 0.393784 513.336 3.46937 504.418 3.46937C495.857 3.46937 492.541 0.740662 496.012 -3.44793C498.261 -6.161 509.73 -6.5007 512.296 -3.92912ZM462.746 116.523C462.746 127.783 472.493 127.846 473.06 116.589L473.307 111.705H468.026H462.746V116.523ZM535.776 116.589C536.344 127.846 546.09 127.783 546.09 116.523V111.705H540.81H535.53L535.776 116.589Z" fill="white"/>
<path opacity="0.1" fill-rule="evenodd" clip-rule="evenodd" d="M107.701 -33.528C94.5239 -38.8941 79.2372 -36.521 68.2684 -27.4061C63.7224 -23.6288 65.9404 -26.9028 39.7342 14.7149L16.1779 52.1243L15.9207 54.3202C15.5745 57.2775 16.209 60.0712 17.7986 62.5884L18.9791 64.4575L44.1661 80.3175L69.3532 96.1775L71.5488 96.4343C74.5058 96.78 77.2993 96.145 79.8166 94.5548L81.6858 93.3739L92.9629 75.5957C106.248 54.6523 105.976 55.2203 105.479 49.4546C105.089 44.9198 105.121 44.9723 91.9367 27.3166C79.6573 10.8729 79.8897 11.2307 79.0271 7.44755C75.2323 -9.19574 96.5287 -18.8458 105.359 -4.48436C107.995 -0.19775 107.898 4.3938 105.048 10.2431C97.1515 26.4521 118.04 37.0581 127.053 21.4156C138.604 1.36695 129.431 -24.6791 107.701 -33.528ZM82.3992 56.9978C83.862 59.8244 81.9187 62.9106 78.7375 62.813C77.5193 62.7755 46.9524 43.9488 45.425 42.2951C42.6482 39.2889 45.5949 34.4495 49.3925 35.7796C51.716 36.5934 81.8717 55.979 82.3992 56.9978ZM73.0206 69.9754C75.6033 72.5737 73.721 76.7658 70.023 76.6523C68.8048 76.6148 38.238 57.7881 36.7105 56.1345C33.9339 53.1283 36.8863 48.2795 40.6758 49.6224C42.1137 50.1319 71.9717 68.9202 73.0206 69.9754Z" fill="white"/>
<path opacity="0.1" fill-rule="evenodd" clip-rule="evenodd" d="M530.728 194.458C519.817 190.015 507.16 191.98 498.078 199.527C494.314 202.655 496.151 199.944 474.453 234.402L454.949 265.376L454.736 267.194C454.449 269.643 454.974 271.956 456.291 274.04L457.268 275.588L478.122 288.719L498.976 301.851L500.794 302.064C503.243 302.35 505.556 301.824 507.64 300.508L509.188 299.53L518.525 284.81C529.524 267.469 529.299 267.94 528.888 263.166C528.565 259.411 528.591 259.455 517.675 244.836C507.508 231.221 507.7 231.517 506.986 228.385C503.844 214.605 521.477 206.615 528.789 218.506C530.971 222.055 530.891 225.857 528.531 230.7C521.993 244.12 539.288 252.902 546.75 239.95C556.315 223.35 548.719 201.785 530.728 194.458ZM509.778 269.411C510.989 271.752 509.38 274.307 506.746 274.226C505.738 274.195 480.429 258.607 479.164 257.238C476.865 254.749 479.305 250.742 482.449 251.843C484.373 252.517 509.341 268.568 509.778 269.411ZM502.013 280.156C504.151 282.308 502.593 285.779 499.531 285.685C498.522 285.654 473.214 270.066 471.949 268.697C469.65 266.208 472.095 262.193 475.232 263.305C476.423 263.727 501.144 279.283 502.013 280.156Z" fill="white"/>
</g>
</svg>
