<svg width="24" height="23" viewBox="0 0 24 23" fill="none" xmlns="http://www.w3.org/2000/svg">
<path d="M6.49922 7.1002C6.49922 5.93324 6.96279 4.81409 7.78795 3.98893C8.61311 3.16377 9.73227 2.7002 10.8992 2.7002C12.0662 2.7002 13.1853 3.16377 14.0105 3.98893C14.8356 4.81409 15.2992 5.93324 15.2992 7.1002C15.2992 8.26715 14.8356 9.38631 14.0105 10.2115C13.1853 11.0366 12.0662 11.5002 10.8992 11.5002C9.73227 11.5002 8.61311 11.0366 7.78795 10.2115C6.96279 9.38631 6.49922 8.26715 6.49922 7.1002ZM10.8992 3.8002C10.024 3.8002 9.18464 4.14787 8.56577 4.76674C7.9469 5.38561 7.59922 6.22498 7.59922 7.1002C7.59922 7.97541 7.9469 8.81478 8.56577 9.43365C9.18464 10.0525 10.024 10.4002 10.8992 10.4002C11.7744 10.4002 12.6138 10.0525 13.2327 9.43365C13.8515 8.81478 14.1992 7.97541 14.1992 7.1002C14.1992 6.22498 13.8515 5.38561 13.2327 4.76674C12.6138 4.14787 11.7744 3.8002 10.8992 3.8002ZM3.19922 14.8002C3.19922 13.5759 4.19252 12.6002 5.40912 12.6002H16.3992C16.7073 12.6 17.012 12.6644 17.2935 12.7894C17.1707 13.2754 17.2093 13.7881 17.4035 14.2502H17.3518C17.2553 14.083 17.1164 13.9441 16.9492 13.8476C16.782 13.751 16.5923 13.7002 16.3992 13.7002H5.40912C4.79202 13.7002 4.29922 14.1919 4.29922 14.8002C4.29922 16.2401 4.98342 17.3126 6.13952 18.0485C7.31652 18.7998 8.99072 19.2002 10.8992 19.2002C11.9574 19.2002 12.943 19.077 13.812 18.8394C13.6646 19.2104 13.6161 19.6133 13.6712 20.0087C12.8033 20.2045 11.8672 20.3002 10.8992 20.3002C8.85872 20.3002 6.95792 19.8756 5.54772 18.9769C4.11552 18.0639 3.19922 16.6592 3.19922 14.8002ZM18.4177 12.8917L18.8566 11.8566C19.0623 11.3704 19.5551 11.1064 20.0391 11.2076L20.1425 11.234L20.6925 11.41C21.2381 11.5849 21.655 12.0513 21.7903 12.6376C22.1104 14.0313 21.7265 15.7286 20.6364 17.7284C19.5485 19.726 18.3572 20.9261 17.0603 21.3309C16.5565 21.4882 16.0153 21.3749 15.6083 21.0328L15.5016 20.9338L15.0836 20.5147C14.908 20.3339 14.7946 20.1019 14.7598 19.8523C14.7249 19.6026 14.7706 19.3484 14.89 19.1265L14.9516 19.0253L15.5808 18.1013C15.6952 17.9269 15.8593 17.7908 16.0519 17.7106C16.2444 17.6304 16.4566 17.6097 16.661 17.6514L16.771 17.6811L17.9337 18.0694C18.3968 17.7174 18.784 17.2774 19.0931 16.7439C19.3582 16.2874 19.5331 15.8254 19.6134 15.3568L19.6464 15.1214L18.6795 14.2029C18.5235 14.0508 18.4125 13.8585 18.3589 13.6473C18.3053 13.4361 18.3112 13.2142 18.3759 13.0061L18.4166 12.8917H18.4177Z" fill="#0B100C"/>
</svg>
