<svg width="28" height="28" viewBox="0 0 28 28" fill="none" xmlns="http://www.w3.org/2000/svg">
<path d="M24 11H28V13H24V11ZM21 5.586L23.828 2.758L25.242 4.172L22.414 7L21 5.586ZM21 18.414L22.414 17L25.242 19.828L23.828 21.242L21 18.414ZM15 0H17V4H15V0ZM16 6C15.6648 6.00218 15.3303 6.03229 15 6.09V8.142C15.3259 8.05215 15.662 8.00442 16 8C17.0609 8 18.0783 8.42143 18.8284 9.17157C19.5786 9.92172 20 10.9391 20 12C20 13.0609 19.5786 14.0783 18.8284 14.8284C18.0783 15.5786 17.0609 16 16 16V18C17.5913 18 19.1174 17.3679 20.2426 16.2426C21.3679 15.1174 22 13.5913 22 12C22 10.4087 21.3679 8.88258 20.2426 7.75736C19.1174 6.63214 17.5913 6 16 6ZM8.00001 18.184V5H6.00001V18.184C5.33279 18.4199 4.77045 18.8841 4.41237 19.4945C4.0543 20.1049 3.92354 20.8222 4.04321 21.5197C4.16288 22.2172 4.52528 22.85 5.06635 23.3061C5.60741 23.7622 6.29232 24.0124 7.00001 24.0124C7.70769 24.0124 8.3926 23.7622 8.93367 23.3061C9.47473 22.85 9.83713 22.2172 9.9568 21.5197C10.0765 20.8222 9.94571 20.1049 9.58764 19.4945C9.22956 18.8841 8.66722 18.4199 8.00001 18.184Z" fill="#395937"/>
<path d="M7.00087 28C5.62284 28.0016 4.27508 27.5959 3.12681 26.8341C1.97854 26.0722 1.08096 24.9881 0.546783 23.7178C0.0126037 22.4475 -0.134363 21.0477 0.124339 19.6942C0.38304 18.3407 1.03588 17.0937 2.00087 16.11V5C2.00087 3.67392 2.52765 2.40215 3.46534 1.46447C4.40302 0.526784 5.67479 0 7.00087 0C8.32695 0 9.59872 0.526784 10.5364 1.46447C11.4741 2.40215 12.0009 3.67392 12.0009 5V16.11C12.9659 17.0937 13.6187 18.3407 13.8774 19.6942C14.1361 21.0477 13.9891 22.4475 13.455 23.7178C12.9208 24.9881 12.0232 26.0722 10.8749 26.8341C9.72666 27.5959 8.37889 28.0016 7.00087 28ZM7.00087 2C6.20546 2.00079 5.44286 2.31712 4.88043 2.87956C4.31799 3.44199 4.00166 4.20459 4.00087 5V16.983L3.66887 17.282C2.91375 17.9569 2.38139 18.8452 2.14225 19.8294C1.90311 20.8135 1.96848 21.8471 2.32969 22.7932C2.6909 23.7394 3.33093 24.5536 4.16506 25.128C4.99919 25.7024 5.98809 26.01 7.00087 26.01C8.01365 26.01 9.00255 25.7024 9.83668 25.128C10.6708 24.5536 11.3108 23.7394 11.6721 22.7932C12.0333 21.8471 12.0986 20.8135 11.8595 19.8294C11.6204 18.8452 11.088 17.9569 10.3329 17.282L10.0009 16.983V5C10.0001 4.20459 9.68375 3.44199 9.12131 2.87956C8.55888 2.31712 7.79628 2.00079 7.00087 2Z" fill="#395937"/>
</svg>
