<svg width="292" height="140" viewBox="0 0 292 140" fill="none" xmlns="http://www.w3.org/2000/svg">
<path fill-rule="evenodd" clip-rule="evenodd" d="M0 46.1356H84.6708V52.1635H47.0216V100.864H37.6492V52.1635H0V46.1356ZM1.39808 47.5357V50.7634H39.0473V99.4636H45.6235V50.7634H83.2727V47.5357H1.39808Z" fill="#4D4D4D"/>
<path fill-rule="evenodd" clip-rule="evenodd" d="M207.329 46.1356H292V52.1635H254.351V100.864H244.978V52.1635H207.329V46.1356ZM208.727 47.5357V50.7634H246.377V99.4636H252.953V50.7634H290.602V47.5357H208.727Z" fill="#4D4D4D"/>
<path fill-rule="evenodd" clip-rule="evenodd" d="M146 0L247.373 100.864H44.6272L146 0ZM146 1.97369L48.0181 99.4637H243.982L146 1.97369Z" fill="#4D4D4D"/>
<path fill-rule="evenodd" clip-rule="evenodd" d="M99.9208 46.8356H192.096L146.001 92.6835L99.9208 46.8356Z" fill="#E5E5E5"/>
<path fill-rule="evenodd" clip-rule="evenodd" d="M99.9493 45.8776L146.001 91.6971L192.052 45.8939L192.795 46.9296V100.864H183.423V63.9161L146.804 100.352L145.265 100.419L108.594 63.9321V100.864H99.2218V47.0879L99.9493 45.8776ZM191.397 48.5181L146 93.6706L100.62 48.5185V99.464H107.196V60.5673L145.816 98.9939L146.202 98.977L184.821 60.5513V99.464H191.397V48.5181Z" fill="#4D4D4D"/>
<path d="M226.661 134.451C227.008 134.467 227.355 134.422 227.685 134.316C227.908 134.235 228.097 134.082 228.222 133.882C228.331 133.692 228.387 133.476 228.384 133.257C228.388 133.028 228.324 132.803 228.199 132.611C228.045 132.4 227.822 132.251 227.568 132.191C227.426 132.151 227.281 132.124 227.134 132.111C226.97 132.095 226.766 132.088 226.522 132.088H225.144V134.451H226.661ZM225.144 135.853V138.428H226.241C226.534 138.428 226.787 138.421 226.998 138.404C227.181 138.393 227.362 138.366 227.54 138.325C227.743 138.287 227.94 138.219 228.124 138.125C228.265 138.051 228.393 137.954 228.501 137.838C228.594 137.735 228.664 137.614 228.707 137.483C228.749 137.349 228.77 137.209 228.768 137.068C228.773 136.828 228.699 136.593 228.557 136.399C228.386 136.189 228.152 136.039 227.889 135.97C227.737 135.923 227.581 135.894 227.423 135.881C227.194 135.86 226.965 135.851 226.736 135.853L225.144 135.853ZM230.116 133.119C230.121 133.499 230.028 133.874 229.847 134.208C229.642 134.566 229.333 134.853 228.961 135.032V135.06C229.182 135.134 229.394 135.234 229.591 135.358C229.776 135.474 229.941 135.619 230.079 135.788C230.215 135.957 230.321 136.148 230.393 136.352C230.472 136.579 230.51 136.817 230.508 137.056C230.504 137.299 230.468 137.54 230.4 137.772C230.323 138.041 230.197 138.292 230.027 138.514C229.828 138.773 229.586 138.996 229.312 139.174C228.966 139.396 228.585 139.557 228.184 139.653C228.072 139.68 227.945 139.704 227.812 139.727C227.676 139.75 227.526 139.769 227.362 139.786C227.198 139.802 227.012 139.813 226.811 139.82C226.612 139.828 226.384 139.83 226.131 139.83H223.461V130.686H226.654C227.211 130.669 227.767 130.739 228.302 130.892C228.591 130.981 228.864 131.113 229.113 131.283C229.329 131.434 229.52 131.616 229.68 131.825C229.824 132.014 229.934 132.226 230.009 132.452C230.079 132.667 230.115 132.892 230.116 133.119ZM216.246 138.428H220.764V139.83H214.563V130.686H220.517V132.088H216.246V134.451H219.913V135.853H216.246L216.246 138.428ZM206.887 134.847C207.008 134.864 207.13 134.874 207.252 134.878C207.403 134.885 207.557 134.89 207.717 134.89C208.099 134.896 208.482 134.859 208.856 134.78C209.12 134.725 209.372 134.622 209.599 134.477C209.775 134.359 209.916 134.195 210.005 134.003C210.088 133.812 210.129 133.607 210.126 133.399C210.133 133.153 210.069 132.911 209.941 132.701C209.785 132.481 209.557 132.32 209.297 132.245C209.103 132.184 208.903 132.144 208.701 132.125C208.413 132.098 208.123 132.085 207.834 132.088H206.887V134.847ZM207.745 136.289C207.592 136.289 207.445 136.287 207.297 136.282C207.152 136.279 207.013 136.27 206.887 136.256V139.83H205.204V130.686H207.855C208.243 130.683 208.632 130.703 209.018 130.745C209.319 130.777 209.617 130.836 209.909 130.919C210.473 131.072 210.978 131.391 211.357 131.834C211.709 132.292 211.889 132.858 211.866 133.434C211.872 133.848 211.777 134.257 211.589 134.626C211.4 134.986 211.125 135.295 210.788 135.524C210.395 135.789 209.957 135.981 209.496 136.091C208.923 136.231 208.335 136.297 207.745 136.289ZM198.566 132.886C198.245 133.845 197.958 134.642 197.708 135.286L197.391 136.098H199.766L199.452 135.286C199.199 134.638 198.913 133.84 198.592 132.886H198.566ZM200.31 137.499H196.847L195.95 139.83H194.156L197.804 130.686H199.342L202.987 139.83H201.21L200.31 137.499ZM185.251 139.83V130.686H186.935V134.847H186.96L190.43 130.686H192.516L188.686 135.216L192.833 139.83H190.676L186.96 135.701H186.935V139.83H185.251ZM182.554 135.258C182.562 135.909 182.461 136.557 182.257 137.175C182.073 137.73 181.776 138.24 181.385 138.675C180.993 139.1 180.512 139.434 179.976 139.653C178.752 140.116 177.401 140.116 176.178 139.653C175.642 139.433 175.161 139.1 174.769 138.675C174.378 138.24 174.081 137.73 173.897 137.175C173.5 135.928 173.5 134.588 173.897 133.341C174.081 132.786 174.378 132.276 174.769 131.841C175.161 131.416 175.642 131.083 176.178 130.864C177.401 130.4 178.753 130.4 179.976 130.864C180.512 131.082 180.993 131.416 181.385 131.841C181.776 132.276 182.073 132.786 182.257 133.341C182.461 133.959 182.562 134.607 182.554 135.258ZM180.817 135.258C180.827 134.764 180.757 134.272 180.611 133.8C180.494 133.418 180.3 133.063 180.041 132.758C179.806 132.485 179.51 132.272 179.176 132.135C178.469 131.861 177.685 131.861 176.977 132.135C176.644 132.272 176.348 132.486 176.112 132.758C175.855 133.064 175.661 133.419 175.543 133.8C175.268 134.754 175.268 135.765 175.543 136.718C175.661 137.099 175.855 137.451 176.112 137.756C176.349 138.027 176.645 138.239 176.977 138.377C177.683 138.657 178.47 138.657 179.176 138.377C179.509 138.239 179.805 138.027 180.041 137.756C180.3 137.453 180.494 137.099 180.611 136.718C180.757 136.245 180.827 135.753 180.817 135.258ZM169.177 139.83H167.496V132.088H164.528V130.686H172.137V132.088H169.177L169.177 139.83ZM151.216 134.451C151.563 134.467 151.91 134.422 152.24 134.316C152.463 134.235 152.652 134.082 152.777 133.882C152.886 133.692 152.942 133.476 152.939 133.257C152.943 133.028 152.878 132.803 152.754 132.611C152.6 132.4 152.377 132.251 152.123 132.191C151.981 132.151 151.836 132.124 151.689 132.111C151.525 132.095 151.321 132.088 151.078 132.088H149.699V134.451H151.216ZM149.699 135.853V138.428H150.796C151.089 138.428 151.342 138.421 151.553 138.404C151.736 138.393 151.917 138.366 152.095 138.325C152.298 138.287 152.495 138.219 152.679 138.125C152.82 138.051 152.948 137.954 153.056 137.838C153.149 137.735 153.219 137.614 153.262 137.483C153.304 137.349 153.325 137.209 153.323 137.068C153.328 136.828 153.254 136.593 153.112 136.399C152.941 136.189 152.707 136.039 152.444 135.97C152.292 135.923 152.136 135.894 151.978 135.881C151.749 135.86 151.52 135.851 151.291 135.853L149.699 135.853ZM154.671 133.119C154.676 133.499 154.583 133.874 154.402 134.208C154.196 134.566 153.888 134.853 153.515 135.032V135.06C153.737 135.134 153.949 135.234 154.146 135.358C154.331 135.474 154.496 135.619 154.634 135.788C154.77 135.957 154.876 136.148 154.948 136.352C155.027 136.579 155.065 136.817 155.063 137.056C155.059 137.299 155.023 137.54 154.955 137.772C154.878 138.041 154.752 138.292 154.582 138.514C154.383 138.773 154.141 138.996 153.867 139.174C153.521 139.396 153.14 139.557 152.739 139.653C152.627 139.68 152.5 139.704 152.367 139.727C152.231 139.75 152.081 139.769 151.917 139.786C151.753 139.802 151.567 139.813 151.366 139.82C151.167 139.828 150.939 139.83 150.686 139.83H148.016V130.686H151.209C151.765 130.669 152.321 130.739 152.857 130.892C153.145 130.981 153.419 131.113 153.668 131.283C153.884 131.434 154.075 131.616 154.235 131.825C154.379 132.014 154.489 132.226 154.563 132.452C154.634 132.667 154.67 132.892 154.671 133.119ZM145.319 135.258C145.327 135.909 145.226 136.557 145.021 137.175C144.837 137.73 144.54 138.24 144.149 138.675C143.757 139.1 143.276 139.434 142.74 139.653C141.517 140.116 140.166 140.116 138.942 139.653C138.406 139.433 137.925 139.1 137.533 138.675C137.142 138.24 136.845 137.73 136.661 137.175C136.264 135.928 136.264 134.588 136.661 133.341C136.845 132.786 137.142 132.276 137.533 131.841C137.925 131.416 138.406 131.083 138.942 130.864C140.165 130.4 141.517 130.4 142.74 130.864C143.276 131.082 143.757 131.416 144.149 131.841C144.54 132.276 144.837 132.786 145.021 133.341C145.226 133.959 145.327 134.607 145.319 135.258ZM143.582 135.258C143.591 134.764 143.522 134.272 143.375 133.8C143.259 133.418 143.065 133.063 142.806 132.758C142.57 132.485 142.274 132.272 141.941 132.135C141.233 131.861 140.449 131.861 139.742 132.135C139.409 132.272 139.112 132.486 138.877 132.758C138.619 133.064 138.426 133.419 138.307 133.8C138.032 134.754 138.032 135.765 138.307 136.718C138.426 137.099 138.619 137.451 138.877 137.756C139.113 138.027 139.409 138.239 139.742 138.377C140.448 138.657 141.235 138.657 141.941 138.377C142.273 138.239 142.57 138.027 142.806 137.756C143.065 137.453 143.259 137.099 143.375 136.718C143.521 136.245 143.591 135.753 143.582 135.258ZM129.1 134.847C129.221 134.864 129.343 134.875 129.466 134.878C129.616 134.885 129.77 134.89 129.93 134.89C130.312 134.896 130.695 134.859 131.069 134.78C131.333 134.725 131.585 134.622 131.812 134.477C131.988 134.359 132.129 134.195 132.218 134.003C132.301 133.812 132.342 133.607 132.34 133.399C132.346 133.154 132.282 132.911 132.155 132.701C131.998 132.481 131.771 132.32 131.51 132.245C131.316 132.184 131.116 132.144 130.914 132.125C130.626 132.098 130.336 132.085 130.047 132.088H129.1L129.1 134.847ZM129.958 136.289C129.806 136.289 129.658 136.287 129.51 136.282C129.365 136.279 129.226 136.27 129.1 136.256V139.83H127.417V130.686H130.068C130.457 130.683 130.845 130.703 131.231 130.745C131.532 130.777 131.83 130.836 132.122 130.919C132.686 131.072 133.191 131.391 133.571 131.834C133.922 132.292 134.102 132.858 134.079 133.434C134.085 133.848 133.99 134.257 133.802 134.626C133.613 134.986 133.338 135.295 133.001 135.524C132.608 135.789 132.17 135.981 131.709 136.091C131.136 136.231 130.548 136.297 129.958 136.289ZM124.719 135.258C124.727 135.909 124.627 136.557 124.422 137.175C124.238 137.73 123.941 138.24 123.55 138.675C123.158 139.1 122.677 139.434 122.141 139.653C120.918 140.116 119.566 140.116 118.343 139.653C117.807 139.433 117.326 139.1 116.934 138.675C116.543 138.24 116.246 137.73 116.062 137.175C115.665 135.928 115.665 134.588 116.062 133.341C116.246 132.786 116.543 132.276 116.934 131.841C117.326 131.416 117.807 131.083 118.343 130.864C119.566 130.4 120.918 130.4 122.141 130.864C122.677 131.082 123.158 131.416 123.55 131.841C123.941 132.276 124.238 132.786 124.422 133.341C124.627 133.959 124.727 134.607 124.719 135.258ZM122.982 135.258C122.992 134.764 122.922 134.272 122.776 133.8C122.66 133.418 122.466 133.063 122.207 132.758C121.971 132.485 121.675 132.272 121.341 132.135C120.634 131.861 119.85 131.861 119.142 132.135C118.809 132.272 118.513 132.486 118.277 132.758C118.02 133.064 117.826 133.419 117.708 133.8C117.432 134.754 117.432 135.765 117.708 136.718C117.826 137.099 118.02 137.452 118.277 137.756C118.514 138.027 118.81 138.239 119.142 138.377C119.848 138.657 120.635 138.657 121.341 138.377C121.674 138.239 121.97 138.027 122.207 137.756C122.466 137.453 122.66 137.099 122.776 136.718C122.922 136.245 122.992 135.753 122.982 135.258ZM111.342 139.83H109.661V132.088H106.693V130.686H114.303V132.088H111.342L111.342 139.83ZM97.7884 139.83V130.686H99.4715V134.847H99.4975L102.967 130.686H105.053L101.223 135.216L105.37 139.83H103.213L99.4975 135.701H99.4715V139.83H97.7884ZM90.574 138.428H95.0914V139.83H88.8908V130.686H94.8453V132.088H90.574V134.451H94.2404V135.853H90.574L90.574 138.428ZM83.7133 139.83H82.0326V132.088H79.0647V130.686H86.6742V132.088H83.7132L83.7133 139.83ZM75.0852 130.686H76.8479V139.83H75.1672V135.62C75.1672 135.097 75.1929 134.25 75.2493 133.084H75.221C74.9045 133.618 74.3553 134.441 73.5732 135.552L70.5794 139.83H68.8142V130.686H70.4974V134.897C70.4974 135.566 70.4693 136.408 70.413 137.425H70.4412C70.7341 136.942 71.2748 136.136 72.0635 135.006L75.0852 130.686ZM61.3864 132.566C61.8295 133.208 62.1404 133.668 62.3191 133.947H62.3545C62.6007 133.562 62.9101 133.104 63.2827 132.573L64.5934 130.686H66.5296L63.3298 135.183L66.668 139.83H64.7574L63.3226 137.786C62.971 137.285 62.646 136.811 62.3474 136.366H62.3191C62.0098 136.83 61.6848 137.304 61.3442 137.786L59.9095 139.83H58.0012L61.3371 135.183L58.1371 130.686H60.0736L61.3864 132.566ZM51.286 134.847C51.4073 134.864 51.5295 134.875 51.6519 134.878C51.8017 134.885 51.9564 134.89 52.1159 134.89C52.4987 134.896 52.8809 134.859 53.2553 134.78C53.5195 134.725 53.7713 134.622 53.9983 134.477C54.1747 134.359 54.315 134.195 54.4037 134.003C54.4869 133.813 54.5285 133.607 54.5257 133.399C54.5325 133.153 54.4682 132.911 54.3405 132.701C54.184 132.481 53.9567 132.32 53.696 132.245C53.5023 132.184 53.3027 132.144 53.1006 132.125C52.8123 132.098 52.5227 132.085 52.233 132.088H51.2861L51.286 134.847ZM52.1438 136.289C51.9917 136.289 51.8438 136.287 51.6963 136.282C51.5509 136.279 51.4124 136.27 51.286 136.256V139.83H49.6028V130.686H52.2541C52.6425 130.683 53.0307 130.703 53.4168 130.745C53.7183 130.777 54.0163 130.836 54.3077 130.919C54.8722 131.072 55.3772 131.391 55.7564 131.834C56.1078 132.292 56.2878 132.858 56.2653 133.434C56.271 133.848 56.1761 134.257 55.9887 134.626C55.7994 134.986 55.5241 135.295 55.1869 135.524C54.7941 135.789 54.3565 135.981 53.8952 136.091C53.3222 136.231 52.7337 136.297 52.1438 136.289ZM42.9651 132.886C42.6438 133.845 42.3577 134.642 42.1069 135.286L41.7905 136.098H44.1651L43.8512 135.286C43.5979 134.638 43.3118 133.84 42.9907 132.886H42.9651ZM44.709 137.499H41.2466L40.3489 139.83H38.5554L42.203 130.686H43.7409L47.3862 139.83H45.6093L44.709 137.499ZM249.093 119.308L247.019 122.747H245.103L247.391 119.049V119.021C246.858 118.849 246.394 118.514 246.064 118.063C245.765 117.6 245.614 117.057 245.633 116.507C245.622 115.938 245.789 115.38 246.109 114.909C246.445 114.43 246.921 114.067 247.473 113.869C247.715 113.778 247.966 113.712 248.221 113.671C248.535 113.623 248.851 113.6 249.168 113.603H252.556V122.747H250.873V119.308H249.093ZM250.873 115.012H249.321C249.12 115.009 248.919 115.022 248.721 115.049C248.567 115.07 248.416 115.107 248.271 115.161C247.991 115.263 247.751 115.451 247.586 115.697C247.438 115.93 247.361 116.199 247.363 116.474C247.363 116.619 247.379 116.763 247.41 116.904C247.442 117.038 247.497 117.167 247.572 117.284C247.652 117.404 247.754 117.508 247.872 117.592C248.012 117.688 248.167 117.76 248.331 117.806C248.475 117.845 248.622 117.873 248.77 117.888C248.978 117.908 249.187 117.917 249.396 117.916H250.873L250.873 115.012ZM238.325 115.803C238.004 116.761 237.718 117.559 237.467 118.203L237.151 119.014H239.525L239.211 118.203C238.958 117.554 238.672 116.756 238.351 115.803H238.325ZM240.069 120.416H236.607L235.709 122.746H233.916L237.563 113.603H239.101L242.747 122.746H240.97L240.069 120.416ZM224.355 122.746V113.603H226.038V117.764H226.064L229.533 113.603H231.62L227.789 118.133L231.936 122.746H229.779L226.064 118.618H226.038V122.746H224.355ZM219.037 114.846C218.604 114.843 218.174 114.919 217.769 115.072C217.393 115.215 217.054 115.439 216.775 115.728C216.485 116.033 216.264 116.395 216.125 116.792C215.962 117.255 215.882 117.744 215.891 118.235C215.882 118.717 215.954 119.196 216.104 119.654C216.23 120.035 216.439 120.384 216.716 120.675C216.988 120.953 217.32 121.165 217.687 121.293C218.105 121.439 218.545 121.51 218.988 121.503C219.345 121.502 219.701 121.475 220.054 121.422C220.399 121.37 220.739 121.289 221.07 121.181V122.623C220.729 122.718 220.383 122.791 220.033 122.84C219.651 122.892 219.266 122.918 218.88 122.917C218.181 122.93 217.485 122.818 216.827 122.585C216.269 122.386 215.763 122.067 215.345 121.65C214.944 121.239 214.639 120.744 214.452 120.202C214.247 119.602 214.146 118.972 214.154 118.338C214.148 117.678 214.256 117.021 214.473 116.397C214.672 115.824 214.986 115.297 215.394 114.846C215.813 114.397 216.326 114.045 216.897 113.816C217.546 113.555 218.241 113.425 218.941 113.433C219.311 113.431 219.681 113.458 220.047 113.512C220.367 113.557 220.682 113.631 220.988 113.734V115.154C220.653 115.047 220.31 114.968 219.963 114.916C219.657 114.87 219.347 114.847 219.037 114.846ZM206.234 117.764C206.355 117.781 206.477 117.791 206.6 117.795C206.75 117.802 206.904 117.806 207.064 117.806C207.447 117.813 207.829 117.776 208.203 117.696C208.468 117.642 208.719 117.539 208.946 117.393C209.123 117.276 209.263 117.112 209.352 116.92C209.435 116.729 209.477 116.523 209.474 116.316C209.481 116.07 209.416 115.828 209.289 115.618C209.132 115.397 208.905 115.236 208.644 115.161C208.45 115.101 208.251 115.061 208.049 115.042C207.76 115.015 207.471 115.002 207.181 115.005H206.234V117.764ZM207.092 119.206C206.94 119.206 206.792 119.203 206.644 119.199C206.499 119.196 206.361 119.187 206.234 119.173V122.746H204.551V113.603H207.202C207.591 113.6 207.979 113.619 208.365 113.661C208.667 113.694 208.965 113.752 209.256 113.836C209.82 113.989 210.325 114.308 210.705 114.751C211.056 115.209 211.236 115.775 211.213 116.351C211.219 116.765 211.124 117.173 210.937 117.543C210.747 117.903 210.472 118.211 210.135 118.441C209.742 118.706 209.305 118.898 208.843 119.007C208.27 119.148 207.682 119.214 207.092 119.206ZM196.68 121.344H201.198V122.747H194.997V113.603H200.952V115.005H196.68V117.368H200.347V118.77H196.68V121.344ZM189.164 122.747H187.483V115.005H184.515V113.603H192.124V115.005H189.164V122.747ZM180.09 114.846C179.657 114.843 179.227 114.919 178.822 115.072C178.446 115.215 178.107 115.439 177.828 115.728C177.538 116.033 177.317 116.395 177.179 116.792C177.015 117.255 176.936 117.744 176.944 118.235C176.935 118.717 177.007 119.196 177.158 119.654C177.283 120.035 177.492 120.384 177.77 120.675C178.041 120.953 178.373 121.165 178.74 121.293C179.158 121.439 179.598 121.51 180.041 121.503C180.398 121.502 180.755 121.475 181.108 121.422C181.452 121.37 181.792 121.289 182.123 121.181V122.623C181.783 122.718 181.437 122.791 181.087 122.84C180.704 122.892 180.319 122.918 179.933 122.917C179.234 122.93 178.539 122.818 177.88 122.586C177.323 122.386 176.817 122.067 176.398 121.65C175.997 121.239 175.692 120.744 175.505 120.202C175.3 119.602 175.2 118.972 175.207 118.338C175.201 117.678 175.309 117.021 175.526 116.398C175.725 115.824 176.039 115.297 176.447 114.846C176.866 114.397 177.379 114.045 177.95 113.816C178.6 113.555 179.294 113.425 179.994 113.433C180.365 113.431 180.734 113.458 181.101 113.512C181.42 113.557 181.735 113.632 182.041 113.734V115.154C181.706 115.047 181.364 114.968 181.016 114.916C180.71 114.87 180.4 114.847 180.09 114.846ZM168.464 115.803C168.143 116.761 167.857 117.559 167.606 118.203L167.29 119.014H169.664L169.35 118.203C169.097 117.554 168.811 116.757 168.49 115.803H168.464ZM170.209 120.416H166.746L165.848 122.747H164.055L167.702 113.603H169.24L172.885 122.747H171.109L170.209 120.416ZM156.484 120.293C156.686 119.574 156.936 118.802 157.234 117.976L158.819 113.603H161.182V122.747H159.501V118.114C159.501 117.435 159.527 116.647 159.583 115.749H159.52C159.443 116.008 159.351 116.299 159.246 116.624C159.14 116.948 159.03 117.265 158.915 117.58L157.014 122.747H155.929L154.027 117.58C153.912 117.265 153.802 116.948 153.697 116.624C153.591 116.3 153.5 116.008 153.423 115.749H153.359C153.415 116.591 153.444 117.377 153.444 118.107V122.747H151.76V113.603H154.11L155.694 117.955C155.961 118.681 156.211 119.46 156.444 120.293H156.484ZM135.841 119.308L133.767 122.747H131.851L134.139 119.049V119.021C133.607 118.849 133.142 118.514 132.813 118.063C132.513 117.6 132.362 117.057 132.381 116.507C132.371 115.938 132.537 115.38 132.857 114.909C133.193 114.43 133.67 114.067 134.221 113.869C134.463 113.778 134.714 113.712 134.969 113.671C135.283 113.623 135.599 113.6 135.916 113.603H139.304V122.747H137.621V119.308H135.841ZM137.621 115.012H136.069C135.868 115.009 135.668 115.022 135.469 115.049C135.315 115.07 135.164 115.107 135.019 115.161C134.739 115.263 134.499 115.451 134.334 115.697C134.187 115.93 134.109 116.199 134.111 116.474C134.111 116.619 134.127 116.763 134.158 116.904C134.19 117.039 134.245 117.167 134.32 117.284C134.4 117.404 134.502 117.508 134.62 117.592C134.76 117.688 134.916 117.76 135.08 117.806C135.223 117.845 135.37 117.873 135.518 117.888C135.726 117.908 135.935 117.917 136.144 117.916H137.621V115.012ZM125.073 115.803C124.752 116.761 124.466 117.559 124.215 118.203L123.899 119.014H126.273L125.959 118.203C125.706 117.554 125.42 116.756 125.099 115.803H125.073ZM126.817 120.416H123.355L122.457 122.746H120.664L124.311 113.603H125.849L129.495 122.746H127.718L126.817 120.416ZM111.103 122.746V113.603H112.786V117.764H112.812L116.281 113.603H118.368L114.537 118.133L118.684 122.746H116.528L112.812 118.618H112.786V122.746H111.103ZM105.785 114.846C105.352 114.843 104.922 114.919 104.517 115.072C104.141 115.215 103.802 115.439 103.523 115.728C103.233 116.033 103.012 116.395 102.874 116.792C102.71 117.255 102.63 117.744 102.639 118.235C102.63 118.717 102.702 119.196 102.852 119.654C102.978 120.035 103.187 120.384 103.464 120.675C103.736 120.953 104.068 121.165 104.435 121.293C104.853 121.439 105.293 121.51 105.736 121.503C106.093 121.502 106.45 121.475 106.803 121.422C107.147 121.37 107.487 121.289 107.818 121.181V122.623C107.478 122.718 107.131 122.791 106.782 122.84C106.399 122.892 106.014 122.918 105.628 122.917C104.929 122.93 104.234 122.818 103.575 122.585C103.018 122.386 102.511 122.067 102.093 121.65C101.692 121.239 101.387 120.744 101.2 120.202C100.995 119.602 100.894 118.972 100.902 118.338C100.896 117.678 101.004 117.021 101.221 116.397C101.42 115.824 101.734 115.297 102.142 114.846C102.561 114.397 103.074 114.045 103.645 113.816C104.294 113.555 104.989 113.425 105.689 113.433C106.059 113.431 106.429 113.458 106.796 113.512C107.115 113.557 107.43 113.631 107.736 113.734V115.154C107.401 115.047 107.059 114.968 106.711 114.916C106.405 114.87 106.095 114.847 105.785 114.846ZM93.4441 121.344H97.9615V122.746H91.7609V113.603H97.7154V115.005H93.4441V117.368H97.1105V118.77H93.4441L93.4441 121.344ZM86.3117 122.746V119.308C85.9761 119.407 85.6349 119.486 85.2899 119.544C84.9203 119.613 84.5453 119.649 84.1693 119.651C83.7909 119.656 83.4131 119.617 83.0439 119.534C82.7519 119.469 82.473 119.356 82.2188 119.199C81.998 119.062 81.8074 118.882 81.6584 118.669C81.5105 118.454 81.3959 118.218 81.3185 117.97C81.247 117.732 81.1998 117.488 81.1778 117.242C81.1545 116.976 81.1405 116.68 81.1405 116.358V113.603H82.8234V116.384C82.8223 116.591 82.8317 116.799 82.8516 117.006C82.8637 117.167 82.8984 117.326 82.9548 117.478C83.0328 117.725 83.2032 117.933 83.4308 118.058C83.715 118.19 84.0271 118.251 84.3403 118.235C84.6817 118.234 85.0223 118.202 85.3576 118.137C85.6801 118.078 85.9987 117.999 86.3117 117.902V113.603H87.9949V122.747L86.3117 122.746ZM72.9464 117.764C73.0676 117.781 73.1896 117.791 73.3119 117.795C73.462 117.802 73.6167 117.806 73.776 117.806C74.1588 117.813 74.541 117.776 74.9154 117.696C75.1796 117.641 75.4315 117.539 75.6586 117.393C75.8349 117.276 75.9752 117.112 76.0641 116.92C76.1471 116.729 76.1887 116.523 76.186 116.316C76.1926 116.07 76.1284 115.828 76.0009 115.618C75.8442 115.397 75.6169 115.236 75.3561 115.161C75.1623 115.101 74.9628 115.061 74.7607 115.042C74.4724 115.015 74.183 115.002 73.8934 115.005H72.9464V117.764ZM73.8043 119.206C73.6518 119.206 73.5042 119.203 73.3564 119.199C73.2111 119.196 73.0729 119.187 72.9464 119.173V122.746H71.2631V113.603H73.9145C74.3029 113.6 74.6911 113.619 75.0772 113.661C75.3787 113.694 75.6768 113.752 75.9681 113.836C76.5326 113.989 77.0376 114.308 77.4168 114.751C77.7683 115.209 77.9482 115.775 77.9257 116.351C77.9313 116.765 77.8364 117.173 77.649 117.543C77.4596 117.903 77.1842 118.211 76.847 118.441C76.4543 118.706 76.0168 118.897 75.5555 119.007C74.9826 119.148 74.3941 119.214 73.8043 119.206ZM67.9099 118.175C67.9177 118.826 67.817 119.474 67.6121 120.092C67.4281 120.646 67.1313 121.157 66.7401 121.592C66.3484 122.017 65.8673 122.351 65.3312 122.569C64.108 123.033 62.7566 123.033 61.5334 122.569C60.9976 122.35 60.5166 122.017 60.1246 121.592C59.7334 121.157 59.4365 120.646 59.2524 120.092C58.8555 118.844 58.8555 117.505 59.2524 116.258C59.4365 115.703 59.7334 115.193 60.1246 114.758C60.5165 114.333 60.9975 113.999 61.5334 113.78C62.7566 113.317 64.108 113.317 65.3312 113.78C65.8674 113.999 66.3485 114.332 66.7401 114.758C67.1313 115.193 67.4281 115.703 67.6121 116.258C67.817 116.876 67.9177 117.524 67.9099 118.175ZM66.1728 118.175C66.1822 117.681 66.1126 117.189 65.9666 116.717C65.8498 116.334 65.6559 115.98 65.3967 115.674C65.1615 115.402 64.8652 115.189 64.5317 115.051C63.8244 114.778 63.0401 114.778 62.3328 115.051C61.9997 115.189 61.7035 115.402 61.4678 115.674C61.2104 115.981 61.0167 116.335 60.8981 116.717C60.6231 117.67 60.6231 118.682 60.8981 119.635C61.0168 120.015 61.2105 120.368 61.4678 120.673C61.7043 120.943 62.0003 121.156 62.3328 121.293C63.0389 121.573 63.8256 121.573 64.5317 121.293C64.8645 121.156 65.1607 120.944 65.3967 120.673C65.6558 120.369 65.8497 120.016 65.9666 119.635C66.1124 119.162 66.182 118.669 66.1728 118.175ZM52.2376 117.368C52.5844 117.384 52.9314 117.338 53.2618 117.232C53.4844 117.151 53.6735 116.999 53.7988 116.798C53.9081 116.608 53.964 116.392 53.9607 116.173C53.9649 115.944 53.9003 115.719 53.7752 115.527C53.622 115.317 53.3984 115.168 53.1447 115.107C53.003 115.067 52.8578 115.041 52.7111 115.028C52.547 115.012 52.343 115.005 52.0991 115.005H50.7208V117.368H52.2376ZM50.7208 118.77V121.344H51.8179C52.1108 121.344 52.3641 121.338 52.5752 121.321C52.7575 121.309 52.9386 121.283 53.1166 121.242C53.3198 121.204 53.5164 121.136 53.7003 121.041C53.8417 120.968 53.9694 120.871 54.0778 120.754C54.1706 120.652 54.2408 120.531 54.284 120.4C54.326 120.265 54.3466 120.125 54.345 119.985C54.3495 119.745 54.2754 119.51 54.1339 119.315C53.9623 119.106 53.7284 118.955 53.4658 118.886C53.314 118.84 53.1576 118.81 52.9994 118.797C52.771 118.777 52.5418 118.767 52.3125 118.77H50.7208ZM55.6929 116.036C55.6975 116.416 55.6048 116.791 55.4234 117.125C55.2183 117.482 54.9094 117.769 54.5373 117.948V117.976C54.7587 118.05 54.9704 118.151 55.1678 118.275C55.3526 118.391 55.5173 118.536 55.6556 118.704C55.7912 118.874 55.8974 119.064 55.9696 119.269C56.0482 119.495 56.087 119.734 56.0843 119.973C56.0807 120.216 56.0445 120.456 55.9767 120.689C55.9 120.957 55.7736 121.209 55.604 121.431C55.4044 121.689 55.1626 121.912 54.8889 122.091C54.5426 122.312 54.1614 122.474 53.7612 122.569C53.6488 122.597 53.5222 122.621 53.3886 122.644C53.2526 122.667 53.1026 122.686 52.9384 122.702C52.7743 122.718 52.5892 122.73 52.3874 122.737C52.1883 122.744 51.9609 122.747 51.7076 122.747H49.0375V113.603H52.2305C52.7871 113.586 53.343 113.655 53.8783 113.808C54.167 113.897 54.4405 114.03 54.6895 114.2C54.9052 114.351 55.0966 114.533 55.2569 114.741C55.4003 114.931 55.5112 115.143 55.5852 115.369C55.6554 115.584 55.6917 115.809 55.6929 116.036ZM43.2042 122.747H41.5232V115.005H38.5554V113.603H46.1648V115.005H43.2042V122.747Z" fill="#4D4D4D"/>
<path d="M248.235 132.566C248.678 133.208 248.989 133.668 249.168 133.947H249.203C249.449 133.562 249.759 133.104 250.131 132.573L251.442 130.686H253.378L250.178 135.183L253.516 139.83H251.606L250.171 137.786C249.819 137.285 249.494 136.811 249.196 136.366H249.168C248.858 136.83 248.533 137.304 248.192 137.786L246.758 139.83H244.849L248.185 135.183L244.986 130.686H246.922L248.235 132.566ZM234.817 138.428H235.675C235.984 138.43 236.293 138.417 236.601 138.388C236.849 138.366 237.094 138.316 237.33 138.236C237.615 138.149 237.872 137.989 238.076 137.772C238.26 137.543 238.357 137.258 238.352 136.965C238.347 136.672 238.239 136.39 238.048 136.168C237.775 135.914 237.432 135.75 237.063 135.697C236.872 135.657 236.679 135.631 236.484 135.62C236.275 135.605 236.057 135.601 235.832 135.601C235.493 135.598 235.154 135.616 234.817 135.655V138.428ZM234.817 130.686V134.234C235.145 134.201 235.497 134.185 235.867 134.185C236.186 134.185 236.489 134.197 236.77 134.22C237.041 134.24 237.31 134.276 237.576 134.33C237.964 134.402 238.341 134.524 238.697 134.694C238.989 134.835 239.255 135.027 239.48 135.26C239.683 135.476 239.839 135.731 239.939 136.009C240.14 136.585 240.143 137.211 239.946 137.789C239.849 138.067 239.702 138.325 239.513 138.551C239.309 138.795 239.066 139.003 238.793 139.167C238.478 139.356 238.138 139.501 237.783 139.596C237.467 139.681 237.145 139.74 236.819 139.771C236.393 139.813 235.965 139.833 235.537 139.83H233.134V130.686L234.817 130.686ZM241.018 139.83V130.686H242.701V139.83H241.018Z" fill="#4D4D4D"/>
</svg>
