<svg width="77" height="20" viewBox="0 0 77 20" fill="none" xmlns="http://www.w3.org/2000/svg">
<g clip-path="url(#clip0_113_6)">
<path fill-rule="evenodd" clip-rule="evenodd" d="M41.406 5.10118C41.5912 5.29242 43.258 9.84837 43.4323 10.4108C43.6059 11.0135 43.8511 11.5916 44.1623 12.132C44.7396 12.267 44.7941 11.6708 44.9684 11.1983C45.9162 8.6447 47.3542 4.92119 48.0733 2.41261C48.5744 1.19769 48.618 0.87146 47.7138 0.87146C46.8095 0.87146 46.9076 1.47892 46.5481 2.26637C46.2322 3.76252 45.012 6.92356 44.5653 8.37472C44.5653 8.56596 44.5653 8.56596 44.3366 8.56596C43.5849 6.4061 42.7133 3.76252 41.8636 1.62516C41.6348 1.20894 41.2317 1.11894 40.9594 2.05263C40.5018 3.53754 39.87 5.30367 39.3797 6.74358C39.3797 6.74358 38.7914 8.56596 38.7479 8.65595C38.4363 8.13869 38.2082 7.5726 38.0724 6.97981C37.397 5.25867 36.8087 3.40254 36.2313 1.68141C36.0897 1.35518 36.0897 1.16394 35.7737 0.972704C35.4571 0.851529 35.1147 0.820448 34.7824 0.88271C33.8891 1.02895 34.4664 1.7714 34.6516 2.32262C35.7411 5.34867 36.9503 8.98218 38.1596 11.862C38.1879 11.9333 38.2339 11.9957 38.293 12.0429C38.3521 12.09 38.4222 12.1203 38.4962 12.1305C38.5702 12.1408 38.6455 12.1307 38.7146 12.1014C38.7836 12.072 38.8439 12.0243 38.8895 11.9632C39.0638 11.6145 41.2753 5.10118 41.406 5.10118Z" fill="#383838"/>
<path fill-rule="evenodd" clip-rule="evenodd" d="M0.174662 1.06198C0.129629 1.24938 0.144926 1.44682 0.218239 1.62444C0.40344 2.41189 -0.141269 11.3888 0.000355491 11.7488C0.441324 11.9535 0.935725 12.001 1.4057 11.8838C1.62359 11.6475 1.53643 11.4225 1.53643 11.0513C1.53643 9.46518 1.66716 7.93528 1.66716 6.30414C1.72163 5.69668 1.76521 5.28045 1.76521 4.90923C1.76521 4.538 1.76521 4.583 1.85237 4.49301C1.93952 4.40301 3.36666 6.96784 3.50828 7.24907C3.78063 7.80029 4.31445 8.64398 4.67396 9.29644C5.21866 10.3201 5.49102 9.62267 5.62175 9.38643C5.93768 8.97021 8.37797 4.54925 8.55228 4.45926C8.71569 4.63925 8.71569 9.06021 8.71569 9.38643C8.71569 11.805 8.44334 12.0413 9.92495 11.94C10.3825 11.94 10.4261 11.5688 10.3825 11.1526C10.3825 10.3651 10.3825 9.47643 10.3825 8.68898C10.2627 6.68661 10.1755 4.40301 10.1755 2.41189C10.1755 2.17566 10.2627 1.28697 10.2627 1.15198C10.1293 0.996786 9.94863 0.893244 9.75054 0.858471C9.55244 0.823697 9.34879 0.859775 9.17325 0.960738C8.85732 1.15198 8.77017 1.5682 8.54139 1.84943C7.62628 3.52557 6.39524 5.42669 5.5346 7.01284C5.21866 7.5753 5.21866 7.38407 4.94631 7.01284C4.35802 6.12415 3.59543 4.59425 3.06162 3.70556L1.9722 1.84943C1.82077 1.52687 1.62643 1.22775 1.39481 0.960738C1.08977 0.735753 0.490593 0.915741 0.174662 1.06198Z" fill="#383838"/>
<path fill-rule="evenodd" clip-rule="evenodd" d="M57.6561 6.26986C58.0417 5.94499 58.4991 5.72363 58.9876 5.6255C59.4761 5.52736 59.9805 5.5555 60.4559 5.7074C61.894 6.35986 62.0792 8.55346 61.4473 9.62214C61.1782 10.0386 60.7906 10.3586 60.3378 10.5379C59.8851 10.7173 59.3897 10.7471 58.9199 10.6233C58.4647 10.5306 58.0339 10.3388 57.6561 10.0609V6.26986ZM57.6561 4.68372C57.5882 3.45855 57.5882 2.23037 57.6561 1.00521C57.6561 0.498992 57.4818 0.408998 57.0243 0.588986C55.9349 1.06145 55.9349 0.870217 56.0874 1.8939C56.1745 2.41137 56.0874 8.40722 56.0874 9.25092C56.0874 10.9158 55.8586 11.2983 58.2008 11.9957C58.8678 12.1402 59.5561 12.1439 60.2245 12.0066C60.8928 11.8694 61.5274 11.594 62.0901 11.197C64.3888 9.25092 63.7569 3.76128 59.5626 4.1775C59.197 4.19793 58.8331 4.24302 58.4732 4.31249C58.3316 4.35749 57.7978 4.68372 57.7324 4.68372H57.6561Z" fill="#383838"/>
<path fill-rule="evenodd" clip-rule="evenodd" d="M25.9011 11.8501C26.0715 11.2635 26.1197 10.6462 26.0427 10.039C25.9981 9.40234 25.9981 8.76322 26.0427 8.1266C26.1734 8.1266 26.3151 8.36283 26.5874 8.64406C26.8598 8.92529 29.104 11.3439 29.4635 11.6139C29.5889 11.7344 29.7401 11.8227 29.9048 11.8716C30.0695 11.9204 30.243 11.9285 30.4113 11.8951C30.7272 11.8951 31.2283 11.8951 31.4026 11.6701C31.4026 11.3439 30.7708 10.8264 30.4984 10.5452C30.2261 10.264 29.8775 9.90398 29.5615 9.5215C28.8686 8.8918 28.2205 8.21133 27.6224 7.48539C27.6224 7.38414 30.0953 5.23553 30.5529 4.83056C30.7272 4.63932 30.9124 4.59433 30.8688 4.3131C30.3081 4.13448 29.7083 4.13448 29.1476 4.3131C28.9297 4.41434 27.4372 5.80925 27.0341 6.18047C26.9034 6.31546 26.1299 7.15916 26.0427 7.11416C25.912 6.68669 26.0427 0.870822 25.9556 0.544593C25.8684 0.218365 24.3323 0.735831 24.3759 1.29829C24.4613 1.69349 24.5051 2.09705 24.5066 2.50196V10.5452C24.5066 10.8264 24.4195 11.6701 24.6047 11.8051C25.0286 11.917 25.4709 11.9323 25.9011 11.8501Z" fill="#383838"/>
<path fill-rule="evenodd" clip-rule="evenodd" d="M14.1617 8.03561C14.6629 7.90062 16.3406 8.31684 16.4168 8.77806C16.4604 9.27576 16.4604 9.77651 16.4168 10.2742C16.1009 10.6904 13.933 11.5229 13.2139 10.038C13.117 9.82704 13.0668 9.59649 13.0668 9.36302C13.0668 9.12955 13.117 8.89901 13.2139 8.68807C13.3186 8.51655 13.4571 8.36978 13.6204 8.25735C13.7837 8.14491 13.9682 8.06935 14.1617 8.03561ZM16.4604 7.47315C16.0371 7.18356 15.5636 6.98112 15.066 6.87693C14.4458 6.80602 13.8183 6.85176 13.2139 7.01193C12.7051 7.16242 12.2564 7.47755 11.9339 7.91098C11.6114 8.3444 11.4321 8.87325 11.4223 9.41974C11.4125 9.96624 11.5729 10.5015 11.8797 10.947C12.1865 11.3924 12.6236 11.7243 13.1268 11.8941C13.9885 12.1975 14.9233 12.1975 15.785 11.8941C15.9702 11.8041 16.3297 11.5679 16.4604 11.5229C16.5911 11.4779 16.6456 11.8491 16.8199 11.9391C16.9942 12.0291 17.8113 11.9391 18.0401 11.7141C18.2688 11.4891 18.3124 11.5229 18.1708 11.1967C17.96 10.7662 17.8839 10.2788 17.9529 9.80174V6.44946C18.0099 5.9748 17.8976 5.49495 17.637 5.09955C16.7763 3.33342 11.5907 4.03087 12.0047 5.52702C12.4187 7.02317 13.0941 5.00956 15.3819 5.29079C16.6129 5.42578 16.4822 6.6407 16.4822 7.47315H16.4604Z" fill="#383838"/>
<path fill-rule="evenodd" clip-rule="evenodd" d="M69.7887 7.24953H66.052C66.102 6.78764 66.3062 6.35812 66.6294 6.03461C66.9821 5.71516 67.4253 5.52184 67.8931 5.4834C68.1367 5.46262 68.3819 5.49275 68.614 5.57199C68.8461 5.65124 69.0603 5.77797 69.244 5.94462C69.4288 6.10165 69.5746 6.30197 69.6694 6.52894C69.7641 6.75591 69.805 7.00296 69.7887 7.24953ZM65.9539 8.4532C66.2263 8.31821 70.3116 8.4532 71.0524 8.4532C71.7932 8.4532 71.4555 5.94462 70.1046 4.92094C69.5527 4.49608 68.8957 4.24106 68.2094 4.18531C67.5232 4.12957 66.8357 4.27538 66.2262 4.60591C65.6168 4.93643 65.1103 5.4382 64.7653 6.05327C64.4202 6.66835 64.2507 7.37165 64.2762 8.08198C64.2503 8.77188 64.4058 9.45616 64.7261 10.0622C65.0464 10.6682 65.5196 11.1735 66.0955 11.5243C67.3048 12.3679 70.5512 12.3229 70.9543 11.018C71.4555 9.34189 70.2789 10.2756 69.8649 10.4556C69.5168 10.6029 69.1499 10.6977 68.7755 10.7368C66.3679 11.018 65.7796 8.82443 65.9539 8.4532Z" fill="#383838"/>
<path fill-rule="evenodd" clip-rule="evenodd" d="M49.6026 7.24975C49.6408 6.76928 49.8524 6.32115 50.1954 5.99407C50.5383 5.66699 50.9878 5.48482 51.4546 5.48362C52.3915 5.38237 53.481 6.22607 53.2958 7.24975H49.6026ZM49.4174 8.37468C49.6462 8.37468 53.884 8.37468 54.4723 8.37468C55.0606 8.37468 54.9626 8.00345 54.919 7.54223C54.8872 6.91762 54.6987 6.31226 54.3722 5.78544C54.0457 5.25862 53.5922 4.82841 53.0563 4.53696C52.5203 4.24551 51.9203 4.1028 51.3148 4.12282C50.7094 4.14284 50.1194 4.3249 49.6026 4.65117C49.0215 5.00567 48.5463 5.51871 48.2292 6.13393C47.9121 6.74914 47.7653 7.44272 47.8051 8.13844C47.7589 8.82522 47.9086 9.51093 48.2358 10.1107C48.5631 10.7106 49.0534 11.1982 49.6462 11.5132C51.1823 12.4919 54.2 12.0757 54.4723 10.962C54.4723 10.6358 54.6902 9.83708 54.2 10.0283C53.6078 10.374 52.9632 10.6136 52.2935 10.737C51.9365 10.7863 51.5736 10.7619 51.2258 10.6654C50.8779 10.5688 50.5521 10.402 50.2672 10.1746C49.875 9.84833 49.2431 8.86964 49.4174 8.37468Z" fill="#383838"/>
<path fill-rule="evenodd" clip-rule="evenodd" d="M73.8778 11.8946C74.1502 11.6134 74.1066 11.4784 74.1066 11.0622V9.93723C74.1066 8.45233 73.8343 5.98874 75.5011 5.61752C75.8606 5.52752 75.9477 5.8425 76.4053 5.75251C76.6751 5.50254 76.8778 5.18477 76.9936 4.83007C76.9936 4.12137 75.9042 3.98637 74.9128 4.44759C74.5968 4.59383 74.3354 5.10005 74.1066 5.14505C74.1066 4.72883 74.1938 4.54884 73.9214 4.17761C73.5722 4.21219 73.2342 4.32341 72.93 4.50384C72.4834 4.72883 72.3962 4.72883 72.4834 5.29129C72.5705 5.85375 72.4834 9.71225 72.4834 10.6347C72.527 12.0408 72.5269 11.9958 73.8778 11.8946Z" fill="#383838"/>
<path fill-rule="evenodd" clip-rule="evenodd" d="M20.764 11.8496V11.7596C20.8905 10.6171 20.9233 9.46555 20.8621 8.31732C20.8621 7.42863 21.08 5.98872 22.0277 5.70749C22.7903 5.42626 22.8339 6.16871 23.335 5.70749C24.5007 4.44757 22.932 3.94136 21.9842 4.35758C21.0364 4.7738 21.1671 5.10003 20.8948 5.19002C20.8729 5.00698 20.8729 4.82185 20.8948 4.63881C20.8948 4.40257 20.7967 4.40257 20.7096 4.26758C20.3602 4.26465 20.017 4.36201 19.7182 4.54882C19.2715 4.7288 19.1299 4.7738 19.2715 5.33626C19.3674 6.19869 19.3965 7.06763 19.3587 7.93484V10.4997C19.4567 11.8946 19.2715 11.9958 20.764 11.8496Z" fill="#383838"/>
<path fill-rule="evenodd" clip-rule="evenodd" d="M41.0833 13.3452C39.2849 13.5743 37.5165 14.0082 35.8105 14.6389C35.2767 14.8751 34.7211 15.0101 34.1873 15.2463C33.0979 15.6626 32.0738 16.0338 30.9953 16.4613C30.6358 16.5963 28.0648 17.3837 27.6181 17.4849C25.4393 18.0362 22.171 18.6886 20.0902 17.7099C19.0989 17.2037 19.0008 18.7786 21.2559 19.3411C22.5747 19.5796 23.928 19.5181 25.2214 19.1611C26.3108 18.9249 27.6181 18.5086 28.6531 18.1824C29.688 17.8562 30.9081 17.4849 32.0302 17.1587C32.3026 17.0575 32.5205 16.9675 32.8364 16.8775L34.5032 16.36C34.8192 16.27 35.0479 16.135 35.3203 16.0338L37.0416 15.6176C37.3575 15.5276 37.5863 15.4376 37.8586 15.3363C40.1395 14.8339 42.466 14.585 44.7982 14.5939C45.3756 14.5939 46.2362 14.7401 46.8245 14.8301C47.914 14.9651 47.6743 14.3689 46.9553 13.9864C45.0858 13.2468 43.0613 13.0257 41.0833 13.3452Z" fill="#FFD600"/>
</g>
<defs>
<clipPath id="clip0_113_6">
<rect width="77" height="19" fill="white" transform="translate(0 0.499878)"/>
</clipPath>
</defs>
</svg>
