<svg width="736" height="468" viewBox="0 0 736 468" fill="none" xmlns="http://www.w3.org/2000/svg">
<g opacity="0.06">
<path fill-rule="evenodd" clip-rule="evenodd" d="M334.222 164.407C331.537 165.511 329.244 167.212 323.046 172.696C317.325 177.759 315.999 178.575 309.413 181.081C301.724 184.006 299.364 185.45 298.239 187.92C297.42 189.718 297.297 200.121 298.076 201.777C300.444 206.815 311.589 208.274 331.003 206.087C339.243 205.158 342.734 204.894 350.543 204.609C363.808 204.124 365.917 201.576 364.469 187.781C363.997 183.279 357.689 175.118 354.162 174.445C353.366 174.293 352.307 174.051 351.81 173.908L350.905 173.648V172.033V170.417L349.639 169.231C344.349 164.277 338.776 162.533 334.222 164.407ZM342.242 166.217C345.406 167.43 348.648 170.232 348.257 171.417C347.51 173.679 350.4 176.152 353.765 176.133C355.102 176.125 361.618 183.531 362.45 186.003C363.937 190.426 360.799 192.418 351.749 192.795C342.704 193.172 338.237 193.488 331.486 194.228C323.252 195.13 317.582 195.505 313.815 195.399L310.859 195.315L310.86 200.298L310.86 205.28L309.835 205.164C304.48 204.558 301.156 203.337 299.973 201.542C299.391 200.66 299.287 189.951 299.847 188.613C300.627 186.75 302.585 185.612 309.752 182.857C316.782 180.153 319.105 178.721 324.731 173.618C333.58 165.592 336.924 164.179 342.242 166.217ZM336.635 169.468C333.382 170.664 323.122 179.273 324.948 179.273C330.435 179.273 344.392 174.614 344.392 172.782C344.392 170.879 339.028 168.587 336.635 169.468ZM339.688 178.787C325.665 181.722 305.524 187.816 304.074 189.562C302.068 191.98 314.04 192.638 329.919 190.982C340.457 189.883 342.925 189.699 349.578 189.515C360.855 189.203 361.208 188.716 354.961 182.092C353.104 180.123 352.848 179.939 351.508 179.601C350.712 179.401 349.282 178.865 348.331 178.41C346.191 177.389 346.413 177.379 339.688 178.787Z" fill="white"/>
<path fill-rule="evenodd" clip-rule="evenodd" d="M570.907 101.712C559.11 99.8535 547.266 106.451 542.5 117.537C541.497 119.869 541.516 119.791 539.949 127.821C538.683 134.311 538.509 135.292 538.477 136.136C538.231 142.632 542.028 148.255 548.247 150.604C549.163 150.95 588.6 158.805 592.377 159.393C598.25 160.309 603.48 157.375 605.491 152.036C605.907 150.931 608.171 139.463 608.226 138.175C608.471 132.54 604.818 127.56 599.314 126.028C597.236 125.45 596.114 124.187 592.061 117.866C585.397 107.475 579.656 103.09 570.907 101.712ZM573.373 104.451C577.046 105.409 580.697 107.602 583.896 110.774C586.192 113.051 586.894 113.995 591.667 121.227C594.567 125.621 596.194 127.349 597.946 127.897C598.291 128.005 598.939 128.207 599.386 128.347C608.576 131.22 607.998 144.918 598.589 147.222C596.212 147.804 598.263 148.131 573.105 143.157L551.268 138.84L550.493 138.494C542.705 135.008 540.514 126.997 544.813 117.719C549.55 107.496 561.66 101.483 572.161 104.139C572.417 104.204 572.963 104.344 573.373 104.451ZM569.278 105.71C560.1 104.664 550.862 109.841 546.777 118.32C542.817 126.541 544.509 133.561 551.179 136.586L551.912 136.919L573.321 141.156C598.787 146.195 596.921 145.936 599.466 144.782C606.162 141.745 605.131 131.454 597.988 130.035C595.219 129.484 593.424 127.618 588.61 120.286C582.007 110.227 577.215 106.614 569.278 105.71ZM568.427 111.296C569.691 112.868 565.452 117.992 561.131 120.116C557.806 121.75 553.332 122.577 552.384 121.733C550.825 120.343 554.329 114.958 558.317 112.616C561.499 110.748 567.371 109.981 568.427 111.296ZM574.462 115.023C578.822 116.97 582.254 123.584 581.685 128.945C581.104 134.413 578.493 136.16 572.211 135.283C564.952 134.27 557.766 132.399 555.978 131.056C553.192 128.964 553.472 125.229 556.451 124.752C563.025 123.7 567.435 121.164 570.42 116.72C571.646 114.894 572.948 114.347 574.462 115.023ZM592.776 131.229C593.056 131.381 593.679 131.843 594.159 132.255C595.18 133.132 595.525 133.336 596.4 133.576C600.558 134.719 600.228 140.737 595.982 141.187C595.189 141.271 589.621 140.21 588.815 139.821C585.932 138.432 585.233 134.675 587.409 132.271C588.749 130.79 591.119 130.33 592.776 131.229Z" fill="white"/>
<path fill-rule="evenodd" clip-rule="evenodd" d="M519.136 243.582C518.962 243.597 518.41 243.643 517.909 243.684C505.662 244.687 494.567 252.086 494.566 259.249C494.566 260.784 494.603 261.058 495.099 263.178C496.038 267.187 495.17 268.404 489.901 270.464C481.805 273.629 482.137 273.177 482.214 280.913L482.257 285.231L483.082 286.035C490.489 293.255 505.133 297.174 519.627 295.816C535.797 294.301 550.191 284.325 550.754 274.242C551.541 260.174 550.313 255.453 544.703 250.972C538.618 246.113 527.43 242.879 519.136 243.582ZM523.693 246.537C534.023 247.021 543.822 251.778 546.725 257.717C552.887 270.32 536.577 285.365 515.641 286.39C512.15 286.561 505.461 286.401 503.292 286.095C493.481 284.712 486.892 281.614 485.184 277.581C484.486 275.931 485.043 275.399 489.13 273.811C489.882 273.519 490.907 273.12 491.409 272.925C497.139 270.687 499.133 267.836 498.072 263.394C497.206 259.767 497.175 258.468 497.92 256.95C499.555 253.619 505.112 249.708 510.776 247.902C514.627 246.674 518.311 246.284 523.693 246.537ZM519.627 250.334C511.764 251.102 504.451 253.992 502.307 257.178C501.797 257.934 501.729 258.236 501.764 259.587L501.793 260.712L502.155 261.687C503.465 265.208 502.919 268.347 500.593 270.67C499.24 272.02 497.85 272.716 493.407 274.266C490.295 275.351 489.761 276.086 490.894 277.726C494.71 283.245 514.95 284.997 527.452 280.89C540.863 276.484 547.298 265.849 541.659 257.411C538.533 252.736 528.391 249.478 519.627 250.334ZM527.394 254.65C528.048 254.953 528.077 255.173 527.69 256.924C526.445 262.553 529.319 266.235 535.646 267.118C536.709 267.266 536.72 267.27 536.875 267.523C537.468 268.49 536.416 269.697 534.98 269.697C534.165 269.697 534.026 269.633 533.087 268.821C528.43 264.791 526.071 264.848 521.632 269.098C520.086 270.579 518.657 270.668 517.924 269.33C517.363 268.305 517.853 267.69 519.767 267.016C522.862 265.927 524.852 264.522 525.213 263.172C525.545 261.932 525.216 258.417 524.641 257.059C524.025 255.605 525.903 253.961 527.394 254.65Z" fill="white"/>
<path fill-rule="evenodd" clip-rule="evenodd" d="M50.0479 185.452C49.925 185.47 49.5564 185.519 49.2288 185.562C46.7676 185.884 44.1371 186.602 38.1709 188.579C33.277 190.2 33.1663 190.223 29.0119 190.445C12.4234 191.33 1.54288 197.928 0.144901 207.948C-0.0258442 209.172 -0.0548105 217.135 0.107074 218.357C0.89691 224.32 4.35806 228.932 10.247 231.869C18.1918 235.831 26.8025 234.893 33.4052 229.347C36.4631 226.778 38.7312 223.94 41.3054 219.46C44.7508 213.464 46.0243 212.211 51.1718 209.752C56.0915 207.402 57.9405 205.682 59.1283 202.351C59.5541 201.158 59.7391 195.389 59.4312 192.906C58.8417 188.154 54.63 184.808 50.0479 185.452ZM52.3708 188.729C55.1462 189.384 56.9537 192.47 56.0371 194.987C55.3121 196.978 53.8389 198.423 51.2393 199.695C46.3547 202.084 45.6989 202.454 44.3558 203.577C42.5417 205.093 40.7146 207.561 38.3579 211.678C36.5389 214.855 35.7289 215.972 33.5241 218.341C30.2824 221.824 26.722 223.825 22.6495 224.452C15.1062 225.613 6.59465 221.202 4.1194 214.849C-0.236576 203.669 10.3277 194.647 28.9374 193.654C33.7113 193.399 34.0342 193.336 38.8783 191.713C46.9492 189.01 50.3655 188.255 52.3708 188.729ZM49.8989 191.971C47.6986 192.317 45.543 192.921 40.2931 194.662C35.0454 196.403 34.2974 196.57 30.7462 196.787C24.8911 197.146 23.4095 197.333 20.3741 198.095C9.37981 200.855 4.4597 206.59 7.08574 213.583C9.25814 219.368 17.7748 222.885 24.4077 220.737C26.7003 219.995 28.6264 218.704 30.8808 216.399C33.1147 214.115 33.6943 213.306 36.1596 209.028C39.8009 202.71 42.2266 200.418 48.3548 197.506C52.6523 195.465 53.8634 194.035 52.5833 192.515C52.0368 191.866 51.3945 191.736 49.8989 191.971ZM22.0123 203.767C30.3877 205.522 28.5568 214.193 19.8156 214.17C10.5182 214.145 9.55622 204.718 18.7359 203.589C19.4008 203.507 21.2526 203.608 22.0123 203.767Z" fill="white"/>
<path fill-rule="evenodd" clip-rule="evenodd" d="M355.048 327.079C354.925 327.097 354.556 327.146 354.229 327.189C351.768 327.511 349.137 328.229 343.171 330.206C338.277 331.827 338.166 331.85 334.012 332.072C317.423 332.957 306.543 339.555 305.145 349.575C304.974 350.799 304.945 358.762 305.107 359.984C305.897 365.947 309.358 370.559 315.247 373.496C323.192 377.458 331.803 376.52 338.405 370.974C341.463 368.405 343.731 365.566 346.305 361.087C349.751 355.091 351.024 353.838 356.172 351.379C361.092 349.029 362.94 347.309 364.128 343.978C364.554 342.784 364.739 337.015 364.431 334.533C363.842 329.781 359.63 326.435 355.048 327.079ZM357.371 330.356C360.146 331.011 361.954 334.097 361.037 336.614C360.312 338.605 358.839 340.05 356.239 341.322C351.355 343.711 350.699 344.081 349.356 345.204C347.542 346.72 345.715 349.188 343.358 353.304C341.539 356.482 340.729 357.599 338.524 359.968C335.282 363.451 331.722 365.452 327.649 366.079C320.106 367.24 311.595 362.829 309.119 356.476C304.763 345.296 315.328 336.274 333.937 335.28C338.711 335.026 339.034 334.963 343.878 333.34C351.949 330.637 355.366 329.882 357.371 330.356ZM354.899 333.598C352.699 333.944 350.543 334.548 345.293 336.289C340.045 338.03 339.297 338.197 335.746 338.414C329.891 338.773 328.41 338.96 325.374 339.722C314.38 342.482 309.46 348.217 312.086 355.21C314.258 360.995 322.775 364.512 329.408 362.364C331.7 361.622 333.626 360.331 335.881 358.026C338.115 355.742 338.694 354.933 341.16 350.655C344.801 344.337 347.227 342.045 353.355 339.133C357.652 337.092 358.863 335.662 357.583 334.142C357.037 333.493 356.395 333.363 354.899 333.598ZM327.012 345.394C335.388 347.149 333.557 355.82 324.816 355.797C315.518 355.772 314.556 346.345 323.736 345.216C324.401 345.134 326.253 345.235 327.012 345.394Z" fill="white"/>
<path fill-rule="evenodd" clip-rule="evenodd" d="M328.7 0.105902C324.919 0.448806 321.661 1.54005 318.136 3.64393C308.44 9.43105 302.591 16.6542 300.314 25.6541C299.057 30.6229 299.839 32.8715 303.729 35.4711C306.33 37.2094 309.747 38.1331 312.873 37.9427C315.808 37.764 320.233 37.3513 322.126 37.0797C329.281 36.0529 334.517 37.4811 339.668 41.8653C344.906 46.323 353.01 43.4763 354.618 36.6138C355.022 34.8882 355.4 30.6723 355.275 29.2914C355.219 28.681 355.11 27.4181 355.031 26.485C354.25 17.2096 353.385 13.7314 350.876 9.78316C346.715 3.23531 337.678 -0.708355 328.7 0.105902ZM332.909 2.10509C339.376 3.10125 346.093 6.77133 348.824 10.8009C350.901 13.8657 351.511 16.3173 352.875 27.0736C353.107 28.9017 353.314 30.522 353.335 30.6744C353.376 30.9665 352.853 33.2439 352.496 34.328C350.884 39.2215 345.339 39.9054 339.482 35.9331C337.477 34.5732 336.963 34.2546 336.029 33.7931C332.213 31.9082 328.133 31.7525 323.239 33.3049C318.335 34.8603 314.041 34.786 308.769 33.0545C302 30.8317 300.463 28.5353 302.327 23.4265C304.498 17.4753 308.93 12.1846 316.421 6.60196C320.087 3.86995 323.594 2.43449 327.726 1.97435C328.728 1.8628 331.847 1.94146 332.909 2.10509ZM327.452 3.33108C322.258 3.9932 318.11 6.27443 312.105 11.7715C306.706 16.714 302.965 22.8327 302.961 26.7274L302.96 27.7661L303.212 28.2854C303.816 29.5288 304.959 30.3117 307.596 31.2881C313.28 33.3932 317.866 33.647 322.752 32.127C328.96 30.1955 334.071 30.7411 338.648 33.8242C340.502 35.0731 340.835 35.2807 341.57 35.6453C342.363 36.039 343.303 36.445 344.144 36.7568C347.472 37.9912 350.763 36.6404 351.625 33.6855C351.769 33.194 351.849 28.7449 351.724 28.1815C351.707 28.1054 351.55 26.7966 351.376 25.2732C350.308 15.9603 349.161 12.658 345.855 9.37725C341.775 5.3284 333.391 2.57395 327.452 3.33108ZM331.078 9.27428C335.129 10.1343 336.657 13.8924 334.021 16.5137C329.397 21.1122 319.482 20.6854 319.482 15.8877C319.482 11.9644 326.065 8.21018 331.078 9.27428ZM327.169 12.1138C325.924 12.3092 324.893 12.714 324.429 13.1902C324.155 13.4712 322.997 15.1199 323.043 15.1638C323.055 15.1754 323.618 15.4696 324.294 15.8175L325.523 16.45L326.485 16.2325C329.586 15.532 330.389 15.1426 330.966 14.06L331.131 13.7505L330.974 13.429C330.363 12.1766 329.241 11.7887 327.169 12.1138ZM300.355 34.1198C300.802 36.5037 302.124 38.8469 303.853 40.3196C307.122 43.1048 310.517 43.4524 320.386 42.0124L323.065 41.6215L325.013 41.6184C328.676 41.6123 330.908 42.2585 334.091 44.247C336.942 46.0271 339.077 47.145 340.291 47.4926C343.334 48.364 346.74 47.4384 349.269 45.0522C350.147 44.2247 349.941 44.1351 348.454 44.6976C346.189 45.555 344.306 45.5923 342.196 44.8215C340.979 44.3769 340.5 44.0822 337.103 41.6857C334.647 39.9533 334.304 39.7302 333.454 39.3122C331.329 38.2667 329.688 38.0152 326.787 38.2903C326.194 38.3465 324.394 38.4869 322.787 38.6022C321.18 38.7176 318.941 38.8885 317.812 38.982C308.193 39.7795 304.369 38.6988 300.548 34.103L300.294 33.7968L300.355 34.1198Z" fill="white"/>
<path fill-rule="evenodd" clip-rule="evenodd" d="M115.587 363.907C115.296 363.749 114.286 363.181 113.343 362.644C104.24 357.469 96.1349 356.254 91.8358 359.422C90.805 360.181 82.719 371.496 81.9678 373.229C79.1531 379.727 83.7661 390.014 93.6466 399.274C97.1014 402.512 98.7384 403.716 116.361 415.982L133.329 427.793L134.996 428.391C141.318 430.657 142.466 430.082 148.321 421.718C153.28 414.633 153.215 414.772 152.792 412.244C152.1 408.106 150.385 406.392 139.892 399.348C134.944 396.027 134.064 394.641 135.379 392.242C138.063 387.344 134.45 379.519 125.763 371.417C124.386 370.133 116.963 364.655 115.587 363.907ZM121.8 371.269C131.453 379.047 135.701 386.674 133.034 391.438C130.956 395.151 132.272 396.995 141.57 403.406C147.078 407.203 147.27 407.349 148.132 408.405C153.584 415.075 148.757 419.179 140.709 414.716C138.808 413.662 110.181 393.624 107.187 391.251C94.1622 380.932 88.0037 369.05 92.4139 362.75C96.284 357.221 108.91 360.881 121.8 371.269ZM112.259 367.71C90.3255 354.642 85.9045 369.58 106.424 387.426C109.324 389.948 142.224 412.877 143.919 413.557C148.391 415.352 149.473 413.261 145.914 409.703C145.034 408.823 143.984 408.057 139.683 405.158C129.666 398.406 127.589 394.776 130.959 389.907C133.799 385.805 124.9 375.242 112.259 367.71ZM115.343 374.547C115.412 374.936 115.336 375.289 115.117 375.602C113.41 378.04 114.451 381.108 117.78 383.451C119.261 384.494 119.32 385.989 117.889 386.241C116.915 386.413 113.859 383.921 109.724 379.583C106.086 375.767 105.672 375.385 102.903 373.272C100.207 371.216 100.024 370.946 100.683 370.004C101.253 369.191 101.591 369.285 104.279 371.003C108.38 373.626 110.228 374.199 112.959 373.695C114.659 373.382 115.17 373.564 115.343 374.547ZM89.6325 373.732C91.7771 379.182 96.0445 384.78 102.515 390.632C105.38 393.223 139.336 416.986 141.426 417.863C142.987 418.517 144.676 418.955 146.065 419.063C146.589 419.104 147.046 419.158 147.081 419.183C147.306 419.34 142.447 425.892 141.84 426.25C140.076 427.29 137.021 426.833 133.696 425.033C131.987 424.107 102.249 403.286 99.6171 401.172C89.6502 393.166 83.6288 384.064 83.8438 377.33C83.91 375.253 84.3045 374.335 86.449 371.272L88.3124 368.609L88.6731 370.41C88.8715 371.4 89.3032 372.895 89.6325 373.732Z" fill="white"/>
<path fill-rule="evenodd" clip-rule="evenodd" d="M486.587 398.907C486.296 398.749 485.286 398.181 484.343 397.644C475.24 392.469 467.135 391.254 462.836 394.422C461.805 395.181 453.719 406.496 452.968 408.229C450.153 414.727 454.766 425.014 464.647 434.274C468.101 437.512 469.738 438.716 487.361 450.982L504.329 462.793L505.996 463.391C512.318 465.657 513.466 465.082 519.321 456.718C524.28 449.633 524.215 449.772 523.792 447.244C523.1 443.106 521.385 441.392 510.892 434.348C505.944 431.027 505.064 429.641 506.379 427.242C509.063 422.344 505.45 414.519 496.763 406.417C495.386 405.133 487.963 399.655 486.587 398.907ZM492.8 406.269C502.453 414.047 506.701 421.674 504.034 426.438C501.956 430.151 503.272 431.995 512.57 438.406C518.078 442.203 518.27 442.349 519.132 443.405C524.584 450.075 519.757 454.179 511.709 449.716C509.808 448.662 481.181 428.624 478.187 426.251C465.162 415.932 459.004 404.05 463.414 397.75C467.284 392.221 479.91 395.881 492.8 406.269ZM483.259 402.71C461.326 389.642 456.905 404.58 477.424 422.426C480.324 424.948 513.224 447.877 514.919 448.557C519.391 450.352 520.473 448.261 516.914 444.703C516.034 443.823 514.984 443.057 510.683 440.158C500.666 433.406 498.589 429.776 501.959 424.907C504.799 420.805 495.9 410.242 483.259 402.71ZM486.343 409.547C486.412 409.936 486.336 410.289 486.117 410.602C484.41 413.04 485.451 416.108 488.78 418.451C490.261 419.494 490.32 420.989 488.889 421.241C487.915 421.413 484.859 418.921 480.724 414.583C477.086 410.767 476.672 410.385 473.903 408.272C471.207 406.216 471.024 405.946 471.683 405.004C472.253 404.191 472.591 404.285 475.279 406.003C479.38 408.626 481.228 409.199 483.959 408.695C485.659 408.382 486.17 408.564 486.343 409.547ZM460.632 408.732C462.777 414.182 467.045 419.78 473.515 425.632C476.38 428.223 510.336 451.986 512.426 452.863C513.987 453.517 515.676 453.955 517.065 454.063C517.589 454.104 518.046 454.158 518.081 454.183C518.306 454.34 513.447 460.892 512.84 461.25C511.076 462.29 508.021 461.833 504.696 460.033C502.987 459.107 473.249 438.286 470.617 436.172C460.65 428.166 454.629 419.064 454.844 412.33C454.91 410.253 455.305 409.335 457.449 406.272L459.312 403.609L459.673 405.41C459.872 406.4 460.303 407.895 460.632 408.732Z" fill="white"/>
<path fill-rule="evenodd" clip-rule="evenodd" d="M170.639 251.536C168.325 253.289 166.543 255.519 161.952 262.405C157.714 268.761 156.64 269.889 150.912 273.994C144.226 278.786 142.313 280.785 141.857 283.46C141.524 285.408 144.062 295.497 145.238 296.899C148.815 301.165 159.963 299.729 178.174 292.655C185.903 289.653 189.211 288.506 196.688 286.235C209.389 282.378 210.777 279.376 205.854 266.408C204.247 262.176 196.064 255.897 192.482 256.147C191.673 256.204 190.589 256.24 190.071 256.229L189.13 256.209L188.717 254.647L188.304 253.085L186.777 252.262C180.397 248.824 174.564 248.561 170.639 251.536ZM178.856 251.238C182.224 251.602 186.075 253.483 185.999 254.728C185.855 257.105 189.281 258.759 192.529 257.881C193.821 257.532 202.012 263.027 203.447 265.205C206.015 269.101 203.49 271.829 194.837 274.505C186.188 277.18 181.95 278.627 175.611 281.066C167.881 284.041 162.496 285.853 158.826 286.712L155.947 287.386L157.22 292.203L158.493 297.021L157.472 297.17C152.14 297.952 148.615 297.62 147.012 296.187C146.224 295.483 143.388 285.156 143.588 283.719C143.866 281.719 145.469 280.119 151.694 275.624C157.8 271.215 159.681 269.236 163.816 262.866C170.322 252.846 173.194 250.625 178.856 251.238ZM174.265 255.812C171.426 257.8 163.705 268.744 165.471 268.277C170.775 266.876 183.079 258.806 182.611 257.036C182.125 255.196 176.354 254.35 174.265 255.812ZM179.597 264.042C166.789 270.462 148.873 281.498 147.918 283.557C146.595 286.408 158.339 283.985 173.268 278.328C183.175 274.574 185.515 273.766 191.9 271.888C202.723 268.706 202.94 268.145 195.208 263.337C192.91 261.907 192.615 261.794 191.233 261.81C190.413 261.82 188.893 261.667 187.857 261.471C185.528 261.03 185.74 260.964 179.597 264.042Z" fill="white"/>
<path fill-rule="evenodd" clip-rule="evenodd" d="M686.587 59.9072C686.296 59.7492 685.286 59.1811 684.343 58.6445C675.24 53.4686 667.135 52.2541 662.836 55.4219C661.805 56.1813 653.719 67.4958 652.968 69.2295C650.153 75.7267 654.766 86.0139 664.647 95.2737C668.101 98.5116 669.738 99.7157 687.361 111.982L704.329 123.793L705.996 124.391C712.318 126.657 713.466 126.082 719.321 117.718C724.28 110.633 724.215 110.772 723.792 108.244C723.1 104.106 721.385 102.392 710.892 95.3484C705.944 92.0267 705.064 90.6415 706.379 88.2417C709.063 83.3442 705.45 75.5194 696.763 67.417C695.386 66.1328 687.963 60.6547 686.587 59.9072ZM692.8 67.2687C702.453 75.0471 706.701 82.6736 704.034 87.4383C701.956 91.1509 703.272 92.9949 712.57 99.4056C718.078 103.203 718.27 103.349 719.132 104.405C724.584 111.075 719.757 115.179 711.709 110.716C709.808 109.662 681.181 89.6239 678.187 87.2514C665.162 76.9317 659.004 65.0505 663.414 58.7501C667.284 53.2212 679.91 56.8811 692.8 67.2687ZM683.259 63.71C661.326 50.6418 656.905 65.5798 677.424 83.4256C680.324 85.9481 713.224 108.877 714.919 109.557C719.391 111.352 720.473 109.261 716.914 105.703C716.034 104.823 714.984 104.057 710.683 101.158C700.666 94.4058 698.589 90.7756 701.959 85.9073C704.799 81.8049 695.9 71.2418 683.259 63.71ZM686.343 70.5474C686.412 70.936 686.336 71.2888 686.117 71.602C684.41 74.0403 685.451 77.1077 688.78 79.4511C690.261 80.4935 690.32 81.9886 688.889 82.2408C687.915 82.4126 684.859 79.9213 680.724 75.5833C677.086 71.7674 676.672 71.3846 673.903 69.272C671.207 67.2157 671.024 66.9458 671.683 66.0045C672.253 65.1906 672.591 65.2845 675.279 67.0033C679.38 69.6262 681.228 70.1992 683.959 69.6955C685.659 69.3819 686.17 69.5643 686.343 70.5474ZM660.632 69.732C662.777 75.1821 667.045 80.7803 673.515 86.632C676.38 89.2229 710.336 112.986 712.426 113.863C713.987 114.517 715.676 114.955 717.065 115.063C717.589 115.104 718.046 115.158 718.081 115.183C718.306 115.34 713.447 121.892 712.84 122.25C711.076 123.29 708.021 122.833 704.696 121.033C702.987 120.107 673.249 99.2861 670.617 97.1719C660.65 89.1659 654.629 80.0643 654.844 73.3301C654.91 71.2525 655.305 70.3352 657.449 67.2716L659.312 64.6095L659.673 66.41C659.872 67.4003 660.303 68.8953 660.632 69.732Z" fill="white"/>
<path fill-rule="evenodd" clip-rule="evenodd" d="M202.587 115.907C202.296 115.749 201.286 115.181 200.343 114.644C191.24 109.469 183.135 108.254 178.836 111.422C177.805 112.181 169.719 123.496 168.968 125.229C166.153 131.727 170.766 142.014 180.647 151.274C184.101 154.512 185.738 155.716 203.361 167.982L220.329 179.793L221.996 180.391C228.318 182.657 229.466 182.082 235.321 173.718C240.28 166.633 240.215 166.772 239.792 164.244C239.1 160.106 237.385 158.392 226.892 151.348C221.944 148.027 221.064 146.641 222.379 144.242C225.063 139.344 221.45 131.519 212.763 123.417C211.386 122.133 203.963 116.655 202.587 115.907ZM208.8 123.269C218.453 131.047 222.701 138.674 220.034 143.438C217.956 147.151 219.272 148.995 228.57 155.406C234.078 159.203 234.27 159.349 235.132 160.405C240.584 167.075 235.757 171.179 227.709 166.716C225.808 165.662 197.181 145.624 194.187 143.251C181.162 132.932 175.004 121.05 179.414 114.75C183.284 109.221 195.91 112.881 208.8 123.269ZM199.259 119.71C177.326 106.642 172.905 121.58 193.424 139.426C196.324 141.948 229.224 164.877 230.919 165.557C235.391 167.352 236.473 165.261 232.914 161.703C232.034 160.823 230.984 160.057 226.683 157.158C216.666 150.406 214.589 146.776 217.959 141.907C220.799 137.805 211.9 127.242 199.259 119.71ZM202.343 126.547C202.412 126.936 202.336 127.289 202.117 127.602C200.41 130.04 201.451 133.108 204.78 135.451C206.261 136.494 206.32 137.989 204.889 138.241C203.915 138.413 200.859 135.921 196.724 131.583C193.086 127.767 192.672 127.385 189.903 125.272C187.207 123.216 187.024 122.946 187.683 122.004C188.253 121.191 188.591 121.285 191.279 123.003C195.38 125.626 197.228 126.199 199.959 125.695C201.659 125.382 202.17 125.564 202.343 126.547ZM176.632 125.732C178.777 131.182 183.045 136.78 189.515 142.632C192.38 145.223 226.336 168.986 228.426 169.863C229.987 170.517 231.676 170.955 233.065 171.063C233.589 171.104 234.046 171.158 234.081 171.183C234.306 171.34 229.447 177.892 228.84 178.25C227.076 179.29 224.021 178.833 220.696 177.033C218.987 176.107 189.249 155.286 186.617 153.172C176.65 145.166 170.629 136.064 170.844 129.33C170.91 127.253 171.305 126.335 173.449 123.272L175.312 120.609L175.673 122.41C175.872 123.4 176.303 124.895 176.632 125.732Z" fill="white"/>
</g>
</svg>
