<svg width="102" height="94" viewBox="0 0 102 94" fill="none" xmlns="http://www.w3.org/2000/svg">
<path opacity="0.08" d="M36.3944 44.5263H9.59902C10.4445 38.4032 12.455 32.5391 15.5021 27.3086C18.5493 22.0782 22.566 17.5964 27.2958 14.1495L35.439 8.21263L30.4348 0L22.2915 5.93684C15.437 10.9044 9.81605 17.6352 5.92742 25.532C2.03879 33.4288 0.00276182 42.2474 0 51.2053V84.1053C0 86.7295 0.958598 89.2463 2.66492 91.1019C4.37123 92.9575 6.6855 94 9.09859 94H36.3944C38.8075 94 41.1217 92.9575 42.828 91.1019C44.5344 89.2463 45.493 86.7295 45.493 84.1053V54.4211C45.493 51.7968 44.5344 49.28 42.828 47.4244C41.1217 45.5688 38.8075 44.5263 36.3944 44.5263ZM92.9014 44.5263H66.1061C66.9516 38.4032 68.9621 32.5391 72.0092 27.3086C75.0563 22.0782 79.073 17.5964 83.8028 14.1495L91.9461 8.21263L86.9873 0L78.7986 5.93684C71.9441 10.9044 66.3231 17.6352 62.4345 25.532C58.5458 33.4288 56.5098 42.2474 56.507 51.2053V84.1053C56.507 86.7295 57.4656 89.2463 59.172 91.1019C60.8783 92.9575 63.1925 94 65.6056 94H92.9014C95.3145 94 97.6288 92.9575 99.3351 91.1019C101.041 89.2463 102 86.7295 102 84.1053V54.4211C102 51.7968 101.041 49.28 99.3351 47.4244C97.6288 45.5688 95.3145 44.5263 92.9014 44.5263Z" fill="#385836"/>
</svg>
