<svg width="174" height="176" viewBox="0 0 174 176" fill="none" xmlns="http://www.w3.org/2000/svg">
<path d="M160.272 96.4829C160.362 95.7821 160.552 95.1584 160.844 94.6119C161.146 94.0784 161.522 93.6477 161.973 93.32C162.433 93.0053 162.941 92.825 163.496 92.7791L164.299 93.7575C163.961 93.7494 163.603 93.8554 163.225 94.0756C162.846 94.2957 162.513 94.6209 162.224 95.0511C161.946 95.4942 161.767 96.0259 161.687 96.6463C161.62 97.1747 161.645 97.6625 161.763 98.1096C161.892 98.5582 162.102 98.9294 162.391 99.2233C162.681 99.5171 163.038 99.6912 163.463 99.7456C163.934 99.8058 164.356 99.7021 164.729 99.4345C165.102 99.1669 165.411 98.757 165.657 98.2046C165.901 97.6637 166.073 97.0026 166.173 96.2214L166.248 95.6355L167.541 95.8008L167.466 96.3867C167.33 97.4436 167.389 98.3093 167.641 98.9837C167.905 99.6596 168.376 100.041 169.054 100.128C169.49 100.183 169.879 100.111 170.22 99.9089C170.571 99.7203 170.852 99.4409 171.063 99.0709C171.284 98.7138 171.422 98.317 171.478 97.8804C171.572 97.1452 171.486 96.4978 171.219 95.9382C170.962 95.3916 170.628 94.987 170.218 94.7244L171.399 93.8421C171.772 94.1232 172.075 94.489 172.31 94.9393C172.544 95.3896 172.703 95.8827 172.786 96.4188C172.881 96.9563 172.894 97.4951 172.825 98.035C172.723 98.8277 172.483 99.5152 172.105 100.097C171.726 100.691 171.261 101.134 170.71 101.425C170.158 101.717 169.561 101.821 168.918 101.739C168.458 101.68 168.056 101.535 167.712 101.305C167.38 101.075 167.116 100.767 166.92 100.38C166.724 99.9932 166.595 99.5389 166.534 99.0172C166.373 99.5454 166.117 99.9915 165.767 100.355C165.417 100.719 165.009 100.982 164.545 101.145C164.08 101.307 163.59 101.356 163.073 101.29C162.36 101.198 161.778 100.914 161.325 100.436C160.884 99.9589 160.574 99.3705 160.395 98.6703C160.215 97.9817 160.174 97.2526 160.272 96.4829Z" fill="white"/>
<path d="M158.459 107.47L167.031 110.431L166.515 111.925L159.798 113.171L164.308 118.313L163.803 119.774L155.231 116.813L155.707 115.434L162.194 117.675L158.211 113.137L158.528 112.217L164.469 111.09L157.983 108.849L158.459 107.47Z" fill="white"/>
<path d="M154.519 118.328L162.555 122.493L161.851 123.85L155.635 120.628L159.532 128.362L158.892 129.596L150.841 125.423L151.544 124.065L157.637 127.223L153.847 119.623L154.519 118.328Z" fill="white"/>
<path d="M149.659 127.421L157.07 132.648L156.189 133.897L153.122 131.734L150.399 135.596L153.465 137.759L152.584 139.008L145.173 133.781L146.054 132.532L149.291 134.815L152.015 130.953L148.778 128.67L149.659 127.421Z" fill="white"/>
<path d="M137.718 141.709C138.232 141.225 138.775 140.864 139.347 140.626C139.919 140.405 140.483 140.311 141.039 140.344C141.595 140.393 142.102 140.575 142.56 140.892L142.56 142.157C142.304 141.937 141.96 141.792 141.528 141.722C141.095 141.652 140.631 141.692 140.135 141.841C139.639 142.007 139.163 142.305 138.708 142.734C138.321 143.099 138.031 143.492 137.838 143.913C137.654 144.342 137.58 144.761 137.617 145.172C137.654 145.583 137.82 145.944 138.114 146.256C138.44 146.601 138.832 146.789 139.29 146.818C139.748 146.848 140.247 146.728 140.787 146.456C141.319 146.193 141.872 145.792 142.445 145.251L142.875 144.846L143.769 145.793L143.339 146.199C142.564 146.93 142.06 147.636 141.827 148.318C141.602 149.008 141.724 149.601 142.193 150.098C142.495 150.418 142.842 150.609 143.233 150.669C143.624 150.746 144.019 150.708 144.417 150.556C144.814 150.42 145.173 150.201 145.493 149.899C146.032 149.39 146.376 148.835 146.524 148.233C146.673 147.648 146.671 147.123 146.521 146.66L147.994 146.727C148.104 147.181 148.106 147.657 148.002 148.153C147.897 148.65 147.707 149.132 147.431 149.599C147.163 150.075 146.831 150.499 146.435 150.873C145.854 151.421 145.232 151.801 144.571 152.011C143.901 152.229 143.26 152.276 142.649 152.152C142.039 152.027 141.511 151.729 141.065 151.257C140.748 150.921 140.529 150.554 140.409 150.157C140.298 149.769 140.289 149.363 140.383 148.94C140.478 148.516 140.666 148.083 140.95 147.641C140.49 147.947 140.009 148.13 139.508 148.189C139.006 148.248 138.525 148.193 138.062 148.024C137.6 147.855 137.19 147.581 136.833 147.202C136.34 146.679 136.07 146.09 136.024 145.433C135.986 144.785 136.119 144.133 136.425 143.478C136.722 142.832 137.153 142.242 137.718 141.709Z" fill="white"/>
<path d="M129.299 149.084L134.055 156.806L132.708 157.635L126.723 154.343L126.954 161.179L125.637 161.99L120.882 154.268L122.124 153.503L125.723 159.346L125.516 153.311L126.345 152.801L131.655 155.693L128.057 149.85L129.299 149.084Z" fill="white"/>
<path d="M119.397 154.987L122.985 163.297L121.582 163.903L118.806 157.475L116.931 165.93L115.655 166.481L112.06 158.155L113.464 157.549L116.184 163.849L118.058 155.566L119.397 154.987Z" fill="white"/>
<path d="M109.869 158.968L112.273 167.711L110.799 168.117L109.804 164.499L105.248 165.752L106.243 169.37L104.769 169.776L102.364 161.032L103.838 160.626L104.888 164.445L109.445 163.192L108.394 159.373L109.869 158.968Z" fill="white"/>
<path d="M91.6743 162.414C92.379 162.362 93.0281 162.425 93.6218 162.602C94.2048 162.792 94.7017 163.074 95.1126 163.451C95.5127 163.839 95.7905 164.301 95.9459 164.835L95.1469 165.817C95.0876 165.485 94.9125 165.155 94.6214 164.828C94.3302 164.501 93.9452 164.239 93.4662 164.042C92.9765 163.857 92.4197 163.788 91.7959 163.834C91.2646 163.873 90.7915 163.994 90.3768 164.199C89.963 164.415 89.6409 164.694 89.4105 165.036C89.1801 165.379 89.0806 165.763 89.1119 166.191C89.1467 166.664 89.3323 167.057 89.6688 167.369C90.0052 167.681 90.4686 167.903 91.0589 168.033C91.6376 168.165 92.3198 168.202 93.1053 168.145L93.6944 168.101L93.7897 169.401L93.2006 169.444C92.1379 169.522 91.3011 169.752 90.6904 170.133C90.0805 170.527 89.8005 171.064 89.8506 171.745C89.8828 172.184 90.0316 172.551 90.2971 172.845C90.5518 173.151 90.8815 173.371 91.2861 173.504C91.6801 173.649 92.0965 173.706 92.5355 173.673C93.2747 173.619 93.892 173.406 94.3872 173.032C94.8718 172.672 95.2019 172.264 95.3776 171.81L96.4775 172.792C96.2761 173.213 95.9781 173.583 95.5835 173.903C95.1888 174.222 94.7371 174.476 94.2283 174.664C93.7203 174.864 93.1949 174.984 92.652 175.024C91.8549 175.082 91.1335 174.984 90.4876 174.73C89.8303 174.476 89.3039 174.108 88.9085 173.626C88.5131 173.144 88.2917 172.58 88.2442 171.933C88.2103 171.471 88.2722 171.048 88.4299 170.665C88.5884 170.294 88.8379 169.973 89.1782 169.704C89.5185 169.436 89.9381 169.219 90.437 169.055C89.8873 169.002 89.3993 168.841 88.973 168.57C88.5466 168.299 88.2076 167.953 87.9559 167.53C87.7042 167.107 87.5593 166.636 87.5212 166.116C87.4686 165.4 87.6316 164.772 88.0102 164.233C88.3896 163.706 88.9045 163.285 89.555 162.97C90.1939 162.656 90.9004 162.471 91.6743 162.414Z" fill="white"/>
<path d="M80.1805 162.759L78.9609 171.745L77.3943 171.533L74.8534 165.192L70.6972 170.624L69.165 170.416L70.3846 161.43L71.8307 161.626L70.9079 168.426L74.5746 163.629L75.5387 163.76L77.8115 169.363L78.7344 162.563L80.1805 162.759Z" fill="white"/>
<path d="M68.8018 161.025L66.3017 169.724L64.8323 169.302L66.7661 162.573L59.9516 167.918L58.6158 167.534L61.1207 158.818L62.5902 159.24L60.6947 165.835L67.3992 160.622L68.8018 161.025Z" fill="white"/>
<path d="M58.9463 158.044L55.2578 166.329L53.8611 165.707L55.3873 162.279L51.0701 160.358L49.5439 163.786L48.1471 163.164L51.8356 154.879L53.2323 155.501L51.6213 159.12L55.9385 161.041L57.5495 157.423L58.9463 158.044Z" fill="white"/>
<path d="M42.7192 149.155C43.295 149.564 43.7552 150.026 44.0997 150.541C44.4281 151.059 44.6306 151.593 44.7073 152.145C44.7678 152.7 44.6875 153.232 44.4665 153.743L43.225 153.99C43.3913 153.697 43.4665 153.331 43.4507 152.893C43.4349 152.456 43.3053 152.008 43.0619 151.551C42.8024 151.097 42.4177 150.688 41.9079 150.326C41.4736 150.017 41.0315 149.81 40.5816 149.703C40.1249 149.606 39.6988 149.616 39.3032 149.732C38.9076 149.849 38.5857 150.082 38.3374 150.431C38.0622 150.818 37.9548 151.239 38.0151 151.694C38.0754 152.149 38.2912 152.615 38.6625 153.092C39.0244 153.563 39.5264 154.026 40.1683 154.482L40.6498 154.824L39.8948 155.886L39.4134 155.544C38.5448 154.927 37.7537 154.571 37.0398 154.475C36.3193 154.389 35.7611 154.625 35.3651 155.182C35.1101 155.541 34.9911 155.918 35.0082 156.314C35.0091 156.712 35.1231 157.092 35.3501 157.452C35.561 157.815 35.8458 158.124 36.2045 158.379C36.8087 158.808 37.4205 159.037 38.0399 159.065C38.6432 159.096 39.1573 158.993 39.5822 158.755L39.8037 160.212C39.38 160.409 38.9143 160.504 38.4067 160.498C37.8991 160.493 37.3893 160.401 36.8772 160.221C36.3584 160.052 35.8772 159.809 35.4335 159.494C34.7821 159.031 34.2888 158.495 33.9535 157.887C33.6087 157.273 33.4377 156.654 33.4403 156.031C33.4429 155.407 33.6321 154.831 34.0079 154.303C34.2763 153.925 34.5935 153.639 34.9593 153.444C35.3183 153.259 35.7147 153.171 36.1482 153.181C36.5818 153.191 37.0432 153.291 37.5324 153.483C37.1424 153.092 36.8694 152.656 36.7135 152.176C36.5575 151.696 36.5174 151.212 36.593 150.726C36.6687 150.24 36.8575 149.784 37.1595 149.36C37.5755 148.774 38.1011 148.395 38.7363 148.221C39.3647 148.057 40.0298 148.06 40.7317 148.232C41.4242 148.398 42.0867 148.705 42.7192 149.155Z" fill="white"/>
<path d="M33.8528 142.344L27.2109 148.519L26.1344 147.361L28.1909 140.847L21.5324 142.412L20.4796 141.28L27.1214 135.105L28.1151 136.173L23.0892 140.846L28.9666 139.462L29.6291 140.174L27.8331 145.948L32.8591 141.275L33.8528 142.344Z" fill="white"/>
<path d="M26.1168 133.765L18.6627 138.9L17.7954 137.641L23.5612 133.669L14.9029 133.474L14.1144 132.329L21.5827 127.184L22.4501 128.443L16.7988 132.337L25.2888 132.563L26.1168 133.765Z" fill="white"/>
<path d="M20.3712 125.238L12.2734 129.321L11.585 127.956L14.9358 126.266L12.808 122.047L9.45722 123.737L8.76881 122.372L16.8666 118.288L17.555 119.653L14.018 121.437L16.1458 125.656L19.6828 123.873L20.3712 125.238Z" fill="white"/>
<path d="M13.433 108.144C13.6203 108.826 13.6847 109.475 13.6261 110.091C13.5532 110.7 13.372 111.242 13.0825 111.718C12.7788 112.186 12.3798 112.548 11.8856 112.804L10.7674 112.211C11.0821 112.088 11.3716 111.852 11.636 111.503C11.9004 111.154 12.0828 110.726 12.1833 110.218C12.2696 109.702 12.2298 109.142 12.0639 108.539C11.9227 108.025 11.7114 107.585 11.4303 107.218C11.1379 106.854 10.8016 106.592 10.4214 106.432C10.0411 106.273 9.64435 106.25 9.23114 106.363C8.77326 106.489 8.42384 106.747 8.1829 107.138C7.94196 107.529 7.81452 108.026 7.80057 108.631C7.78355 109.224 7.87947 109.9 8.08833 110.659L8.24497 111.229L6.98858 111.575L6.83194 111.005C6.54937 109.978 6.16168 109.201 5.66889 108.676C5.16492 108.154 4.58349 107.984 3.92458 108.165C3.5002 108.282 3.1695 108.499 2.93246 108.816C2.68119 109.126 2.52959 109.492 2.47767 109.914C2.41151 110.329 2.43678 110.748 2.5535 111.173C2.75007 111.887 3.07939 112.452 3.54148 112.865C3.98932 113.27 4.45307 113.515 4.93274 113.599L4.1827 114.869C3.73039 114.753 3.30936 114.532 2.91959 114.207C2.52982 113.882 2.19324 113.488 1.90984 113.025C1.61528 112.566 1.39582 112.074 1.25146 111.549C1.03953 110.778 0.995825 110.052 1.12033 109.369C1.24177 108.675 1.50058 108.087 1.89675 107.606C2.29292 107.124 2.80371 106.798 3.42911 106.626C3.87583 106.503 4.30244 106.482 4.70896 106.562C5.10431 106.645 5.46685 106.828 5.79659 107.11C6.12633 107.391 6.42019 107.761 6.67818 108.219C6.62317 107.669 6.6871 107.159 6.86996 106.688C7.05283 106.218 7.32727 105.818 7.69329 105.489C8.05932 105.16 8.49361 104.926 8.99616 104.788C9.68857 104.598 10.3358 104.636 10.9377 104.903C11.5285 105.173 12.0414 105.596 12.4764 106.173C12.9083 106.739 13.2272 107.396 13.433 108.144Z" fill="white"/>
<path d="M10.8644 97.233L1.8125 97.7925L1.71503 96.2146L7.43779 92.4841L1.29839 89.4695L1.20306 87.9262L10.2549 87.3668L10.3449 88.8233L3.49531 89.2467L8.91645 91.9054L8.97643 92.8764L3.92481 96.1998L10.7744 95.7765L10.8644 97.233Z" fill="white"/>
<path d="M10.3177 85.4272L1.29856 84.6602L1.4282 83.1369L8.40463 83.7302L1.84105 78.0808L1.9589 76.696L10.9954 77.4645L10.8657 78.9878L4.02779 78.4063L10.4415 83.9732L10.3177 85.4272Z" fill="white"/>
<path d="M11.3058 75.1065L2.46094 73.1025L2.79886 71.6115L6.45879 72.4408L7.50328 67.8322L3.84334 67.003L4.18126 65.512L13.0261 67.5159L12.6882 69.0069L8.82492 68.1316L7.78044 72.7402L11.6437 73.6155L11.3058 75.1065Z" fill="white"/>
<path d="M16.8428 57.427C16.553 58.0714 16.1891 58.6125 15.7509 59.0504C15.3068 59.4731 14.8216 59.7755 14.2951 59.9579C13.7628 60.125 13.2246 60.1497 12.6807 60.0321L12.1971 58.8623C12.5177 58.9683 12.8911 58.9711 13.3172 58.8706C13.7434 58.7702 14.1571 58.5561 14.5584 58.2286C14.9539 57.8857 15.2798 57.4291 15.5363 56.8587C15.7548 56.3728 15.8727 55.8988 15.89 55.4367C15.8968 54.9699 15.8045 54.5538 15.6132 54.1884C15.4219 53.823 15.1308 53.5525 14.74 53.3768C14.3069 53.182 13.873 53.1584 13.4384 53.3059C13.0038 53.4534 12.5885 53.7556 12.1926 54.2125C11.8014 54.6589 11.4443 55.2412 11.1213 55.9595L10.879 56.4982L9.6906 55.9639L9.93285 55.4252C10.3699 54.4534 10.5658 53.6081 10.5207 52.8894C10.4651 52.166 10.1256 51.6641 9.50233 51.3839C9.10091 51.2034 8.70771 51.16 8.32274 51.2536C7.93195 51.3319 7.58186 51.5174 7.27247 51.81C6.95726 52.0874 6.70941 52.4268 6.52891 52.8282C6.22491 53.5042 6.1192 54.1488 6.2118 54.7618C6.29858 55.3596 6.49993 55.8438 6.81586 56.2144L5.4289 56.7147C5.15417 56.3372 4.97025 55.899 4.87716 55.3999C4.78407 54.9009 4.77574 54.3829 4.85216 53.8458C4.91802 53.304 5.06257 52.7848 5.28583 52.2883C5.61358 51.5595 6.04303 50.9716 6.57419 50.5246C7.1101 50.0671 7.68409 49.7791 8.29614 49.6606C8.9082 49.5422 9.51001 49.6159 10.1016 49.8818C10.5241 50.0718 10.8664 50.3273 11.1285 50.6483C11.3799 50.9645 11.543 51.3362 11.6176 51.7634C11.6921 52.1906 11.683 52.6627 11.5902 53.1798C11.898 52.7213 12.2723 52.3689 12.7132 52.1227C13.1541 51.8765 13.6204 51.7432 14.1121 51.723C14.6038 51.7028 15.0873 51.7995 15.5627 52.0132C16.2176 52.3077 16.692 52.7495 16.9858 53.3388C17.269 53.9233 17.3944 54.5765 17.3619 55.2984C17.3341 56.0097 17.1611 56.7193 16.8428 57.427Z" fill="white"/>
<path d="M21.5954 47.7145L14.2422 42.4067L15.1676 41.1249L21.9581 41.8697L19.1235 35.6454L20.0286 34.3917L27.3818 39.6994L26.5276 40.8827L20.9633 36.8663L23.4684 42.3599L22.8989 43.1487L16.8854 42.5148L22.4496 46.5312L21.5954 47.7145Z" fill="white"/>
<path d="M28.5676 38.3098L22.075 32.0033L23.1403 30.9067L28.1624 35.7848L26.6627 27.2558L27.6312 26.2589L34.1363 32.5775L33.071 33.6741L28.1485 28.8928L29.5845 37.263L28.5676 38.3098Z" fill="white"/>
<path d="M35.6376 31.1287L30.0391 23.9946L31.2419 23.0508L33.5585 26.0029L37.2763 23.0856L34.9596 20.1336L36.1624 19.1898L41.761 26.3239L40.5582 27.2677L38.1128 24.1516L34.3951 27.0689L36.8404 30.1849L35.6376 31.1287Z" fill="white"/>
<path d="M51.0828 20.8447C50.4519 21.1628 49.8284 21.354 49.2122 21.4183C48.6011 21.4671 48.0337 21.3965 47.5099 21.2067C46.9912 21.0013 46.5576 20.6817 46.209 20.2478L46.5701 19.0345C46.7523 19.3188 47.0406 19.556 47.435 19.7463C47.8293 19.9366 48.2854 20.0308 48.8034 20.029C49.3265 20.0117 49.8673 19.8622 50.4258 19.5806C50.9015 19.3407 51.2916 19.0467 51.596 18.6986C51.8952 18.3402 52.0856 17.9588 52.1671 17.5545C52.2486 17.1502 52.1928 16.7568 51.9999 16.3741C51.7861 15.9502 51.4639 15.6586 51.0334 15.4995C50.603 15.3405 50.0901 15.3138 49.4947 15.4194C48.9097 15.5198 48.2656 15.7474 47.5624 16.102L47.0349 16.368L46.4482 15.2046L46.9756 14.9387C47.9271 14.4588 48.6116 13.9256 49.0292 13.3388C49.4416 12.7418 49.4939 12.1382 49.1862 11.528C48.988 11.1351 48.7099 10.8537 48.3519 10.6841C47.9991 10.4988 47.6103 10.4225 47.1857 10.455C46.7661 10.472 46.3599 10.5796 45.9669 10.7778C45.305 11.1116 44.817 11.5457 44.5028 12.0803C44.1938 12.5993 44.0453 13.1023 44.0573 13.5891L42.6649 13.1045C42.6892 12.6382 42.8223 12.182 43.0642 11.7357C43.3062 11.2894 43.6259 10.8817 44.0235 10.5126C44.4159 10.1331 44.8551 9.8208 45.3412 9.57568C46.0548 9.21582 46.7586 9.02951 47.4527 9.01675C48.1571 8.99878 48.7843 9.13646 49.3344 9.42979C49.8845 9.72312 50.3055 10.1593 50.5976 10.7384C50.8062 11.1521 50.9112 11.5661 50.9126 11.9804C50.9088 12.3845 50.8014 12.7759 50.5903 13.1547C50.3792 13.5336 50.0748 13.8946 49.6772 14.2378C50.205 14.0754 50.7176 14.0374 51.2152 14.1237C51.7128 14.2101 52.1589 14.4002 52.5536 14.694C52.9482 14.9879 53.2629 15.3675 53.4976 15.8329C53.821 16.474 53.9112 17.116 53.7684 17.7587C53.6203 18.3912 53.3063 18.9775 52.8265 19.5179C52.3569 20.053 51.7757 20.4953 51.0828 20.8447Z" fill="white"/>
<path d="M61.6724 16.0035L59.3672 7.23291L60.8963 6.831L65.6664 11.7204L67.4327 5.11294L68.9282 4.71986L71.2334 13.4905L69.822 13.8615L68.0776 7.2247L66.5211 13.0585L65.5801 13.3059L61.3395 8.99576L63.0839 15.6325L61.6724 16.0035Z" fill="white"/>
<path d="M72.8394 13.2336L71.8301 4.23894L73.3494 4.0684L74.1302 11.0259L78.389 3.48525L79.7702 3.33021L80.7815 12.3422L79.2622 12.5127L78.4969 5.69332L74.2897 13.0708L72.8394 13.2336Z" fill="white"/>
<path d="M83.3483 12.1795L83.5938 3.11426L85.1221 3.15556L85.0205 6.90669L89.7445 7.03435L89.846 3.28321L91.3744 3.32451L91.129 12.3898L89.6006 12.3485L89.7078 8.38893L84.9839 8.26127L84.8767 12.2208L83.3483 12.1795Z" fill="white"/>
<path d="M101.491 14.0889C100.802 13.9328 100.199 13.6834 99.6832 13.3408C99.1809 12.9895 98.7881 12.574 98.505 12.0942C98.2357 11.6056 98.1047 11.0831 98.112 10.5266L99.1628 9.8206C99.1224 10.1558 99.1937 10.5223 99.3768 10.9201C99.5598 11.3178 99.8516 11.6808 100.252 12.0091C100.667 12.3286 101.179 12.5575 101.789 12.6957C102.309 12.8134 102.797 12.8349 103.253 12.7602C103.712 12.6742 104.101 12.5012 104.422 12.2412C104.742 11.9812 104.949 11.6423 105.044 11.2243C105.149 10.7612 105.086 10.3313 104.855 9.93467C104.625 9.538 104.246 9.19096 103.72 8.89356C103.204 8.59872 102.563 8.36428 101.795 8.19025L101.219 8.05972L101.507 6.78898L102.083 6.9195C103.122 7.15496 103.989 7.17929 104.685 6.99249C105.383 6.79439 105.807 6.36212 105.959 5.69569C106.056 5.26646 106.02 4.87248 105.852 4.51376C105.698 4.1463 105.447 3.83999 105.099 3.59483C104.764 3.34094 104.382 3.16537 103.953 3.06811C103.23 2.90432 102.577 2.92862 101.995 3.14101C101.426 3.34468 100.992 3.63809 100.691 4.02125L99.9254 2.76121C100.241 2.41705 100.634 2.14985 101.105 1.9596C101.575 1.76935 102.082 1.65839 102.623 1.62672C103.167 1.58375 103.705 1.62241 104.236 1.7427C105.015 1.9193 105.677 2.22354 106.22 2.65543C106.775 3.08987 107.171 3.59527 107.408 4.17161C107.646 4.74795 107.693 5.35239 107.55 5.98494C107.447 6.43676 107.265 6.82292 107.002 7.14343C106.742 7.45264 106.41 7.68618 106.006 7.84404C105.602 8.00191 105.138 8.08666 104.612 8.0983C105.123 8.30895 105.542 8.60591 105.871 8.98917C106.2 9.37243 106.423 9.80299 106.54 10.2808C106.658 10.7587 106.659 11.2518 106.544 11.7601C106.385 12.4604 106.046 13.013 105.527 13.4179C105.01 13.8114 104.394 14.0639 103.68 14.1752C102.978 14.2892 102.248 14.2604 101.491 14.0889Z" fill="white"/>
<path d="M112.329 16.935L116.109 8.69189L117.546 9.35089L118.133 16.1564L123.69 12.1679L125.095 12.8124L121.314 21.0555L119.988 20.4472L122.849 14.2096L117.945 17.7331L117.061 17.3275L116.516 11.3057L113.655 17.5433L112.329 16.935Z" fill="white"/>
<path d="M122.638 21.7959L127.553 14.1953L128.837 15.0254L125.035 20.9045L133.106 17.7653L134.273 18.52L129.349 26.1352L128.065 25.305L131.791 19.5426L123.863 22.5883L122.638 21.7959Z" fill="white"/>
<path d="M131.523 27.6684L137.453 20.8071L138.61 21.8068L136.156 24.6459L139.731 27.7358L142.185 24.8966L143.342 25.8963L137.411 32.7575L136.255 31.7579L138.845 28.761L135.27 25.6712L132.679 28.668L131.523 27.6684Z" fill="white"/>
<path d="M144.499 40.8054C144.064 40.2481 143.756 39.6733 143.574 39.0813C143.408 38.4912 143.368 37.9209 143.453 37.3702C143.554 36.8216 143.784 36.3344 144.142 35.9086L145.402 36.0281C145.159 36.2619 144.981 36.5906 144.871 37.0142C144.761 37.4379 144.756 37.9037 144.858 38.4115C144.976 38.9213 145.228 39.423 145.612 39.9164C145.939 40.3367 146.303 40.6625 146.704 40.8938C147.113 41.118 147.524 41.231 147.937 41.2328C148.349 41.2345 148.724 41.1037 149.062 40.8404C149.437 40.5486 149.661 40.1762 149.734 39.7231C149.806 39.27 149.734 38.7616 149.515 38.198C149.303 37.6435 148.955 37.0556 148.471 36.4343L148.108 35.9683L149.136 35.1677L149.499 35.6337C150.154 36.4743 150.81 37.0427 151.466 37.3388C152.132 37.6279 152.734 37.5624 153.273 37.1426C153.621 36.8721 153.843 36.5449 153.94 36.1608C154.054 35.7788 154.053 35.3827 153.939 34.9724C153.841 34.5641 153.657 34.1863 153.387 33.8391C152.931 33.2543 152.411 32.8596 151.826 32.6548C151.257 32.452 150.735 32.4036 150.259 32.5096L150.466 31.0497C150.928 30.9834 151.401 31.0257 151.886 31.1767C152.37 31.3278 152.832 31.5626 153.271 31.8813C153.72 32.1928 154.111 32.5633 154.445 32.9927C154.936 33.6232 155.255 34.2777 155.402 34.9561C155.556 35.6437 155.542 36.2857 155.361 36.8821C155.179 37.4785 154.833 37.976 154.321 38.3745C153.955 38.6592 153.569 38.8423 153.163 38.9238C152.766 38.9982 152.361 38.9686 151.949 38.8348C151.536 38.701 151.123 38.4722 150.709 38.1484C150.971 38.6348 151.107 39.1304 151.119 39.6353C151.13 40.1401 151.03 40.6146 150.818 41.0586C150.606 41.5026 150.294 41.8848 149.883 42.2051C149.316 42.6463 148.704 42.859 148.046 42.8432C147.397 42.8203 146.761 42.6257 146.138 42.2594C145.522 41.9023 144.975 41.4176 144.499 40.8054Z" fill="white"/>
<path d="M151.092 49.9186L159.234 45.9253L159.931 47.3447L156.08 52.9869L162.906 53.4122L163.587 54.8004L155.444 58.7937L154.802 57.4835L160.963 54.4617L154.937 54.0892L154.508 53.2157L157.896 48.207L151.734 51.2288L151.092 49.9186Z" fill="white"/>
<path d="M156.051 60.3596L164.671 57.5981L165.137 59.054L158.469 61.19L166.702 63.8796L167.126 65.2032L158.489 67.97L158.022 66.5141L164.558 64.4204L156.496 61.7493L156.051 60.3596Z" fill="white"/>
<path d="M159.066 70.1446L168 68.582L168.263 70.088L164.567 70.7346L165.381 75.3893L169.077 74.7427L169.341 76.2486L160.407 77.8112L160.144 76.3053L164.046 75.6227L163.232 70.968L159.33 71.6506L159.066 70.1446Z" fill="white"/>
</svg>
