<svg width="778" height="428" viewBox="0 0 778 428" fill="none" xmlns="http://www.w3.org/2000/svg">
<g opacity="0.7">
<path opacity="0.2" fill-rule="evenodd" clip-rule="evenodd" d="M83.331 27.5524C69.3415 27.5935 44.7786 29.1517 41.9401 30.1786C39.8244 30.9444 38.4499 34.8228 38.6421 39.4858L38.7964 43.2279L66.0145 41.9525C80.9842 41.2514 93.5203 40.5702 93.8726 40.4388C95.384 39.8749 94.0879 31.6489 92.0815 29.0719C90.8117 27.4407 91.3206 27.5291 83.331 27.5524ZM87.8784 34.4089L88.8605 36.7235L86.2819 36.9651C82.9831 37.2735 45.1574 38.9841 44.6217 38.8486C43.5929 38.5888 45.1826 34.3534 46.4829 33.8899C49.7095 32.7394 84.3943 31.0543 86.5355 31.9436C86.7338 32.0263 87.3385 33.1354 87.8784 34.4089ZM87.5007 44.7878C86.1803 45.3568 86.1797 45.3644 87.4016 45.7258C88.0891 45.9289 88.8658 45.7618 89.1596 45.347C89.8713 44.3429 89.1206 44.0897 87.5007 44.7878ZM81.0888 42.3526C79.6743 42.8803 78.8603 43.7675 77.4471 46.3236C76.4817 48.0699 75.6004 47.9414 75.9646 46.1073C76.5035 43.3961 75.1225 45.8658 74.4595 48.7996C73.7485 51.9458 73.7158 53.5524 74.3932 52.068C75.2939 50.0939 79.107 47.0692 82.0489 45.9956C84.7112 45.0236 85.1385 44.7044 84.9091 43.8581C84.5358 42.482 82.691 41.7549 81.0888 42.3526ZM85.2502 48.0592C84.1656 48.1042 83.0609 48.3828 82.7948 48.6777C82.4129 49.1007 82.5619 49.198 83.4978 49.139C84.1501 49.0978 85.5353 49.4523 86.5757 49.927C88.5242 50.8161 89.7062 50.1537 88.4514 48.8765C87.5936 48.003 87.4506 47.9664 85.2502 48.0592ZM78.5397 49.1797C77.7595 49.5024 76.5753 50.4162 75.908 51.2096C74.66 52.6943 72.6109 56.8633 73.6401 55.8238C75.0783 54.3719 76.3751 54.2624 78.8359 55.3853C80.1884 56.0024 81.5201 56.3572 81.795 56.1736C82.0699 55.99 81.8634 55.643 81.3368 55.4027C80.235 54.8999 80.6116 53.5154 81.8296 53.5908C82.2702 53.6182 83.5001 54.8503 84.563 56.3287C86.6972 59.2982 88.3485 59.8629 89.8963 58.1526C92.1379 55.6755 86.8106 51.7738 81.7825 52.2107C79.3744 52.4199 78.1286 51.7919 79.7518 51.1863C80.875 50.7673 81.4539 49.2756 80.6374 48.903C80.2633 48.7323 79.3195 48.8568 78.5397 49.1797ZM91.0693 58.6827C90.5787 59.0567 89.9929 59.7665 89.7676 60.2604C89.2496 61.3956 86.5255 62.827 85.6466 62.426C84.6738 61.9821 85.211 61.2372 86.566 61.1515C87.2115 61.1106 87.7076 60.8217 87.668 60.5093C87.5164 59.3113 85.3249 60.125 83.8968 61.9096C81.897 64.4088 79.7252 64.8146 78.6451 62.8907C78.0935 61.908 78.1338 61.837 79.7644 60.9343C80.6943 60.4191 81.563 59.762 81.6941 59.4746C82.1671 58.438 80.5636 58.8267 79.0114 60.1255C74.965 63.51 69.8887 61.3842 62.7255 53.3061C57.6087 47.535 53.2941 45.5595 49.6504 47.3186C48.5474 47.8509 49.1262 49.0291 50.2792 48.599C51.3096 48.2145 51.8381 48.5248 51.4821 49.3051C50.91 50.5589 45.684 49.1368 43.2063 47.0533C41.8857 45.9422 41.4543 45.7852 40.7678 46.1637C40.3087 46.4171 39.381 46.372 38.7054 46.0637L37.4771 45.5032L33.968 53.1936L30.4589 60.884L26.6218 63.1336C24.5113 64.3709 22.7042 65.5595 22.6057 65.7752C22.5073 65.991 35.9386 72.3326 52.4526 79.8679L82.4784 93.5685L82.4031 92.27C82.3613 91.5559 81.9591 89.3687 81.5093 87.4099L80.6908 83.8484L84.2082 76.1399L87.7256 68.4314L86.273 67.7686C85.0238 67.1986 84.9482 67.0439 85.732 66.6654C86.2336 66.4235 86.5735 66.037 86.488 65.8069C86.4017 65.5771 85.6941 65.7025 84.9149 66.0859C83.7332 66.6676 83.4434 66.6337 83.1679 65.8798C82.8934 65.1286 83.2075 64.8938 85.0277 64.4883C91.2986 63.0907 94.7247 60.6159 92.9248 58.7838C92.0796 57.9234 92.067 57.9227 91.0693 58.6827ZM51.623 51.7681C51.2444 51.7515 50.721 51.5127 50.4599 51.2373C50.199 50.9627 50.5087 50.9764 51.1484 51.2683C51.7882 51.5602 52.0019 51.7853 51.623 51.7681ZM24.9486 42.5925C22.1843 42.4689 19.0295 50.3597 21.6015 50.9642C23.7024 51.4576 25.4103 53.5134 26.3061 56.627C27.6554 61.3179 28.155 61.0054 31.6904 53.2573L34.7673 46.5142L30.4502 44.5798C28.0755 43.5159 25.5998 42.6216 24.9486 42.5925ZM85.661 77.8839C82.1256 85.6319 82.2169 86.2141 86.6443 84.1591C89.5875 82.7933 92.2558 82.7382 94.0138 84.0078C95.239 84.8928 95.2894 84.8674 96.6609 82.7031C99.8771 77.6282 99.2398 75.9328 93.0541 73.1103L88.7378 71.1408L85.661 77.8839ZM13.1676 84.6079C-18.4824 150.494 -18.4838 149.387 13.2592 163.872C34.1045 173.383 41.6827 174.163 48.1271 167.458C49.9534 165.559 66.4115 130.632 75.6169 109.12L81.7023 94.9L51.5681 81.1499L21.4334 67.3996L13.1676 84.6079Z" fill="white"/>
<path opacity="0.2" fill-rule="evenodd" clip-rule="evenodd" d="M376.409 344.129C361.825 345.343 336.342 349.024 333.468 350.333C331.326 351.309 330.218 355.468 330.808 360.314L331.283 364.204L359.558 360.595C375.109 358.61 388.124 356.85 388.481 356.683C390.01 355.969 387.969 347.5 385.661 344.98C384.201 343.386 384.739 343.435 376.409 344.129ZM381.725 350.898L382.943 353.229L380.275 353.697C376.861 354.295 337.56 359.246 336.99 359.149C335.896 358.964 337.199 354.415 338.516 353.823C341.784 352.353 377.811 347.691 380.119 348.439C380.332 348.509 381.056 349.615 381.725 350.898ZM382.201 361.752C380.871 362.456 380.871 362.464 382.176 362.738C382.91 362.893 383.706 362.653 383.977 362.196C384.635 361.09 383.831 360.888 382.201 361.752ZM375.311 359.75C373.88 360.418 373.105 361.412 371.846 364.195C370.985 366.097 370.055 366.037 370.282 364.094C370.616 361.222 369.383 363.913 368.938 367.027C368.46 370.368 368.56 372.046 369.142 370.441C369.916 368.307 373.639 364.834 376.617 363.468C379.311 362.231 379.73 361.863 379.42 361C378.916 359.596 376.931 358.992 375.311 359.75ZM380.128 365.352C379 365.49 377.872 365.873 377.619 366.202C377.256 366.675 377.42 366.764 378.391 366.624C379.068 366.527 380.542 366.781 381.666 367.189C383.773 367.952 384.95 367.163 383.534 365.936C382.567 365.097 382.414 365.071 380.128 365.352ZM373.224 367.082C372.437 367.484 371.279 368.536 370.65 369.419C369.473 371.072 367.685 375.591 368.671 374.421C370.049 372.786 371.392 372.563 374.052 373.528C375.515 374.059 376.933 374.317 377.204 374.103C377.475 373.888 377.231 373.543 376.662 373.337C375.471 372.905 375.748 371.43 377.024 371.406C377.486 371.398 378.871 372.58 380.104 374.032C382.578 376.95 384.347 377.401 385.818 375.488C387.948 372.717 382.066 369.095 376.859 369.971C374.366 370.391 373.014 369.84 374.656 369.073C375.792 368.542 376.271 366.938 375.388 366.618C374.984 366.471 374.01 366.68 373.224 367.082ZM387.085 375.942C386.605 376.373 386.054 377.163 385.86 377.697C385.415 378.924 382.694 380.644 381.744 380.3C380.692 379.918 381.19 379.097 382.596 378.894C383.266 378.797 383.759 378.454 383.691 378.132C383.433 376.895 381.216 377.927 379.876 379.908C378 382.681 375.769 383.286 374.482 381.371C373.825 380.392 373.861 380.315 375.485 379.237C376.412 378.622 377.263 377.864 377.375 377.553C377.782 376.433 376.142 376.972 374.632 378.456C370.696 382.325 365.225 380.533 357.079 372.709C351.26 367.12 346.596 365.421 342.943 367.56C341.838 368.208 342.54 369.388 343.706 368.843C344.749 368.356 345.326 368.635 345.02 369.478C344.528 370.834 338.96 369.788 336.201 367.823C334.731 366.775 334.268 366.648 333.584 367.1C333.127 367.403 332.155 367.433 331.425 367.168L330.097 366.687L327.082 375L324.067 383.313L320.254 385.98C318.157 387.447 316.372 388.838 316.287 389.071C316.203 389.304 330.74 394.792 348.591 401.267L381.048 413.04L380.861 411.692C380.757 410.951 380.155 408.704 379.522 406.699L378.37 403.053L381.392 394.721L384.415 386.388L382.845 385.818C381.494 385.329 381.402 385.174 382.188 384.713C382.691 384.419 383.013 383.988 382.904 383.755C382.795 383.522 382.068 383.713 381.287 384.177C380.104 384.883 379.799 384.872 379.449 384.109C379.099 383.349 379.407 383.077 381.271 382.502C387.693 380.52 391.059 377.652 389.029 375.892C388.075 375.066 388.062 375.066 387.085 375.942ZM345.373 372.035C344.977 372.049 344.411 371.844 344.116 371.579C343.821 371.314 344.145 371.303 344.836 371.554C345.528 371.804 345.769 372.021 345.373 372.035ZM316.789 364.7C313.896 364.803 311.267 373.296 314 373.71C316.232 374.049 318.185 376.05 319.38 379.222C321.18 384 321.675 383.632 324.713 375.257L327.356 367.968L322.693 366.312C320.127 365.401 317.471 364.676 316.789 364.7ZM383.053 396.418C380.016 404.793 380.159 405.392 384.604 402.879C387.559 401.208 390.337 400.927 392.276 402.104C393.628 402.924 393.678 402.894 394.927 400.522C397.856 394.961 397.05 393.246 390.363 390.821L385.697 389.128L383.053 396.418ZM308.023 409.499C280.536 480.854 280.442 479.699 314.755 492.145C337.288 500.318 345.256 500.496 351.414 492.966C353.16 490.832 367.397 453.033 375.195 429.83L380.35 414.493L347.776 402.678L315.201 390.863L308.023 409.499Z" fill="white"/>
<g opacity="0.2">
<path d="M702.416 345.532L689.892 340.907L701.459 349.366L702.416 345.532Z" fill="white"/>
<path d="M665.581 331.733C662.131 330.055 658.681 328.379 655.231 326.703C654.24 326.221 650.522 323.711 649.233 324.422C649.147 324.468 649.071 324.531 649.01 324.607C648.114 325.71 652.722 332.324 653.138 333.926C653.794 336.451 653.544 339.109 653.29 341.704L650.497 370.143C651.686 367.087 667.171 332.507 665.581 331.733Z" fill="white"/>
<path d="M611.131 436.61C605.871 429.13 609.176 420.867 609.176 420.867L603.805 434.163C605.642 436.329 607.564 438.261 609.388 440.443C610.877 442.225 612.643 443.452 614.113 445.246C615.348 446.752 616.719 449.223 618.663 449.878C620.864 450.615 623.923 439.709 624.757 437.622C624.999 437.017 621.872 442.779 619.997 444.368C618.121 445.957 616.392 444.09 611.131 436.61Z" fill="white"/>
<path d="M677.54 420.495C675.091 426.279 671.233 431.592 667.904 436.966C668.996 436.782 670.089 436.597 671.181 436.411C673.395 431.134 675.578 425.848 677.54 420.495Z" fill="white"/>
<path d="M661.203 459.809C661.85 459.324 662.309 458.629 662.5 457.843C664.718 451.795 667.216 445.831 669.724 439.87C668.313 440.109 666.902 440.343 665.489 440.571C665.143 440.986 664.748 441.358 664.313 441.678C663.019 442.472 661.568 442.977 660.061 443.159C650.64 444.897 641.014 445.11 631.437 445.318C629.444 445.361 626.369 444.519 625.87 442.277C625.132 443.95 624.604 445.712 623.85 447.382C623.218 448.781 622.238 450.448 622.704 452.039C623.345 454.221 628.206 454.481 630.013 454.893C633.213 455.627 636.426 456.297 639.653 456.903C646.075 458.119 652.536 459.12 659.013 459.994C659.743 460.171 660.512 460.107 661.203 459.809Z" fill="white"/>
<path d="M602.235 435.032C606.115 425.452 609.962 415.86 613.774 406.254L619.54 391.764L625.246 377.25L630.942 362.731L636.583 348.191C640.343 338.498 644.058 328.787 647.729 319.057C643.755 328.667 639.829 338.295 635.953 347.942L630.133 362.411L624.368 376.902L618.612 391.397L612.917 405.916C609.103 415.588 605.332 425.277 601.604 434.983L601.533 435.16L601.66 435.297L610.553 444.792L619.48 454.251L610.813 444.553L602.235 435.032Z" fill="white"/>
<path d="M709.437 346.769L701.395 343.225L702.75 343.748L697.114 333.091L700.457 330.339C700.544 330.28 700.627 330.22 700.72 330.163C700.909 330.02 701.086 329.861 701.248 329.688L701.454 329.515L701.415 329.474C701.473 329.4 701.539 329.334 701.59 329.254C702.32 328.017 702.575 326.557 702.309 325.146C701.977 323.152 701.278 321.237 700.246 319.498C699.878 318.875 699.573 318.392 699.343 318.08C699.113 317.768 699.002 317.591 699.002 317.591L699.332 318.087C699.554 318.405 699.846 318.894 700.198 319.522C700.618 320.283 700.968 321.081 701.242 321.905C701.612 322.96 701.826 324.064 701.877 325.181C701.999 326.441 701.646 327.702 700.885 328.714C700.86 328.746 700.824 328.772 700.795 328.802L700.769 328.772L700.421 329.127C700.344 329.182 700.264 329.241 700.196 329.282C700.041 329.369 699.88 329.445 699.715 329.51L699.304 329.614C698.646 329.712 697.974 329.656 697.342 329.45C696.651 329.248 695.991 328.949 695.384 328.563C694.735 328.178 694.122 327.735 693.552 327.241C692.381 326.225 691.333 325.075 690.429 323.815C690.201 323.475 689.943 323.131 689.733 322.801C689.538 322.471 689.321 322.167 689.142 321.815C688.765 321.138 688.426 320.44 688.126 319.725C687.835 319.03 687.608 318.309 687.447 317.572C687.272 316.874 687.195 316.155 687.22 315.436C687.24 314.044 687.831 312.78 689.044 312.304C690.238 311.906 691.539 311.967 692.691 312.476C693.736 312.874 694.717 313.423 695.602 314.105C696.299 314.625 696.947 315.207 697.537 315.844C698.023 316.382 698.396 316.809 698.628 317.12L698.994 317.588L698.636 317.111C698.411 316.794 698.047 316.354 697.574 315.808C696.247 314.281 694.649 313.015 692.86 312.071C691.599 311.37 690.125 311.156 688.716 311.467C688.379 311.566 688.058 311.714 687.763 311.904L687.752 311.888L687.615 311.989L687.608 311.995L687.382 312.161L670.226 305.835L676.032 308.341L674.908 307.892L682.093 312.488L683.248 314.871L684.723 314.138L681.12 316.802L686.14 313.97C685.978 314.399 685.863 314.844 685.799 315.298C685.624 316.688 685.735 318.1 686.125 319.446L680.285 323.662C680.19 323.358 680.099 323.056 680.025 322.759C679.86 322.089 679.766 321.404 679.745 320.715C679.727 320.134 679.773 319.552 679.881 318.981C679.984 318.543 680.147 318.121 680.366 317.728C680.516 317.475 680.695 317.241 680.901 317.031L681.121 316.802L680.865 316.99C680.614 317.164 680.391 317.376 680.203 317.617C679.918 318.003 679.688 318.427 679.518 318.876C679.316 319.466 679.2 320.083 679.176 320.707C679.141 321.441 679.184 322.177 679.304 322.903C679.43 323.71 679.634 324.503 679.911 325.272C680.196 326.095 680.548 326.895 680.962 327.662C681.385 328.448 681.856 329.209 682.37 329.94C682.519 330.136 682.67 330.32 682.819 330.509C682.61 330.328 682.411 330.167 682.196 329.974L688.129 337.381L669.714 329.263L665.724 308.618L665.573 307.593L669.185 298.299L708.217 313.382L705.657 320.005L705.625 320.084L705.636 320.161L705.639 320.182L698.777 317.247L700.231 319.362L705.64 320.186L709.433 346.77L706.268 320.166L709.106 313.302L709.257 312.937L708.883 312.783L669.005 296.298L668.181 295.957L667.835 296.8L663.989 306.152L647.733 319.059L653.615 314.813L648.053 319.005C648.406 318.761 655.549 317.63 660.238 316.908L653.922 319.008L650.135 320.029L650.419 320.177L649.776 320.39L650.468 320.203L660.2 325.29L647.423 319.954L666.616 330.99L619.483 454.256L670.255 332.659L709.437 346.769ZM696.029 330.589C696.36 330.695 696.696 330.781 697.037 330.847C697.585 330.944 698.143 330.966 698.697 330.911L696.15 333.536L693.992 335.455C693.992 335.455 693.055 336.029 690.945 335.476L696.029 330.589Z" fill="white"/>
<path d="M697.955 376.021C701.839 366.293 705.615 356.521 709.437 346.768C705.408 356.437 701.335 366.089 697.368 375.783C693.369 385.464 689.401 395.158 685.462 404.864C681.523 414.569 677.548 424.26 673.663 433.988L662.091 462.849L640.963 458.529L619.485 454.251L640.858 459.024L662.254 463.69L662.577 463.76L662.701 463.451L674.558 434.35C678.523 424.654 682.398 414.923 686.309 405.206C690.219 395.489 694.105 385.762 697.955 376.021Z" fill="white"/>
</g>
<path opacity="0.2" fill-rule="evenodd" clip-rule="evenodd" d="M60.1476 251.199C55.9017 252.093 51.9043 254.595 47.2413 259.279C43.8712 262.664 42.5636 264.591 45.5411 261.784C57.3657 250.637 63.6494 250.422 76.6672 260.72C80.1913 263.508 83.4261 265.438 85.1872 265.804C85.9016 265.952 85.7594 265.811 84.569 265.19C82.7268 264.229 81.1861 263.014 77.4605 259.582C70.0911 252.795 64.7815 250.224 60.1476 251.199ZM100.18 261.187C98.5615 261.545 97.1685 262.146 95.6093 263.159L94.9023 263.619L95.8213 264.176C97.047 264.919 97.2681 265.399 98.0248 268.966C98.7785 272.517 99.2187 274.013 99.5087 274.007C100.521 273.985 104.595 266.558 105.074 263.861C105.63 260.733 104.651 260.198 100.18 261.187ZM90.3729 263.823C87.0695 264.635 86.9403 266.21 90.0823 267.368C92.8286 268.38 93.288 270.186 92.1062 275.325C89.6801 285.875 94.0785 302.365 99.3185 302.365C99.9946 302.365 100.206 302.192 100.354 301.518C100.456 301.052 100.945 299.453 101.442 297.966C102.52 294.736 102.563 293.213 101.695 289.038C100.914 285.278 101.049 284.096 102.541 281.648C103.872 279.463 103.865 279.441 101.093 277.236C98.4517 275.135 97.8971 274.076 97.3883 270.159C96.6721 264.643 94.6108 262.781 90.3729 263.823ZM-1.43912 265.373C-5.4569 266.325 -4.75671 271.802 0.72975 282.333C7.80082 295.905 13.8493 299.064 26.6068 295.845C31.9529 294.496 36.1355 295.164 38.4688 297.739C43.0637 302.81 47.0209 314.813 47.9372 326.457C48.5895 334.75 50.0578 336.356 54.8509 334.015C58.8767 332.049 59.3618 332.089 62.2351 334.626C63.1322 335.418 63.672 335.65 64.6164 335.65C66.2749 335.65 67.2975 336.171 67.7429 337.243C68.5244 339.124 70.7057 339.633 72.2637 338.296L73.1311 337.553L73.1605 332.518C73.1917 327.193 73.3444 326.3 74.8474 322.668C79.3653 311.749 78.8921 306.226 72.7308 297.981C70.114 294.48 69.6017 293.491 68.3723 289.575C67.84 287.88 66.9262 285.245 66.3413 283.72C65.7568 282.194 64.7706 279.284 64.1499 277.254C61.2029 267.611 58.201 265.261 52.9056 268.45C49.7286 270.364 46.9594 269.852 45.0592 267C43.3954 264.503 41.7747 265.631 39.0753 271.163C35.2316 279.042 30.9832 279.753 22.9152 273.87C14.9108 268.034 3.75645 264.143 -1.43912 265.373ZM4.81307 270.743C9.57183 272.995 15.2493 280.346 20.3024 290.797C22.4778 295.296 22.4642 295.08 20.6016 295.547C11.4535 297.844 3.7648 288.37 0.810122 271.161L0.61166 270.005L1.93969 270.008C2.69119 270.01 3.93791 270.329 4.81307 270.743ZM101.726 280.367C101.726 280.795 101.648 280.808 101.185 280.454C100.887 280.227 100.586 280.002 100.515 279.954C100.444 279.906 100.688 279.867 101.056 279.867C101.468 279.867 101.726 280.06 101.726 280.367ZM99.3702 283.43C99.7965 283.536 100.292 283.533 100.472 283.422C100.651 283.312 100.798 283.351 100.798 283.51C100.798 284.859 97.5837 284.662 97.4535 283.305C97.2922 281.626 97.6733 281.066 98.1744 282.245C98.435 282.859 98.8904 283.31 99.3702 283.43ZM57.5456 282.194C58.3209 282.672 57.0692 285.309 55.6785 286.128L54.8228 286.632L55.4336 285.401C56.1014 284.056 55.8343 282.677 54.7746 281.997C54.2385 281.653 56.9849 281.849 57.5456 282.194ZM52.0307 283.818C51.9216 284.951 52.0143 285.429 52.4221 285.836C53.2499 286.661 52.8193 286.706 51.3318 285.949C49.5824 285.06 49.5292 284.772 50.8671 283.439C52.2514 282.058 52.202 282.042 52.0307 283.818ZM104.199 303.851C109.557 305.284 112.747 308.528 114.709 314.539C115.813 317.919 116.631 319.258 119.5 322.378C127.153 330.7 124.276 332.977 106.333 332.8L98.4799 332.722L95.6977 333.694C94.1675 334.228 90.5506 335.704 87.6603 336.972C80.239 340.23 78.535 340.586 76.377 339.335L75.295 338.708L76.1392 339.471C78.046 341.193 80.6504 340.828 89.2436 337.635C98.393 334.235 100.369 333.931 108.244 334.71C124.112 336.28 129.598 330.43 120.844 321.274C117.934 318.23 117.554 317.693 116.622 315.309C113.73 307.914 109.59 304.114 103.735 303.481C102.21 303.316 102.217 303.321 104.199 303.851ZM39.1996 306.141C38.1155 306.961 37.6957 309.476 38.467 310.528C38.8769 311.087 38.9155 311.084 39.7474 310.432C41.4025 309.133 41.9503 310.957 42.4155 319.316C42.8693 327.467 42.7973 328.736 41.7775 330.565C38.8623 335.794 36.4276 339.309 33.6389 342.314C29.347 346.94 28.5262 348.592 27.8845 353.898C27.511 356.988 26.8291 358.299 24.752 359.925C21.1757 362.725 20.6545 363.194 20.0854 364.124C18.9738 365.942 19.2702 367.313 21.1568 369.077C23.6395 371.399 23.8886 372.072 24.1282 377.102C24.4148 383.119 24.9836 384.067 29.5862 386.193C33.724 388.104 35.6276 390.58 36.6143 395.334C37.7825 400.963 42.6817 401.791 42.6817 396.36C42.6817 394.564 43.0115 394.27 45.1624 394.148C46.7696 394.057 46.8593 394.008 47.0107 393.129C47.1301 392.436 47.4587 392.07 48.3261 391.663C50.371 390.703 49.5487 387.426 47.263 387.426C45.5411 387.426 44.6462 385.096 45.9693 384.059C48.0238 382.448 49.6411 383.455 51.7599 387.664C52.6753 389.483 53.7952 391.676 54.249 392.537C54.8463 393.67 55.1183 394.734 55.2346 396.389C55.4547 399.525 55.5499 399.878 56.4655 400.963C58.7426 403.661 62.0033 399.752 61.4243 395.018C61.3176 394.148 61.1507 392.812 61.053 392.049C60.8913 390.785 60.9968 390.481 62.2469 388.601C64.7212 384.88 64.5255 381.714 61.4119 375.099C59.0038 369.982 59.1503 370.417 58.5923 366.715C58.1271 363.627 57.9085 363.03 55.9041 359.381C55.2713 358.229 54.5795 356.33 54.2759 354.912C53.6747 352.104 52.7989 350.19 50.894 347.525C47.0206 342.105 46.4169 339.471 45.7693 325.172C45.3915 316.833 44.7247 313.582 42.451 308.991C41.1685 306.402 40.0964 305.462 39.1996 306.141ZM32.7422 313.383C22.8997 325.694 17.6655 340.668 18.3876 354.45C18.6813 360.058 19.116 361.417 19.1561 356.854C19.2748 343.298 24.7004 326.655 33.2763 313.538C35.3549 310.359 35.1967 310.313 32.7422 313.383ZM86.1514 312.836C82.6276 313.959 82.0384 319.814 85.2401 321.892C86.7298 322.859 90.0706 323.86 93.0305 324.225C94.2837 324.38 95.4593 324.657 95.6427 324.839C96.1499 325.345 96.5299 325.236 96.3639 324.632C96.2822 324.336 96.124 323.554 96.0121 322.896C95.8692 322.056 95.3666 321.228 94.3273 320.122C92.526 318.205 92.2663 317.729 91.9791 315.82C91.5742 313.126 89.1447 311.883 86.1514 312.836ZM108.571 313.316C106.088 315.399 106.617 318.383 110.208 322.539L111.262 323.758L111.089 321.862C110.94 320.216 111.024 319.762 111.731 318.414C113.757 314.55 111.48 310.876 108.571 313.316ZM27.7454 332.252C26.532 333.314 25.2562 335.976 24.2744 339.494C23.8948 340.855 23.2877 342.708 22.9254 343.613C22.5581 344.53 22.125 346.635 21.9464 348.37C21.7702 350.082 21.577 351.562 21.517 351.659C21.031 352.443 19.8313 357.989 20.0916 358.248C20.6724 358.827 21.7358 357.997 22.8697 356.081C23.48 355.049 24.3715 353.573 24.851 352.8C25.7308 351.381 26.268 348.912 26.3023 346.129C26.3271 344.129 26.8603 343.413 29.7491 341.496C33.0757 339.288 34.3351 337.546 34.3351 335.153C34.3351 333.121 34.0767 333.089 32.5731 334.934C30.2317 337.808 28.5173 338.749 27.3614 337.792C26.5255 337.101 26.9923 336.164 28.7609 334.986C30.5721 333.78 31.2716 332.574 30.6169 331.787C30.0221 331.073 28.8817 331.257 27.7454 332.252ZM111.78 337.586C110.686 339.461 109.024 341.252 107.154 342.572C104.135 344.702 103.574 344.912 101.584 344.657L99.8366 344.434L101.114 342.739C103.234 339.926 103.106 339.84 100.579 342.379C91.9399 351.056 80.7379 354.085 71.3156 350.291C70.2902 349.878 69.407 349.584 69.3529 349.639C69.1572 349.833 73.1799 351.504 75.4048 352.152L77.6784 352.814L75.482 353.018C65.6059 353.933 60.6799 363.081 63.7579 374.791C64.187 376.423 64.1984 376.308 64.0664 371.637C63.7289 359.701 68.1124 353.833 77.3662 353.833H78.6339L77.3115 354.719C74.3277 356.717 73.4674 359.357 74.3645 363.763C75.0322 367.043 74.6996 368.294 72.5162 370.715C71.7777 371.534 70.6562 373.098 70.024 374.191C69.3918 375.283 68.0589 376.945 67.0616 377.883C64.7635 380.045 64.5966 381.602 66.2418 385.522C67.5664 388.678 67.5377 389.679 66.0591 391.899C64.3329 394.491 64.3552 395.824 66.1756 398.827L67.5667 401.122L67.6684 405.061C67.7247 407.227 67.8966 409 68.0505 409C68.7794 409 69.9814 406.348 70.8577 402.804C72.2674 397.105 72.9629 396.06 76.4753 394.361C78.356 393.451 78.3965 393.405 79.0309 391.433C79.4915 390.002 80.0977 388.965 81.1543 387.803C82.5154 386.306 82.6514 386.011 82.8616 384.101C83.2001 381.027 84.8697 378.181 86.3341 378.181C86.9403 378.181 87.2964 378.822 87.8018 380.824C88.2047 382.42 88.8588 382.743 91.9442 382.872C94.6213 382.983 95.8522 383.792 95.8522 385.441C95.8522 388.584 100.758 387.787 107.312 383.578C111.479 380.902 112.032 383.145 108.325 387.686C106.618 389.776 106.633 389.946 108.684 391.911C109.749 392.931 110.458 393.897 110.576 394.486C110.854 395.871 111.199 395.397 111.436 393.302C111.551 392.289 111.985 390.466 112.399 389.251C113.438 386.206 115.018 374.224 115.018 369.393C115.018 364.922 112.832 357.607 110.837 355.406C110.257 354.765 109.027 352.728 108.105 350.879C107.182 349.029 106.075 347.003 105.643 346.377L104.859 345.239L106.461 344.337C108.552 343.159 110.845 340.684 111.826 338.548C112.7 336.645 112.671 336.057 111.78 337.586ZM19.5212 372.505C19.5361 372.864 19.6093 372.937 19.7079 372.691C19.7973 372.469 19.7862 372.203 19.6835 372.1C19.5809 371.998 19.5079 372.18 19.5212 372.505ZM19.9624 374.939C20.2922 378.417 21.4066 382.96 22.572 385.577C24.0046 388.795 24.8949 391.496 25.5057 394.477C26.2207 397.965 28.1228 401.119 28.9902 400.255C29.913 399.334 27.7342 391.703 25.1919 386.951C23.3696 383.544 22.4107 381.208 20.8338 376.332C19.7967 373.124 19.7889 373.112 19.9624 374.939ZM101.337 388.964C100.336 389.749 100.041 390.597 100.483 391.421C101.315 392.971 103.407 391.492 103.212 389.492C103.095 388.286 102.437 388.101 101.337 388.964ZM43.9191 399.977C43.2297 400.851 43.2338 401.411 43.9491 404.146C44.3426 405.651 48.5551 403.782 48.5551 402.103C48.5551 400.101 45.0793 398.507 43.9191 399.977Z" fill="white"/>
<path opacity="0.2" fill-rule="evenodd" clip-rule="evenodd" d="M539.104 -29.7766C534.331 -28.7757 529.838 -25.9723 524.597 -20.7251C520.809 -16.9328 519.339 -14.7743 522.686 -17.9189C535.977 -30.4071 543.04 -30.6477 557.672 -19.1107C561.634 -15.9875 565.27 -13.8255 567.249 -13.4161C568.052 -13.25 567.892 -13.4081 566.554 -14.1035C564.484 -15.18 562.752 -16.5413 558.564 -20.3857C550.281 -27.9889 544.312 -30.869 539.104 -29.7766ZM584.102 -18.5883C582.282 -18.1875 580.717 -17.5139 578.964 -16.3787L578.169 -15.8639L579.202 -15.24C580.58 -14.4076 580.828 -13.869 581.679 -9.87376C582.526 -5.89506 583.021 -4.21919 583.347 -4.22644C584.485 -4.25096 589.064 -12.5705 589.603 -15.5926C590.227 -19.0962 589.127 -19.6955 584.102 -18.5883ZM573.078 -15.6347C569.365 -14.7249 569.22 -12.961 572.751 -11.6639C575.838 -10.5301 576.355 -8.50725 575.026 -2.75014C572.299 9.0686 577.243 27.5421 583.133 27.5421C583.893 27.5421 584.131 27.3481 584.297 26.5927C584.412 26.0706 584.962 24.2801 585.52 22.6143C586.732 18.9953 586.78 17.2898 585.805 12.6126C584.926 8.39984 585.078 7.07544 586.755 4.33309C588.251 1.88524 588.243 1.86073 585.128 -0.609215C582.159 -2.96281 581.536 -4.14945 580.964 -8.53694C580.159 -14.7166 577.842 -16.802 573.078 -15.6347ZM469.879 -13.8984C465.362 -12.8322 466.149 -6.69604 472.316 5.10059C480.264 20.3052 487.063 23.8434 501.403 20.2379C507.412 18.7271 512.114 19.4752 514.736 22.3598C519.901 28.0403 524.349 41.4862 525.379 54.5306C526.112 63.8214 527.763 65.6198 533.15 62.9976C537.675 60.7952 538.221 60.8401 541.45 63.6823C542.459 64.5696 543.065 64.8295 544.127 64.8295C545.991 64.8295 547.141 65.4134 547.641 66.6145C548.52 68.7216 550.971 69.2909 552.723 67.7939L553.698 66.9608L553.731 61.3204C553.766 55.3558 553.938 54.3552 555.627 50.2864C560.705 38.0537 560.173 31.8671 553.248 22.6309C550.306 18.7081 549.731 17.6012 548.349 13.2141C547.75 11.3152 546.723 8.36324 546.066 6.65424C545.409 4.94523 544.3 1.68568 543.603 -0.588848C540.29 -11.3918 536.916 -14.0244 530.964 -10.451C527.393 -8.307 524.28 -8.88047 522.144 -12.0758C520.274 -14.873 518.452 -13.6098 515.418 -7.41245C511.098 1.41363 506.322 2.21082 497.253 -4.37939C488.256 -10.9171 475.718 -15.277 469.879 -13.8984ZM476.906 -7.88303C482.255 -5.35957 488.637 2.87543 494.317 14.5823C496.762 19.6227 496.747 19.3803 494.653 19.904C484.37 22.4769 475.728 11.8634 472.407 -7.41486L472.184 -8.70957L473.676 -8.70612C474.521 -8.70439 475.922 -8.34705 476.906 -7.88303ZM585.839 2.89856C585.839 3.37812 585.751 3.39228 585.231 2.99627C584.897 2.74216 584.558 2.49013 584.478 2.43627C584.398 2.38241 584.672 2.33856 585.086 2.33856C585.549 2.33856 585.839 2.55434 585.839 2.89856ZM583.191 6.32935C583.67 6.44881 584.227 6.44501 584.429 6.32107C584.631 6.19712 584.797 6.24131 584.797 6.41947C584.797 7.93099 581.183 7.71037 581.037 6.18987C580.856 4.30927 581.284 3.68125 581.847 5.00219C582.14 5.68959 582.652 6.19505 583.191 6.32935ZM536.179 4.94557C537.051 5.48072 535.644 8.43506 534.08 9.3524L533.119 9.91689L533.805 8.53829C534.556 7.03125 534.256 5.48624 533.064 4.72461C532.462 4.33965 535.549 4.55854 536.179 4.94557ZM529.98 6.76437C529.858 8.03353 529.962 8.56936 530.42 9.02475C531.351 9.94934 530.867 9.99975 529.195 9.15215C527.228 8.1554 527.169 7.83362 528.672 6.33936C530.228 4.79332 530.173 4.77536 529.98 6.76437ZM588.619 29.2066C594.642 30.8113 598.227 34.4455 600.433 41.1796C601.673 44.966 602.593 46.4658 605.818 49.9612C614.42 59.2841 611.186 61.8355 591.018 61.6366L582.191 61.5496L579.063 62.6382C577.343 63.2369 573.278 64.8896 570.029 66.3107C561.687 69.9597 559.772 70.3595 557.346 68.9581L556.13 68.2555L557.079 69.1096C559.222 71.0389 562.15 70.6301 571.809 67.0533C582.093 63.2445 584.314 62.9037 593.166 63.7765C611.002 65.5356 617.169 58.982 607.328 48.7245C604.057 45.3151 603.63 44.713 602.582 42.0428C599.332 33.7577 594.679 29.5011 588.098 28.7919C586.384 28.6072 586.391 28.6127 588.619 29.2066ZM515.558 31.7715C514.339 32.6909 513.867 35.5081 514.734 36.6865C515.195 37.3124 515.238 37.309 516.173 36.5784C518.034 35.1242 518.65 37.1674 519.172 46.5311C519.683 55.662 519.602 57.0838 518.455 59.1328C515.179 64.9904 512.442 68.9287 509.307 72.295C504.483 77.4769 503.56 79.3278 502.839 85.2717C502.419 88.7328 501.653 90.2026 499.318 92.0238C495.298 95.1597 494.712 95.6852 494.073 96.7279C492.823 98.7639 493.156 100.3 495.277 102.276C498.068 104.878 498.348 105.631 498.617 111.266C498.939 118.007 499.578 119.068 504.752 121.45C509.403 123.591 511.543 126.365 512.652 131.691C513.965 137.996 519.472 138.924 519.472 132.84C519.472 130.828 519.842 130.498 522.26 130.362C524.067 130.26 524.167 130.205 524.338 129.221C524.472 128.445 524.841 128.034 525.816 127.578C528.115 126.503 527.19 122.832 524.621 122.832C522.686 122.832 521.68 120.222 523.167 119.06C525.476 117.255 527.294 118.383 529.676 123.098C530.705 125.136 531.964 127.592 532.474 128.557C533.145 129.827 533.451 131.019 533.581 132.873C533.829 136.385 533.936 136.781 534.965 137.997C537.525 141.019 541.19 136.64 540.539 131.337C540.419 130.362 540.231 128.866 540.122 128.011C539.94 126.594 540.058 126.254 541.464 124.148C544.245 119.98 544.025 116.433 540.525 109.022C537.818 103.29 537.983 103.778 537.356 99.6301C536.833 96.1703 536.587 95.5019 534.334 91.4141C533.623 90.1235 532.845 87.9961 532.504 86.4079C531.828 83.262 530.844 81.1183 528.703 78.1322C524.349 72.0602 523.67 69.1097 522.942 53.0916C522.518 43.7501 521.768 40.108 519.212 34.9651C517.771 32.0639 516.566 31.0109 515.558 31.7715ZM508.299 39.8849C497.236 53.6761 491.353 70.4513 492.164 85.89C492.495 92.1723 492.983 93.6955 493.028 88.5834C493.162 73.3974 499.26 54.753 508.9 40.0586C511.236 36.4973 511.058 36.4459 508.299 39.8849ZM568.333 39.2725C564.372 40.5306 563.71 47.0893 567.309 49.4174C568.983 50.5005 572.738 51.6215 576.065 52.031C577.474 52.2043 578.795 52.514 579.001 52.7187C579.572 53.2853 579.999 53.1634 579.812 52.4867C579.72 52.1546 579.542 51.279 579.417 50.5415C579.256 49.6004 578.691 48.6734 577.523 47.4343C575.498 45.2864 575.206 44.7534 574.884 42.6152C574.428 39.5973 571.698 38.2039 568.333 39.2725ZM593.533 39.81C590.742 42.1436 591.337 45.486 595.373 50.1414L596.558 51.5079L596.364 49.3839C596.196 47.5399 596.291 47.0307 597.085 45.5209C599.363 41.1924 596.803 37.0763 593.533 39.81ZM502.683 61.0224C501.319 62.2122 499.885 65.1941 498.781 69.1355C498.355 70.6598 497.672 72.7365 497.265 73.7499C496.852 74.7773 496.365 77.1358 496.165 79.0795C495.966 80.9971 495.749 82.655 495.682 82.7631C495.136 83.6417 493.787 89.8542 494.08 90.1449C494.733 90.7937 495.928 89.8639 497.202 87.7171C497.888 86.5615 498.89 84.9074 499.429 84.0415C500.418 82.4523 501.022 79.6865 501.061 76.5682C501.089 74.3285 501.688 73.5258 504.935 71.378C508.674 68.9046 510.09 66.9532 510.09 64.2726C510.09 61.9964 509.799 61.9605 508.109 64.0279C505.477 67.2473 503.55 68.3007 502.251 67.2294C501.312 66.4546 501.836 65.4058 503.824 64.0859C505.86 62.7342 506.646 61.3832 505.91 60.5021C505.242 59.7018 503.96 59.9083 502.683 61.0224ZM597.14 66.9981C595.91 69.0989 594.043 71.1056 591.941 72.5839C588.547 74.9703 587.917 75.2055 585.679 74.9199L583.716 74.6693L585.152 72.7704C587.535 69.6196 587.39 69.5233 584.55 72.3671C574.839 82.0884 562.248 85.4816 551.657 81.2308C550.504 80.7685 549.512 80.4395 549.451 80.5003C549.231 80.7185 553.753 82.5901 556.253 83.3162L558.809 84.0578L556.34 84.286C545.239 85.311 539.702 95.5589 543.162 108.677C543.644 110.506 543.657 110.376 543.509 105.144C543.129 91.7728 548.057 85.1995 558.458 85.1995H559.883L558.397 86.1914C555.043 88.4294 554.076 91.3875 555.084 96.3233C555.835 99.9975 555.461 101.399 553.007 104.111C552.176 105.029 550.916 106.781 550.205 108.005C549.495 109.229 547.996 111.09 546.875 112.141C544.292 114.563 544.105 116.307 545.954 120.699C547.443 124.235 547.411 125.355 545.749 127.843C543.808 130.746 543.833 132.24 545.88 135.604L547.443 138.174L547.558 142.587C547.621 145.014 547.814 147 547.987 147C548.806 147 550.157 144.029 551.142 140.059C552.727 133.675 553.509 132.504 557.457 130.6C559.571 129.581 559.616 129.529 560.329 127.321C560.847 125.717 561.528 124.556 562.716 123.254C564.246 121.577 564.399 121.246 564.635 119.107C565.016 115.664 566.892 112.475 568.538 112.475C569.22 112.475 569.62 113.193 570.188 115.436C570.641 117.224 571.376 117.586 574.844 117.73C577.853 117.855 579.237 118.761 579.237 120.607C579.237 124.129 584.751 123.236 592.118 118.521C596.802 115.523 597.424 118.036 593.257 123.123C591.338 125.465 591.354 125.655 593.661 127.856C594.857 128.998 595.655 130.08 595.788 130.741C596.1 132.292 596.487 131.762 596.754 129.415C596.883 128.28 597.37 126.237 597.836 124.876C599.004 121.465 600.78 108.042 600.78 102.63C600.78 97.6214 598.322 89.4268 596.08 86.961C595.428 86.2436 594.046 83.9611 593.009 81.8892C591.972 79.817 590.727 77.548 590.243 76.8468L589.361 75.5714L591.162 74.5605C593.512 73.241 596.089 70.4686 597.192 68.0763C598.174 65.9444 598.142 65.2849 597.14 66.9981ZM493.439 106.116C493.455 106.518 493.538 106.6 493.648 106.325C493.749 106.076 493.736 105.778 493.621 105.663C493.506 105.548 493.424 105.752 493.439 106.116ZM493.934 108.843C494.305 112.739 495.558 117.828 496.868 120.761C498.478 124.366 499.479 127.392 500.165 130.731C500.969 134.639 503.107 138.172 504.082 137.203C505.119 136.172 502.67 127.623 499.813 122.299C497.764 118.483 496.686 115.866 494.914 110.403C493.748 106.809 493.74 106.796 493.934 108.843ZM585.402 124.554C584.276 125.434 583.945 126.385 584.442 127.307C585.377 129.043 587.729 127.386 587.51 125.146C587.378 123.795 586.639 123.588 585.402 124.554ZM520.863 136.892C520.088 137.871 520.092 138.498 520.896 141.562C521.339 143.248 526.074 141.155 526.074 139.273C526.074 137.03 522.167 135.245 520.863 136.892Z" fill="white"/>
<path opacity="0.2" fill-rule="evenodd" clip-rule="evenodd" d="M789.742 84.8868C790.066 85.6841 790.246 86.5349 790.141 86.7772C790.036 87.0194 790.461 87.5874 791.087 88.0386C798.145 93.1324 798.679 99.5418 793.427 116.097C788.656 131.134 788.603 131.253 786.27 131.954C785.244 132.261 784.342 132.656 784.266 132.831C784.191 133.006 783.356 133.688 782.412 134.346C780.274 135.838 780.266 134.893 782.376 129.823L783.708 126.622L784.411 128.668C785.118 130.727 786.647 131.086 787.389 129.367C787.936 128.101 795.065 105.355 795.341 103.997C796.641 97.5818 791.791 87.7806 788.141 89.4467C786.103 90.377 761.556 79.6968 761.204 77.7265C760.554 74.09 750.147 77.0603 746.192 82.0105C745.325 83.0964 733.511 103.845 732.71 105.689C731.964 107.406 733.271 108.275 735.257 107.382L737.23 106.495L735.807 109.657C733.553 114.664 732.859 115.306 732.484 112.725C732.318 111.586 732.245 110.511 732.32 110.336C732.396 110.161 732.067 109.234 731.589 108.275C730.5 106.086 730.592 105.864 738.326 92.1038C746.806 77.0166 751.806 73.0589 760.299 74.7117C761.044 74.8565 761.936 74.649 762.283 74.2506C763.635 72.6954 764.281 72.8712 776.894 78.2292C788.972 83.3602 789.161 83.4579 789.742 84.8868ZM775.048 112.882C789.788 120.88 791.164 126.397 777.708 123.545C771.226 122.171 749.012 112.549 743.557 108.753C725.526 96.2034 750.296 99.451 775.048 112.882ZM754.068 105.389C743.203 101.685 738.2 101.452 742.373 104.844C751.249 112.058 782.322 124.344 784.049 121.322C785.137 119.419 767.088 109.828 754.068 105.389ZM782.161 128.975C779.436 135.327 779.267 139.275 781.574 142.713C782.433 143.993 783.147 145.665 783.161 146.43C783.209 149.014 753.051 217.957 751.194 219.509C740.124 228.763 692.556 208.163 691.731 193.759C691.593 191.342 721.241 122.179 723.159 120.446C723.726 119.933 725.434 119.31 726.955 119.06C731.041 118.391 733.805 115.566 736.573 109.233C737.996 105.974 738.065 105.898 738.941 106.606C747.401 113.446 771.68 123.959 782.457 125.451C783.573 125.605 783.564 125.707 782.161 128.975Z" fill="white"/>
<g opacity="0.2">
<path d="M295.839 100.919L283.627 96.9161L295.055 104.64L295.839 100.919Z" fill="white"/>
<path d="M259.916 88.9567C256.538 87.4658 253.16 85.976 249.782 84.4875C248.812 84.0591 245.146 81.7774 243.931 82.5063C243.851 82.5544 243.78 82.6176 243.723 82.6924C242.902 83.7858 247.569 89.9828 248.026 91.5089C248.747 93.9147 248.601 96.4796 248.449 98.9849L246.776 126.438C247.811 123.457 261.473 89.6442 259.916 88.9567Z" fill="white"/>
<path d="M211.288 191.77C205.963 184.764 208.846 176.698 208.846 176.698L204.154 189.678C205.998 191.696 207.916 193.486 209.748 195.519C211.243 197.18 212.986 198.298 214.464 199.971C215.705 201.375 217.112 203.703 219.005 204.264C221.149 204.895 223.702 194.296 224.43 192.259C224.641 191.668 221.839 197.321 220.092 198.917C218.345 200.512 216.615 198.777 211.288 191.77Z" fill="white"/>
<path d="M274.583 173.906C272.433 179.557 268.912 184.805 265.901 190.092C266.945 189.877 267.989 189.66 269.033 189.442C270.975 184.287 272.887 179.125 274.583 173.906Z" fill="white"/>
<path d="M260.275 212.302C260.88 211.813 261.296 211.128 261.452 210.365C263.37 204.469 265.56 198.643 267.76 192.82C266.412 193.101 265.062 193.376 263.711 193.645C263.394 194.057 263.027 194.428 262.62 194.752C261.403 195.562 260.026 196.099 258.583 196.328C249.584 198.336 240.333 198.883 231.128 199.424C229.213 199.537 226.225 198.836 225.665 196.698C225.015 198.333 224.57 200.047 223.904 201.679C223.346 203.048 222.462 204.686 222.967 206.2C223.662 208.276 228.347 208.353 230.099 208.684C233.203 209.276 236.318 209.806 239.443 210.274C245.663 211.215 251.914 211.948 258.174 212.558C258.884 212.703 259.621 212.613 260.275 212.302Z" fill="white"/>
<path d="M202.667 190.571C206.058 181.218 209.416 171.855 212.741 162.48L217.771 148.337L222.742 134.173L227.703 120.006L232.611 105.82C235.882 96.3624 239.11 86.8894 242.294 77.4004C238.813 86.7847 235.381 96.1855 231.996 105.603L226.913 119.727L221.884 133.87L216.865 148.017L211.905 162.185C208.581 171.624 205.299 181.077 202.058 190.546L201.996 190.719L202.124 190.846L211.015 199.662L219.939 208.442L211.257 199.423L202.667 190.571Z" fill="white"/>
<path d="M302.633 101.857L294.772 98.7343L296.094 99.1889L290.293 89.1391L293.41 86.373C293.493 86.3133 293.57 86.2531 293.657 86.1943C293.834 86.0504 293.998 85.8913 294.148 85.7188L294.34 85.5454L294.301 85.5067C294.355 85.434 294.416 85.368 294.462 85.2893C295.12 84.0737 295.314 82.6603 295.007 81.3123C294.617 79.406 293.876 77.5889 292.822 75.9532C292.446 75.3675 292.135 74.9133 291.902 74.6213C291.67 74.3293 291.557 74.1638 291.557 74.1638L291.892 74.6292C292.117 74.9265 292.415 75.3866 292.776 75.9786C293.207 76.6953 293.572 77.4499 293.866 78.233C294.259 79.2347 294.504 80.2886 294.593 81.3613C294.755 82.5692 294.46 83.7944 293.765 84.7954C293.742 84.8263 293.708 84.8525 293.681 84.8828L293.655 84.8551L293.333 85.2087C293.26 85.2642 293.186 85.3242 293.122 85.3657C292.976 85.4549 292.824 85.5339 292.667 85.6021L292.276 85.7167C291.646 85.8348 290.998 85.8048 290.383 85.6291C289.711 85.4593 289.066 85.1957 288.468 84.8461C287.83 84.4982 287.225 84.0945 286.659 83.6396C285.496 82.7034 284.447 81.6347 283.533 80.4551C283.302 80.1367 283.041 79.8145 282.828 79.5051C282.628 79.194 282.408 78.9099 282.224 78.5776C281.837 77.9396 281.486 77.2807 281.172 76.604C280.867 75.9451 280.623 75.26 280.443 74.5571C280.249 73.892 280.15 73.2031 280.148 72.5104C280.117 71.1707 280.64 69.9341 281.79 69.4332C282.925 69.0077 284.178 69.0203 285.305 69.4684C286.324 69.8138 287.287 70.3068 288.163 70.9316C288.851 71.4065 289.495 71.9435 290.086 72.5357C290.572 73.035 290.946 73.4332 291.18 73.7239L291.549 74.1611L291.188 73.7149C290.96 73.418 290.595 73.008 290.12 72.499C288.789 71.0784 287.207 69.9167 285.453 69.073C284.215 68.444 282.79 68.2898 281.446 68.6395C281.125 68.7472 280.821 68.9002 280.544 69.0937L280.533 69.0787L280.404 69.1812L280.398 69.1867L280.187 69.3547L263.46 63.8811L269.134 66.0845L268.037 65.6924L275.111 69.8575L276.308 72.108L277.7 71.3513L274.329 74.0412L279.057 71.1387C278.916 71.5568 278.822 71.9892 278.776 72.428C278.657 73.7718 278.814 75.1258 279.238 76.4067L273.771 80.6696C273.668 80.3811 273.57 80.0933 273.488 79.8102C273.306 79.172 273.191 78.5163 273.146 77.8541C273.108 77.2957 273.131 76.7349 273.215 76.1815C273.299 75.7565 273.441 75.3451 273.637 74.9589C273.772 74.7106 273.936 74.4793 274.126 74.2701L274.331 74.0416L274.091 74.2313C273.856 74.4082 273.649 74.6194 273.476 74.8578C273.216 75.2395 273.009 75.6553 272.863 76.0934C272.689 76.6685 272.6 77.2659 272.598 77.8667C272.591 78.5743 272.658 79.2807 272.799 79.9741C272.95 80.7459 273.174 81.5017 273.468 82.2311C273.772 83.0131 274.138 83.7694 274.564 84.4927C274.999 85.2341 275.479 85.949 275.999 86.6334C276.15 86.8174 276.301 86.9888 276.452 87.1655C276.244 86.9988 276.047 86.851 275.833 86.6723L281.804 93.5859L263.802 86.4338L259.229 66.7182L259.048 65.738L262.19 56.6697L300.27 69.7868L298.044 76.2481L298.017 76.3255L298.03 76.3992L298.033 76.4193L291.328 73.8405L292.803 75.8233L298.034 76.4228L302.629 101.858L298.638 76.381L301.123 69.6782L301.255 69.3218L300.89 69.1867L261.946 54.7513L261.142 54.4531L260.838 55.2757L257.472 64.408L242.296 77.402L247.802 73.1086L242.602 77.3382C242.933 77.0913 249.763 75.7489 254.248 74.8871L248.248 77.1327L244.641 78.2488L244.919 78.3814L244.308 78.6096L244.968 78.4045L254.51 82.9514L242.03 78.2741L260.884 88.2047L219.94 208.447L264.444 89.6804L302.633 101.857ZM289.161 86.7715C289.482 86.8616 289.809 86.9324 290.139 86.9834C290.67 87.058 291.207 87.0591 291.738 86.9866L289.382 89.6016L287.374 91.5242C287.374 91.5242 286.494 92.1098 284.444 91.6531L289.161 86.7715Z" fill="white"/>
<path d="M292.635 130.402C296.024 120.907 299.308 111.373 302.637 101.856C299.106 111.3 295.532 120.728 292.062 130.194C288.56 139.648 285.088 149.114 281.646 158.589C278.203 168.065 274.725 177.528 271.335 187.023L261.233 215.195L240.756 211.792L219.946 208.442L240.673 212.272L261.419 215.998L261.732 216.054L261.84 215.752L272.208 187.339C275.676 177.872 279.057 168.374 282.472 158.889C285.888 149.403 289.278 139.908 292.635 130.402Z" fill="white"/>
</g>
<g opacity="0.2">
<path d="M559.799 297.374C557.808 296.627 555.594 297.181 553.535 297.713C551.477 298.245 549.231 298.737 547.283 297.884C545.971 297.309 544.88 295.762 544.998 294.294C545.143 292.501 546.534 292.256 547.754 291.356C548.275 290.972 548.693 290.396 548.731 289.75C548.768 289.103 548.335 288.416 547.697 288.309C547.294 288.27 546.89 288.37 546.552 288.591C545.801 289.018 545.194 289.658 544.806 290.429C544.56 290.924 544.316 291.544 543.77 291.637C542.776 291.805 541.063 290.57 540.612 289.768C539.956 288.602 539.805 286.902 540.009 285.599C540.422 282.961 542.636 280.408 544.221 278.367C544.604 277.875 544.995 277.366 545.161 276.765C545.328 276.165 545.217 275.443 544.73 275.054C544.07 274.529 543.084 274.829 542.378 275.291C539.657 277.07 538.043 281.024 538.262 284.393L538.207 284.065C538.314 284.657 538.316 285.263 538.213 285.855C538.013 286.785 536.935 287.825 535.91 287.505C534.719 287.133 534.34 285.121 534.284 284.109C534.216 282.893 534.185 281.52 533.289 280.694C533.059 280.468 532.761 280.326 532.441 280.289C531.545 280.224 530.944 281.324 531.121 282.205C531.483 284.006 533.064 284.547 532.63 286.628C532.569 286.923 532.429 287.255 532.136 287.324C531.691 287.429 531.298 286.845 530.855 286.954C530.896 287.087 530.907 287.226 530.888 287.364C530.869 287.501 530.821 287.633 530.746 287.75C530.672 287.866 530.572 287.966 530.456 288.04C530.339 288.115 530.207 288.164 530.07 288.183C527.892 288.355 527.667 284.901 527.529 283.55C526.924 277.732 524.556 272.238 520.742 267.804C519.566 266.442 518.183 265.147 516.452 264.666C514.72 264.185 512.579 264.768 511.783 266.381C510.789 268.393 512.234 270.736 513.782 272.36C518.269 277.072 524.407 280.619 526.799 286.67C527.116 287.471 527.507 288.781 527.297 289.639C527.187 290.089 526.84 290.515 526.38 290.567C525.748 290.639 525.276 290.04 524.754 289.677C523.452 288.772 521.59 289.363 520.417 290.429C520.036 290.776 519.686 291.372 520.023 291.76C520.222 291.989 520.565 292.011 520.868 292.012C522.069 292.017 523.269 291.977 524.469 291.892C525.299 291.833 528.24 292.345 527.421 293.952C527.204 294.379 526.621 294.404 526.145 294.455C525.668 294.506 525.082 294.817 525.187 295.284C525.26 295.489 525.398 295.663 525.581 295.779C525.917 296.048 526.282 296.397 526.238 296.825C526.059 298.572 523.689 299.376 522.244 299.07C520.936 298.793 519.788 298.034 518.539 297.56C517.159 297.052 515.674 296.891 514.217 297.091C512.76 297.291 511.374 297.846 510.182 298.708C509.553 299.171 508.964 299.756 508.748 300.506C508.531 301.257 508.807 302.191 509.521 302.509C509.758 302.603 510.01 302.655 510.266 302.663C512.278 302.81 514.257 302.177 516.174 301.551C518.092 300.924 520.07 300.289 522.082 300.43C522.864 300.485 523.94 300.174 524.185 301.248C524.321 301.846 524.007 302.474 523.552 302.885C523.096 303.296 522.517 303.537 521.956 303.786C520.582 304.393 519.249 305.088 517.963 305.866C517.791 305.97 517.602 306.103 517.583 306.304C517.56 306.556 517.847 306.746 518.099 306.725C518.349 306.677 518.58 306.56 518.766 306.387C520.248 305.247 522.678 302.985 524.62 302.848C525.302 302.8 526.315 302.951 526.277 303.844C526.243 304.663 524.217 305.422 523.617 305.772C523.192 306.018 522.701 306.418 522.839 306.889C522.953 307.279 523.477 307.42 523.851 307.261C524.225 307.103 524.472 306.744 524.67 306.39C525.066 305.703 525.611 305.112 526.263 304.661C527.53 303.774 527.526 305.556 527.356 306.292C527.068 307.539 526.185 308.623 525.39 309.588C524.401 310.786 523.297 311.916 522.585 313.297C522.208 314.027 521.957 314.936 522.365 315.65C522.425 315.771 522.522 315.87 522.641 315.934C522.802 315.991 522.979 315.987 523.138 315.924C524.01 315.653 524.623 314.883 525.121 314.118C526.25 312.383 529.462 304.533 532.563 307.826C532.979 308.268 533.223 308.842 533.432 309.411C533.508 309.671 533.632 309.914 533.799 310.127C533.884 310.232 533.999 310.308 534.129 310.347C534.259 310.385 534.397 310.384 534.526 310.343C534.788 310.231 534.898 309.926 534.98 309.653C535.171 309.017 535.362 308.382 535.553 307.746C535.701 307.253 535.919 306.687 536.414 306.546C536.643 306.701 536.83 306.912 536.958 307.157C537.36 306.967 537.494 306.467 537.546 306.025C537.597 305.583 537.629 305.093 537.945 304.781C538.529 304.202 539.565 305.241 539.908 305.665C541.003 307.018 541.054 308.922 540.908 310.657C540.761 312.392 540.477 314.193 541.063 315.832C541.388 316.742 542.104 317.628 543.067 317.692C543.792 317.74 544.469 317.304 544.96 316.769C547.573 313.911 545.662 309.767 544.849 306.592C544.718 306.173 544.656 305.735 544.666 305.297C544.673 305.077 544.733 304.862 544.842 304.671C544.95 304.48 545.103 304.318 545.288 304.199C545.456 304.136 545.612 304.044 545.747 303.927C546.018 303.612 545.729 303.14 545.448 302.834L544.182 301.453C543.925 301.172 543.658 300.748 543.894 300.449C544.03 300.278 544.274 300.244 544.492 300.232C546.305 300.12 548.124 300.468 549.835 301.05C552.536 301.967 555.175 303.248 558.042 303.56C559.408 303.709 560.968 303.519 561.829 302.449C563.162 300.791 561.789 298.12 559.799 297.374ZM543.404 275.276C545.862 274.754 543.582 277.335 542.352 277.7C542.005 277.803 542.321 275.505 543.404 275.276ZM520.232 269.145C519.959 269.346 519.564 269.279 519.277 269.098C519.006 268.894 518.756 268.665 518.529 268.413C518.301 268.206 518.038 268.041 517.752 267.926C516.512 267.41 514.726 267.565 514.279 268.876C514.24 269.047 514.183 269.214 514.108 269.372C513.909 269.696 513.426 269.755 513.096 269.566C512.938 269.461 512.803 269.324 512.7 269.164C512.596 269.004 512.528 268.825 512.497 268.637C512.239 267.437 513.03 266.159 514.156 265.67C515.503 265.084 516.96 265.407 518.169 266.154C518.69 266.475 521.242 268.401 520.232 269.145ZM520.731 271.205C520.691 271.131 520.679 271.045 520.696 270.963C520.713 270.88 520.76 270.807 520.826 270.755C521.009 270.592 521.244 270.499 521.489 270.493C521.639 270.501 521.781 270.564 521.887 270.67L521.79 270.608C522.294 271.23 522.537 272.024 522.468 272.822C521.708 272.518 521.088 271.942 520.731 271.205L520.731 271.205ZM520.701 291.619C520.65 291.632 520.597 291.633 520.546 291.624C520.494 291.615 520.446 291.595 520.402 291.565C520.374 291.543 520.349 291.517 520.329 291.487C520.281 291.409 520.254 291.319 520.249 291.228C520.244 291.136 520.262 291.044 520.302 290.961C520.44 290.698 521.973 289.91 522.238 290.824L522.323 291.118C522.435 291.495 520.866 291.598 520.701 291.619L520.701 291.619ZM511.353 300.772C510.213 301.011 509.892 300.291 510.391 299.387C510.834 298.584 512.434 298.015 513.247 297.76C515.453 297.068 517.983 297.318 519.935 298.589C518.035 297.351 513.311 300.362 511.353 300.772ZM523.844 313.705C523.741 314.372 523.692 315.205 523.073 315.473C522.94 314.938 522.946 314.377 523.091 313.845C523.236 313.313 523.516 312.827 523.902 312.433L523.56 312.346C524.331 311.499 525.102 310.652 525.874 309.805C524.986 310.991 524.071 312.242 523.844 313.705ZM543.332 315.83C543.841 315.521 544.132 314.953 544.337 314.394C544.965 312.684 545.029 310.838 544.906 309.007C544.854 308.829 544.799 308.651 544.735 308.477L544.772 307.514C544.827 308.008 544.872 308.507 544.906 309.007C545.318 310.439 545.338 311.969 545.328 313.467C545.323 314.177 545.31 314.904 545.059 315.569C544.808 316.233 544.267 316.832 543.568 316.955C543.356 316.983 543.142 316.968 542.936 316.912C542.73 316.856 542.537 316.76 542.368 316.629C542.2 316.498 542.059 316.335 541.954 316.15C541.849 315.964 541.782 315.759 541.756 315.547C542.047 316.068 542.823 316.139 543.332 315.83ZM527.94 295.497C527.729 296.046 526.855 295.847 526.733 295.323C526.703 295.168 526.732 295.007 526.815 294.872C526.898 294.738 527.029 294.64 527.181 294.598C527.648 294.486 528.113 295.046 527.94 295.497ZM541.653 300.437C540.738 301.135 539.863 301.932 538.78 302.322C537.698 302.712 536.315 302.571 535.637 301.641C535.046 300.83 535.162 299.72 534.877 298.759C534.382 297.095 532.647 296.011 530.916 295.877C530.344 295.832 529.619 295.773 529.438 295.23C529.249 294.661 529.773 293.954 529.856 293.396C529.941 292.83 529.775 292.429 530.01 291.693C530.112 291.344 530.096 290.972 529.963 290.634C529.831 290.295 529.59 290.011 529.278 289.824C529.883 289.847 530.484 289.71 531.02 289.429C531.556 289.147 532.009 288.73 532.334 288.219C532.828 288.343 533.348 288.309 533.822 288.122C534.296 287.936 534.7 287.606 534.978 287.178C535.412 287.866 536.068 288.384 536.837 288.647C537.606 288.911 538.442 288.904 539.206 288.627C540.009 290.9 542.413 292.498 544.819 292.356C542.556 294.541 545.431 298.774 548.225 298.675C545.761 298.763 543.694 298.878 541.653 300.437ZM560.555 301.702C560.045 301.895 559.502 301.982 558.958 301.96C556.205 301.979 553.497 301.256 551.12 299.867C550.652 299.594 550.172 299.288 549.647 299.197L550.796 299.319C551.698 299.334 552.54 298.91 553.362 298.539C554.651 297.954 556.021 297.468 557.437 297.465C558.852 297.462 560.329 298.01 561.159 299.156C561.445 299.551 561.653 300.038 561.574 300.519C561.486 301.054 561.053 301.485 560.555 301.702Z" fill="white"/>
</g>
<g opacity="0.2">
<path d="M449.336 305.769C449.762 305.682 450.246 305.554 450.785 305.402C452.074 305.037 453.33 304.564 454.539 303.986C456.09 303.237 457.558 302.328 458.92 301.273C460.509 300.02 461.942 298.581 463.191 296.988C463.536 296.578 463.83 296.117 464.16 295.676L465.047 294.243L465.278 293.871L465.461 293.499C465.585 293.252 465.711 293.004 465.837 292.755C466.102 292.25 466.335 291.729 466.534 291.195C467.399 288.953 467.99 286.614 468.293 284.23C468.646 281.777 468.792 279.227 468.963 276.649C469.122 274.052 469.42 271.466 469.854 268.901C470.076 267.62 470.381 266.354 470.765 265.112C470.816 264.962 470.856 264.821 470.916 264.665L471.107 264.185C471.229 263.859 471.372 263.562 471.517 263.269C471.652 262.97 471.814 262.686 471.974 262.405C472.127 262.118 472.303 261.848 472.478 261.579C473.834 259.552 475.562 257.799 477.569 256.413C479.325 255.18 481.234 254.182 483.249 253.445C484.932 252.813 486.68 252.37 488.461 252.124C489.825 251.925 491.206 251.864 492.582 251.944C493.462 251.999 494.336 252.12 495.197 252.307L496.098 252.535L495.178 252.425C494.313 252.355 493.444 252.339 492.577 252.376C489.511 252.561 486.507 253.313 483.715 254.594C481.871 255.428 480.13 256.473 478.527 257.709C476.771 259.067 475.266 260.722 474.08 262.598C473.933 262.842 473.783 263.084 473.657 263.339C473.524 263.591 473.389 263.843 473.28 264.107C473.159 264.361 473.051 264.621 472.957 264.886L472.813 265.272C472.766 265.406 472.725 265.566 472.679 265.712L472.547 266.16L472.456 266.571L472.256 267.461C472.102 268.051 472.012 268.66 471.9 269.268C471.504 271.765 471.24 274.281 471.107 276.806C470.911 279.369 470.739 281.971 470.345 284.54C469.98 287.084 469.284 289.569 468.273 291.932C468.035 292.513 467.762 293.079 467.455 293.626C467.302 293.902 467.151 294.176 467 294.448L466.771 294.852L466.523 295.213C466.185 295.703 465.851 296.187 465.52 296.666C465.147 297.12 464.811 297.59 464.422 298.012C463.024 299.639 461.415 301.073 459.638 302.275C458.146 303.285 456.54 304.114 454.853 304.745C453.565 305.233 452.232 305.593 450.874 305.822L450.077 305.952C449.826 305.987 449.587 306.003 449.369 306.027C448.929 306.071 448.557 306.106 448.255 306.11L447.328 306.146L448.244 305.995C448.547 305.947 448.912 305.866 449.336 305.769Z" fill="white"/>
<path d="M424.121 213.704C424.339 213.449 424.571 213.205 424.815 212.974C425.756 212.02 426.795 211.168 427.916 210.432C429.016 209.69 430.199 209.078 431.441 208.609C432.657 208.131 433.928 207.811 435.225 207.657C436.488 207.491 437.767 207.499 439.028 207.679C439.341 207.71 439.652 207.764 439.958 207.838C440.266 207.908 440.584 207.974 440.879 208.051L441.698 208.313L441.902 208.377L442.004 208.409C442.025 208.415 442.045 208.423 442.065 208.433L442.091 208.444L442.143 208.466L442.559 208.646C442.835 208.768 443.113 208.88 443.381 209.009L444.153 209.453C444.279 209.528 444.409 209.598 444.532 209.677L444.884 209.937L445.578 210.456C446.42 211.176 447.158 212.009 447.772 212.93C448.827 214.531 449.553 216.324 449.91 218.207C449.983 218.565 450.039 218.913 450.087 219.253C450.326 219.137 450.586 219.067 450.851 219.047C451.332 219.025 451.814 219.085 452.275 219.225C453.398 219.584 454.472 220.079 455.475 220.699C456.628 221.371 457.874 222.2 459.201 223.139C461.856 225.015 464.833 227.34 468.047 229.786C469.656 231.007 471.323 232.26 473.056 233.473C473.922 234.078 474.808 234.673 475.71 235.236C476.165 235.528 476.632 235.769 477.097 236.036L477.795 236.428L478.517 236.775C480.436 237.701 482.438 238.447 484.496 239.002C486.536 239.564 488.579 239.976 490.557 240.407C492.471 240.785 494.353 241.309 496.186 241.977C496.623 242.138 497.036 242.345 497.452 242.524C497.868 242.702 498.248 242.95 498.637 243.156C499.008 243.372 499.367 243.608 499.713 243.863C500.056 244.098 500.382 244.358 500.687 244.641C501.828 245.597 502.7 246.835 503.214 248.233C503.584 249.316 503.68 250.475 503.493 251.604C503.377 252.327 503.161 253.031 502.854 253.696C502.841 253.724 502.831 253.743 502.818 253.77C502.766 254.127 502.602 254.459 502.35 254.717C502.217 254.844 502.059 254.942 501.886 255.005C501.713 255.067 501.529 255.094 501.345 255.082C501.018 255.062 500.695 254.991 500.39 254.871C499.864 254.664 499.357 254.409 498.876 254.111C498.005 253.584 497.344 253.133 496.866 252.871C496.63 252.724 496.373 252.611 496.104 252.536C496.376 252.604 496.636 252.709 496.878 252.85C497.364 253.098 498.039 253.53 498.923 254.03C499.405 254.311 499.912 254.548 500.437 254.738C500.729 254.843 501.037 254.902 501.347 254.913C501.506 254.92 501.665 254.893 501.814 254.835C501.963 254.777 502.097 254.689 502.21 254.576C502.691 254.086 502.692 253.284 502.48 252.55C502.382 252.194 502.2 251.804 502.058 251.419L501.762 250.881L501.611 250.609L501.425 250.351C500.459 248.934 498.91 247.81 497.124 246.998C495.218 246.18 493.221 245.597 491.174 245.26C489.048 244.883 486.802 244.588 484.542 244.257C482.717 243.993 480.864 243.722 479.011 243.387C477.221 243.558 475.401 243.406 473.595 243.407C469.631 243.417 465.705 244.189 462.032 245.684C460.201 246.428 458.569 247.195 457.234 248.607C457.021 248.834 456.795 249.06 456.567 249.283C454.789 248.285 453.127 247.094 451.61 245.731C447.035 241.511 445.007 239.108 445.007 239.108C445.454 238.635 445.873 238.136 446.261 237.614C448.594 234.463 448.756 231.392 450.08 227.89C450.08 227.89 450.539 226.676 450.913 225.682C450.641 225.313 450.391 224.955 450.165 224.611C450.14 224.884 450.115 225.126 450.083 225.317L449.953 226.249L449.793 226.225C449.215 228.5 448.376 230.702 447.295 232.786C446.84 233.669 446.335 234.526 445.784 235.353L445.569 235.677L445.515 235.759L445.442 235.861L445.328 236.013C445.177 236.216 445.025 236.421 444.871 236.628C444.555 237.039 444.167 237.483 443.796 237.894C443.017 238.72 442.169 239.479 441.261 240.162C440.316 240.86 439.32 241.486 438.281 242.035C436.125 243.134 433.876 244.04 431.56 244.743C429.229 245.487 426.852 246.143 424.515 246.89C422.194 247.597 419.94 248.51 417.781 249.618C416.738 250.174 415.739 250.808 414.792 251.516C413.876 252.211 413.022 252.983 412.239 253.825C411.865 254.263 411.471 254.689 411.122 255.127C410.79 255.575 410.435 255.997 410.13 256.454C409.516 257.338 408.962 258.26 408.47 259.216C407.569 260.975 406.894 262.841 406.46 264.769C406.095 266.404 405.909 268.073 405.906 269.749C405.897 271.043 405.989 272.336 406.181 273.617C406.36 274.679 406.524 275.511 406.683 276.066L406.901 276.925L406.659 276.072C406.648 276.035 406.636 275.988 406.624 275.949L406.641 276.56C406.654 276.965 406.697 277.56 406.784 278.309C406.802 278.463 406.826 278.628 406.849 278.795L406.715 276.533C406.715 276.533 406.811 276.834 407 277.345L406.902 276.924L407.147 277.468C407.313 277.819 407.531 278.352 407.851 278.997C408.181 279.638 408.557 280.414 409.072 281.27L409.455 281.936L409.902 282.618C410.208 283.082 410.511 283.58 410.882 284.065C411.236 284.56 411.605 285.074 412.03 285.575L412.65 286.355L413.327 287.13C414.233 288.185 415.289 289.207 416.368 290.272C418.711 292.432 421.182 294.45 423.766 296.315C424.424 296.801 425.079 297.291 425.746 297.763L426.243 298.12L426.735 298.466L427.741 299.161C429.057 300.033 430.376 300.901 431.697 301.638C434.085 303.018 436.626 304.114 439.269 304.903L440.127 305.146L440.957 305.337C441.495 305.48 442.015 305.561 442.504 305.655C443.483 305.814 444.348 305.939 445.065 305.992C445.782 306.065 446.349 306.089 446.737 306.106L447.333 306.141L446.743 306.23C446.38 306.279 445.851 306.371 445.182 306.412C445.167 306.417 445.156 306.422 445.139 306.427C444.583 306.622 444.016 306.785 443.441 306.916C441.371 307.37 439.243 307.507 437.132 307.321C435.715 307.194 434.314 306.932 432.947 306.539C431.421 306.101 429.937 305.527 428.515 304.823C426.996 304.075 425.528 303.228 424.121 302.286C422.697 301.332 421.284 300.317 419.89 299.266C418.508 298.202 417.151 297.099 415.881 295.929C414.635 294.785 413.466 293.559 412.382 292.26C411.364 291.044 410.455 289.74 409.664 288.365C408.949 287.135 408.344 285.845 407.854 284.509C407.655 283.884 407.434 283.322 407.278 282.72C407.123 282.141 407 281.586 406.902 281.062C406.732 280.159 406.624 279.245 406.578 278.327C406.548 277.738 406.551 277.148 406.585 276.559C406.611 276.173 406.626 275.964 406.627 275.945C406.464 275.394 406.289 274.618 406.094 273.629C405.866 272.347 405.739 271.049 405.713 269.747C405.669 268.054 405.811 266.36 406.135 264.697C406.522 262.723 407.158 260.806 408.026 258.992C408.502 258.001 409.043 257.042 409.646 256.122C409.946 255.645 410.304 255.193 410.636 254.72C410.761 254.555 410.891 254.397 411.022 254.237C410.398 254.984 410.046 255.481 410.046 255.481L409.416 253.872C409.245 253.624 409.108 253.354 409.009 253.069C408.841 252.574 408.852 252.035 409.04 251.547C409.152 251.26 409.291 250.984 409.455 250.723C409.544 250.45 409.652 250.184 409.778 249.926L412.194 246.931C412.912 245.856 413.538 244.721 414.063 243.54C414.47 242.615 414.791 241.654 415.023 240.67C415.246 239.608 415.402 238.533 415.489 237.452C415.742 235.212 416.054 232.848 416.529 230.424C417.002 227.921 417.68 225.461 418.555 223.068C419.484 220.58 420.727 218.221 422.254 216.047C422.632 215.481 423.054 215.002 423.452 214.475C423.675 214.189 423.896 213.962 424.121 213.704ZM428.937 303.974C430.3 304.684 431.718 305.284 433.177 305.768C434.488 306.193 435.833 306.506 437.196 306.704C438.357 306.853 439.525 306.927 440.695 306.926C441.6 306.922 442.504 306.849 443.398 306.71C443.988 306.616 444.471 306.519 444.844 306.435C444.036 306.494 443.226 306.507 442.416 306.475C441.265 306.441 440.118 306.319 438.986 306.109C438.357 306.017 437.719 305.846 437.047 305.702C436.389 305.517 435.702 305.33 435.018 305.086C433.569 304.603 432.159 304.011 430.801 303.314C429.346 302.584 427.932 301.772 426.567 300.884L425.549 300.203L425.029 299.849L424.518 299.493C423.836 299.024 423.158 298.537 422.483 298.048C422.152 297.799 421.827 297.543 421.498 297.29L420.963 298.724C422.194 299.656 423.444 300.569 424.703 301.425C426.064 302.355 427.478 303.206 428.937 303.974ZM456.619 229.409C457.806 230.648 459.146 231.946 460.638 233.233C462.191 234.59 463.831 235.845 465.546 236.991C467.373 238.21 469.32 239.239 471.356 240.062C473.477 240.905 475.663 241.577 477.891 242.073C480.138 242.592 482.424 242.991 484.677 243.384C486.935 243.781 489.149 244.137 491.304 244.584C493.386 244.989 495.411 245.646 497.336 246.539C499.152 247.428 500.735 248.646 501.702 250.156L501.887 250.431L502.039 250.727L502.335 251.308C502.469 251.709 502.629 252.065 502.732 252.478C502.837 252.867 502.871 253.272 502.832 253.673C502.83 253.689 502.825 253.705 502.823 253.721C502.829 253.707 502.833 253.698 502.84 253.684C503.136 253.018 503.34 252.314 503.445 251.592C503.612 250.471 503.5 249.327 503.117 248.26C502.59 246.892 501.712 245.686 500.573 244.763C500.27 244.489 499.946 244.238 499.605 244.012C499.257 243.764 498.896 243.535 498.523 243.326C498.138 243.131 497.766 242.899 497.354 242.726C496.941 242.552 496.531 242.358 496.096 242.205C494.266 241.572 492.39 241.08 490.485 240.736C488.506 240.337 486.447 239.955 484.382 239.42C482.286 238.89 480.245 238.166 478.284 237.257L477.543 236.914L476.826 236.526C476.352 236.265 475.858 236.017 475.404 235.736C475.06 235.529 474.724 235.315 474.387 235.101L466.618 231.671L464.276 234.575C464.276 234.575 453.841 225.441 452.251 221.523C451.956 220.797 452.07 220.441 452.48 220.367C452.318 220.312 452.155 220.255 452.004 220.216C451.659 220.115 451.3 220.073 450.941 220.09C450.738 220.101 450.545 220.175 450.388 220.304C450.322 220.363 450.266 220.432 450.223 220.509L450.226 220.562L450.691 220.583C450.69 220.756 450.712 220.928 450.755 221.095C450.941 221.759 451.217 222.395 451.576 222.983C452.513 224.647 454.251 226.932 456.619 229.409ZM422.429 246.5L422.353 246.171C422.218 245.629 422.049 244.829 421.849 243.807C421.725 243.149 421.595 242.387 421.47 241.55C421.779 244.309 422.17 246.309 422.225 246.583C422.295 246.559 422.361 246.529 422.43 246.503L422.429 246.5ZM431.153 243.526C433.11 242.862 435.016 242.056 436.855 241.114L436.815 241.058L437.516 240.567C437.739 240.406 437.981 240.199 438.285 239.961C438.572 239.699 438.923 239.413 439.271 239.047C441.255 237.046 442.802 234.656 443.815 232.027C444.152 231.184 444.429 230.318 444.644 229.435C444.882 228.495 445.041 227.536 445.119 226.569C445.327 224.49 445.027 222.391 444.245 220.454C443.356 218.403 441.776 216.728 439.78 215.722C439.528 215.602 439.263 215.459 439.019 215.354L438.197 215.035L437.383 214.792L436.539 214.611C435.397 214.412 434.23 214.404 433.084 214.586C430.782 214.972 428.66 216.073 427.02 217.734C426.828 217.942 426.613 218.154 426.441 218.358L425.899 219.042L425.361 219.723C425.195 219.955 425.052 220.199 424.897 220.435C424.579 220.899 424.291 221.383 424.036 221.884C424.021 221.914 424.006 221.943 423.99 221.973C423.177 223.734 422.505 225.557 421.983 227.424C421.922 227.634 421.866 227.848 421.813 228.064C421.71 228.55 421.621 229.033 421.545 229.513C421.239 231.404 421.093 233.317 421.107 235.232C421.084 236.123 421.155 236.975 421.176 237.786C421.24 238.595 421.29 239.365 421.369 240.083C421.525 241.523 421.717 242.772 421.894 243.797C422.071 244.823 422.237 245.623 422.363 246.166L422.435 246.497C423.011 246.276 423.59 246.064 424.17 245.86C426.516 245.045 428.877 244.323 431.153 243.526ZM417.358 248.846C418.068 248.441 418.802 248.078 419.546 247.73C417.364 248.446 415.351 249.912 413.743 251.379C414.863 250.42 416.074 249.572 417.357 248.847L417.358 248.846ZM409.123 251.576C408.928 252.044 408.904 252.566 409.055 253.049C409.127 253.279 409.225 253.499 409.349 253.705C409.084 252.881 409.073 251.997 409.318 251.167C409.246 251.3 409.181 251.437 409.124 251.578L409.123 251.576ZM414.366 243.674C414.103 244.234 413.821 244.761 413.531 245.266L414.125 244.53C414.594 243.947 414.978 242.703 415.287 241.24C415.042 242.074 414.734 242.889 414.367 243.676L414.366 243.674ZM423.105 216.699C421.582 218.76 420.326 221.006 419.367 223.384C418.473 225.65 417.761 227.984 417.24 230.364C418.253 227.606 419.434 224.913 420.775 222.299C423.501 217.08 426.616 213.954 431.348 212.133C436.08 210.312 440.082 210.868 444.571 215.972C447.16 218.916 447.629 223.506 447.564 226.865C447.675 226.451 447.775 226.051 447.861 225.669L447.973 224.99C448.033 224.678 448.067 224.331 448.112 223.918C448.169 223.509 448.192 223.022 448.22 222.475C448.276 221.168 448.198 219.859 447.984 218.569C447.718 216.92 447.128 215.341 446.246 213.923C445.746 213.128 445.14 212.405 444.443 211.775L443.864 211.322L443.571 211.091C443.468 211.021 443.358 210.96 443.251 210.893L442.601 210.494C442.373 210.376 442.133 210.275 441.897 210.162L441.54 209.995L441.496 209.974L441.473 209.963C441.479 209.965 441.451 209.954 441.459 209.957L441.385 209.931L441.183 209.861L440.37 209.579C440.107 209.505 439.856 209.452 439.596 209.385C439.333 209.312 439.065 209.26 438.794 209.227C437.669 209.037 436.522 209.002 435.388 209.123C434.202 209.232 433.035 209.494 431.917 209.903C430.755 210.307 429.644 210.846 428.608 211.508C427.539 212.171 426.544 212.946 425.638 213.819C425.402 214.03 425.177 214.254 424.965 214.49C424.754 214.72 424.514 214.958 424.327 215.181C423.924 215.688 423.466 216.185 423.106 216.701L423.105 216.699Z" fill="white"/>
<path d="M455.084 250.566C454.234 251.237 453.267 251.746 452.232 252.069C446.816 253.634 433.186 255.104 426.619 259.006C420.051 262.908 413.599 274.851 413.464 279.669C413.33 284.488 416.012 289.711 416.012 289.711C416.012 289.711 406.401 276.526 408.818 266.904C411.235 257.282 417.567 249.861 423.428 248.42C430.687 246.636 439.677 244.768 445.007 239.102C445.006 239.103 448.547 246.162 455.084 250.566Z" fill="white"/>
</g>
</g>
</svg>
