<svg width="778" height="428" viewBox="0 0 778 428" fill="none" xmlns="http://www.w3.org/2000/svg">
<g opacity="0.11">
<path d="M853.299 586.654C841.483 597.287 844.072 614.645 853.22 626.059C856.76 630.475 861.969 633.341 865.701 636.766C867.186 637.877 868.242 639.466 868.694 641.265C869.333 644.021 868.317 648.13 868.999 651.46C870.432 658.471 875.771 665.598 881.009 670.354C882.534 671.843 884.394 672.944 886.434 673.564C888.473 674.184 890.631 674.304 892.726 673.915C896.351 673.228 899.339 671.027 902.614 669.492C902.778 669.429 903.512 669.113 903.563 669.095C904.079 668.911 904.593 668.729 905.113 668.561C906.183 668.219 907.269 667.925 908.362 667.663C910.52 667.149 913.745 666.622 915.04 666.465C920.199 665.832 925.41 665.513 930.59 664.961C940.77 663.879 951.497 662.093 959.349 654.945C969.757 645.468 970.296 630.26 964.571 618.164C957.864 604.006 944.606 595.498 934.036 584.583C929.818 580.493 926.513 575.557 924.336 570.099C931.739 561.08 940.263 550.672 939.787 538.787C939.48 530.933 935.113 524.582 929.22 519.683C926.079 517.08 922.974 515.015 920.004 512.23C918.89 511.258 917.92 510.133 917.122 508.889C916.402 507.874 916.054 506.643 916.135 505.401C916.434 503.096 917.173 500.869 918.31 498.842C919.572 496.272 920.535 493.567 921.182 490.779C922.2 485.529 921.914 480.111 920.349 474.998C917.169 464.45 910.053 455.541 903.007 447.294C895.457 438.776 888.422 429.815 881.938 420.459C875.489 410.83 869.822 400.699 864.993 390.163C860.923 381.243 856.917 369.858 861.264 360.305C864.822 352.491 872.194 348.342 880.408 351.921C885.129 354.325 889.559 357.261 893.612 360.673C897.512 363.713 901.857 366.135 906.493 367.854C915.845 371.167 927.389 369.984 932.739 360.615C935.19 355.677 936.148 350.132 935.496 344.659C935.13 338.748 934.583 332.868 934.448 326.942C934.166 315.258 934.805 303.57 936.358 291.987C937.966 280.246 940.503 268.651 943.942 257.311C945.701 251.476 947.693 245.722 949.918 240.049C952.013 234.703 954.602 229.569 956.699 224.23C960.233 215.254 959.075 205.207 951.291 198.898C944.644 193.512 935.92 191.665 927.568 191.084C923.581 190.817 919.578 190.892 915.603 191.309C914.128 191.349 912.725 191.953 911.682 192.996C910.639 194.04 910.035 195.444 909.995 196.919C908.969 223.204 906.405 259.844 875.877 268.626C870.155 270.416 863.991 270.178 858.424 267.952C854.77 266.399 851.43 264.443 847.347 264.288C843.534 264.204 839.803 265.405 836.755 267.699C830.298 272.452 827.389 279.694 826.384 287.42C825.431 294.761 825.87 302.319 822.795 309.224C820.217 315.031 816.042 319.986 810.757 323.51C804.377 327.696 797.192 328.533 789.913 330.222C783.431 331.681 777.431 334.778 772.487 339.217C767.543 343.657 763.819 349.291 761.672 355.581C757.311 367.887 757.723 381.382 762.826 393.399C768.786 407.746 779.47 419.357 791.14 429.341C802.132 438.753 816.2 446.897 823.086 460.121C824.743 463.062 825.795 466.304 826.178 469.657C826.561 473.011 826.269 476.407 825.318 479.645C824.009 482.714 822.103 485.491 819.71 487.816C816.944 490.682 814.653 493.971 812.922 497.558C807.233 510.614 812.785 525.161 821.796 535.23C826.819 540.517 832.827 544.77 839.482 547.748C845.889 550.87 853.092 553.558 858.456 558.401C862.462 562.016 866.204 567.707 865.513 573.356C864.755 579.657 857.505 582.869 853.299 586.654Z" fill="#753512"/>
<path d="M761.112 73.6512C764.74 79.7933 769.042 87.4436 767.098 94.8357C766.128 98.5206 763.127 101.144 760.816 104.021C758.456 106.925 756.591 110.199 755.295 113.711C752.972 120.309 752.671 127.45 754.432 134.22C756.193 140.99 759.936 147.079 765.179 151.706C765.697 152.971 766.658 154.002 767.883 154.608C769.107 155.214 770.51 155.352 771.828 154.996C783.872 150.869 789.418 139.736 796.388 130.03C799.356 125.692 803.356 122.16 808.028 119.752C813.572 117.324 819.364 115.508 825.301 114.335C837.749 111.218 850.031 106.929 857 95.3205C860.401 89.1951 862.617 82.483 863.531 75.5362C864.681 68.5525 866.312 60.7564 864.603 53.739C862.669 45.8015 855.76 41.8025 849.382 37.6733L828.04 23.8562L805.78 9.43992C799.07 5.09529 791.872 -0.36917 783.386 1.10073C776.261 2.33725 771.407 8.50637 766.943 13.6679C761.84 19.1913 757.6 25.4534 754.365 32.2425C751.235 38.9993 750.343 46.579 751.819 53.8781C753.369 61.0616 757.429 67.4125 761.112 73.6512Z" fill="#753512"/>
<path d="M575.556 596.959C566.689 599.692 557.366 599.808 548.536 597.295C542.101 595.033 536.048 591.668 530.598 587.324C507.694 569.75 489.17 538.151 459.5 533.742C440.55 530.93 424.863 543.082 411.497 556.669C393.474 574.986 375.497 593.362 357.566 611.798L330.484 639.486C326.354 643.704 322.304 648.04 318.07 652.133C315.89 654.239 312.347 658.214 309.265 656.415C306.883 655.025 305.433 650.811 304.188 648.393C301.922 643.57 298.936 639.209 295.35 635.49C288.706 629.774 280.929 625.833 272.617 623.968C265.037 621.725 256.672 620.012 250.129 615.059C247.282 612.789 244.913 609.878 243.175 606.515C241.437 603.151 240.369 599.41 240.041 595.534C237.73 576.566 248.044 559.991 260.597 547.906C268.346 540.747 276.513 534.157 285.043 528.181C286.611 526.724 287.612 524.664 287.834 522.438C288.055 520.212 287.48 517.995 286.23 516.258C279.178 505.119 274.578 492.302 272.784 478.793C270.989 465.285 272.049 451.445 275.88 438.339C279.431 425.385 285.734 413.494 294.265 403.657C303.348 393.504 314.277 385.52 324.321 376.597C334.124 367.875 343.591 358.111 349.18 345.498C351.756 339.582 353.184 333.162 353.373 326.652C353.562 320.143 352.507 313.687 350.277 307.703C341.18 283.649 315.004 274.445 293.49 270.421C270.979 266.21 247.85 268.029 226.986 256.324C219.093 251.895 211.622 245.049 209.129 235.34C207.127 227.552 208.871 219.464 210.439 211.709C212.159 203.938 212.951 195.972 212.796 188.015C211.843 159.591 194.961 136.191 176.37 118.438C166.409 109.113 155.768 100.696 144.548 93.2686C133.943 85.3789 122.353 79.1868 110.118 74.8737C97.805 71.1788 83.9709 70.6473 73.2814 79.9824C61.0139 90.6997 60.3745 107.846 59.2801 123.455C58.8836 136.113 54.4571 148.301 46.7729 157.892C38.9248 166.819 29.2591 173.563 18.6046 177.544C-7.12705 188.032 -33.6324 183.909 -58.922 175.312C-74.877 169.887 -90.3954 163.114 -106.229 157.315C-120.716 152.011 -136.329 146.352 -151.774 145.671C-173.787 144.698 -205.196 155.909 -202.913 186.004C-201.758 201.192 -190.428 212.192 -178.554 218.077C-164.083 225.244 -147.168 223.859 -132.908 231.649C-121.427 237.921 -112.648 248.967 -102.378 257.155C-97.146 261.552 -91.2618 264.937 -84.9713 267.17C-77.6511 269.261 -69.9949 269.705 -62.4581 268.475C-56.0599 267.698 -48.183 265.75 -42.4568 269.831C-40.5137 271.538 -38.95 273.707 -37.8798 276.181C-36.8096 278.654 -36.2598 281.369 -36.2706 284.128C-35.3313 296.943 -41.7449 310.229 -50.1348 318.902C-59.1046 328.461 -70.8278 334.246 -83.1894 335.215C-90.8872 335.655 -98.0979 333.062 -105.489 331.3C-112.599 329.373 -120.097 329.68 -127.134 332.186C-147.341 339.861 -153.494 366.504 -160.333 385.962C-163.816 395.881 -167.709 406.605 -174.783 414.206C-184.634 424.788 -199.251 427.622 -211.594 432.984C-224.81 438.728 -238.596 449.867 -242.56 465.627C-246.739 482.239 -238.143 495.379 -226.928 505.082C-219.443 511.554 -202.831 522.173 -209.224 535.122C-209.967 537.225 -209.931 539.549 -209.123 541.591C-208.315 543.632 -206.8 545.226 -204.908 546.025C-204.774 546.081 -204.645 546.094 -204.513 546.143C-201.943 553.176 -197.256 558.994 -191.221 562.642C-184.357 566.181 -176.933 568.286 -169.322 568.852C-162.938 569.845 -156.267 571.038 -151.344 575.931C-143.759 583.486 -142.368 596.175 -141.709 606.846C-140.909 619.848 -142.502 633.177 -140.292 646.004C-138.328 659.828 -132.409 672.527 -123.387 682.272C-118.965 686.781 -113.33 689.607 -107.29 690.344C-101.25 691.08 -95.117 689.689 -89.7715 686.371C-84.0497 682.881 -78.876 677.189 -72.3624 675.643C-65.7482 674.067 -58.8177 675.881 -52.1993 676.321C-38.1998 677.248 -25.3573 672.19 -18.5382 657.834C-12.8674 645.902 -13.0113 631.04 -15.1845 618.274C-17.6803 603.618 -24.4759 587.768 -21.0701 572.522C-17.7861 557.814 -3.23232 553.367 7.40968 546.798C20.7233 538.572 31.8787 527.039 44.4904 517.666C54.6896 510.09 66.453 505.092 78.7842 506.938C90.4936 508.694 96.9468 518.41 97.2872 531.069C97.6897 546.175 93.3711 560.987 94.6543 576.163C96.4511 591.154 102.248 605.143 111.317 616.376C120.686 628.083 131.192 638.627 142.653 647.826C155.07 658.413 167.894 668.399 181.126 677.784C207.669 696.601 235.633 712.929 264.728 726.6C279.225 733.404 293.969 739.516 308.961 744.935C316.102 747.514 323.379 749.695 330.476 752.416C336.948 754.379 342.826 758.13 347.558 763.315C351.543 768.917 354.269 775.486 355.52 782.503C357.391 790.793 358.869 799.208 360.506 807.561C364.003 825.449 368.639 843.471 370.845 861.621C371.567 867.441 371.919 875.047 366.715 878.692C361.577 882.294 355.061 882.881 349.648 885.879C337.922 892.369 331.741 905.728 330.886 919.654C329.944 934.809 334.44 948.479 340.311 961.792C346.121 974.97 353.252 988.594 352.307 1003.87C350.66 1030.95 332.083 1053.55 322.995 1078C317.854 1090.6 316.165 1104.5 318.135 1117.99C320.868 1133.01 330.31 1146.31 344.931 1147.82C357.644 1149.14 370.459 1141.44 379.363 1131.82C389.41 1120.97 394.587 1107.56 399.719 1093.47C404.394 1080.63 409.145 1066.57 419.336 1057.63C428.669 1049.45 440.994 1047.83 452.444 1047.68C476.781 1047.39 509.856 1053.52 527.109 1028.84C529.317 1025.98 530.912 1022.62 531.772 1019.01C532.632 1015.4 532.734 1011.63 532.071 1008.01C531.408 1004.38 529.997 1000.98 527.945 998.068C525.894 995.158 523.256 992.814 520.233 991.214C514.471 988.439 508.553 986.057 502.513 984.082C496.15 981.449 490.081 978.055 484.415 973.959C474.508 966.767 465.899 957.643 459.005 947.025C462.27 938.9 463.869 930.114 463.686 921.299C463.503 912.485 461.543 903.862 457.947 896.051C453.522 887.325 447.372 879.822 439.941 874.082C437.17 871.705 433.751 868.842 433.735 864.562C433.991 861.072 435.406 857.782 437.71 855.322C444.078 847.826 454.69 848.062 463.141 848.545C474.473 849.225 485.726 850.112 497.105 849.962C520.37 849.724 543.595 846.825 566.405 841.314C584.81 836.82 607.073 831.851 619.417 814.415C632.48 795.96 626.365 772.775 623.949 752.092C622.417 742.514 623.336 732.606 626.605 723.466C630.516 714.491 635.888 706.355 642.45 699.466C656.369 683.755 671.896 670.499 681.551 650.884C690.514 632.682 693.103 609.573 680.137 593.195C668.392 578.36 649.352 575.51 632.244 577.821C612.442 580.504 594.836 591.943 575.556 596.959Z" fill="#753512"/>
<path d="M281.562 410.411C278.103 416.089 276.979 423.218 272.331 428.157C267.959 432.803 261.826 435.422 256.079 437.922C249.864 440.318 243.991 443.519 238.609 447.443C233.166 451.385 229.224 457.058 227.426 463.534C225.804 470.872 227.827 479.442 234.829 483.282C240.818 486.565 247.29 484.319 253.51 485.921C259.047 487.346 262.807 492.573 265.909 497.03C270.191 503.176 274.512 509.745 281.163 513.587C283.791 515.256 286.824 516.178 289.937 516.254C293.049 516.329 296.123 515.555 298.829 514.016C304.65 511.008 312.611 504.11 315.041 496.677C321.014 498.16 327.209 498.526 333.314 497.757C336.761 497.217 340.067 496.003 343.043 494.183C346.02 492.363 348.608 489.973 350.659 487.151C352.68 484.299 353.902 480.958 354.2 477.475C354.498 473.991 353.86 470.492 352.353 467.338C349.643 461.216 344.502 456.503 342.743 449.925C340.948 443.175 341.536 436.05 341.038 429.143C340.882 421.893 338.711 414.83 334.768 408.746C330.72 402.978 324.875 398.716 318.147 396.628C311.419 394.539 304.189 394.741 297.588 397.202C290.952 399.743 285.325 404.38 281.562 410.411V410.411ZM304.143 493.497C303.979 494.002 304.058 493.722 304.143 493.497V493.497ZM304.603 492.418L304.585 492.355C304.585 492.375 304.603 492.414 304.61 492.427L304.603 492.418ZM304.621 492.447C304.648 492.503 304.666 492.519 304.679 492.51C304.713 492.568 304.751 492.624 304.787 492.683C304.852 492.815 304.74 492.638 304.621 492.447V492.447Z" fill="#753512"/>
<path d="M472.954 266.637C465.441 265.61 456.789 263.655 449.884 267.865C444.451 271.175 441.759 276.826 437.688 281.444C433.089 286.662 426.381 286.951 419.966 288.343C412.505 289.963 405.582 293.565 402.058 300.674C398.978 307.605 398.262 315.356 400.021 322.734C401.685 331.23 405.815 339.228 406.242 347.962C406.278 348.758 406.482 349.537 406.839 350.249C407.196 350.961 407.7 351.59 408.316 352.095C408.932 352.6 409.647 352.97 410.415 353.18C411.183 353.391 411.987 353.437 412.774 353.317C423.014 361.189 435.108 367.816 447.977 361.499C450.908 360.076 453.42 357.917 455.268 355.233C457.116 352.549 458.236 349.432 458.521 346.185C458.841 343.429 458.536 342.202 460.988 340.824C464.194 339.402 466.862 336.993 468.602 333.948C470.031 330.988 469.896 327.767 470.805 324.675C471.498 322.444 472.731 320.418 474.394 318.777C476.111 317.005 478.182 315.616 480.472 314.699C482.763 313.783 485.22 313.36 487.685 313.459C490.09 313.737 492.408 314.524 494.485 315.768C497.892 317.837 501.543 319.476 505.353 320.647C512.807 322.232 520.516 322.174 527.945 320.478C535.193 319.177 542.302 317.364 549.626 316.524C557.509 315.627 558.801 304.505 557.108 298.441C552.785 282.957 534.726 280.16 521.44 276.77C505.483 272.476 489.294 269.093 472.954 266.637V266.637Z" fill="#753512"/>
<path d="M556.091 236.859C559.343 239.832 563.605 241.455 568.01 241.397C571.806 241.554 575.817 240.697 579.536 241.648C587.542 243.699 593.812 249.877 602.612 248.688C613.799 247.175 618.829 236.184 620.547 226.247C621.032 223.448 621.456 220.636 621.904 217.834C622.675 215.092 622.904 212.225 622.577 209.396C622.389 208.659 622.091 207.954 621.696 207.304C621.993 198.432 619.537 189.686 614.665 182.266C613.27 180.194 611.408 178.478 609.23 177.256C607.052 176.034 604.618 175.34 602.123 175.229C597.83 174.991 593.689 176.443 589.431 176.613C580.61 176.963 572.532 171.423 563.723 170.83C554.786 170.227 544.736 176.216 547.318 186.389C548.426 190.751 550.535 194.766 551.491 199.225C552.444 203.789 552.776 208.461 552.475 213.114C551.986 221.204 549.611 230.374 556.091 236.859ZM558.041 183.337C557.866 182.693 558.294 182.821 558.041 183.337V183.337Z" fill="#753512"/>
<path d="M113.169 52.5825C113.025 44.9008 110.2 37.5114 105.183 31.6941C102.445 28.7483 98.8437 26.7482 94.8968 25.9819C90.9499 25.2156 86.8616 25.7227 83.2214 27.4303C80.6683 28.6279 78.3795 30.3228 76.489 32.4159C74.5985 34.5091 73.1443 36.9583 72.2114 39.6204C69.4647 39.529 66.7298 40.0218 64.1876 41.0663C61.6454 42.1108 59.3539 43.6832 57.4643 45.6796C50.6111 52.9662 51.4074 63.7537 55.7549 72.1086C60.3266 80.8831 68.7658 86.4239 76.4512 92.1958C83.9549 97.8263 93.0514 106.024 102.884 100.07C104.973 98.7055 106.716 96.8724 107.975 94.7164C109.233 92.5603 109.973 90.1407 110.134 87.6492C111.136 87.0497 111.92 86.1445 112.37 85.0664C112.82 83.9884 112.913 82.7943 112.635 81.6596C110.551 72.066 113.725 62.2771 113.169 52.5825Z" fill="#753512"/>
<path d="M853.904 586.655C842.089 597.287 844.678 614.646 853.826 626.059C857.366 630.476 862.574 633.342 866.309 636.766C867.793 637.879 868.849 639.467 869.302 641.266C869.941 644.021 868.925 648.13 869.605 651.461C871.038 658.471 876.379 665.599 881.615 670.354C883.14 671.844 885.001 672.945 887.04 673.565C889.08 674.185 891.238 674.305 893.334 673.915C896.957 673.229 899.947 671.027 903.222 669.492C903.384 669.429 904.12 669.113 904.171 669.095C904.685 668.911 905.199 668.729 905.722 668.561C906.789 668.22 907.875 667.926 908.967 667.663C911.128 667.149 914.351 666.622 915.648 666.465C920.807 665.832 926.018 665.513 931.196 664.961C941.376 663.88 952.103 662.093 959.954 654.946C970.363 645.469 970.904 630.26 965.179 618.165C958.472 604.006 945.214 595.499 934.644 584.583C930.426 580.493 927.12 575.557 924.942 570.1C932.345 561.081 940.869 550.672 940.395 538.788C940.086 530.933 935.721 524.582 929.825 519.683C926.685 517.08 923.58 515.016 920.612 512.231C919.498 511.259 918.528 510.134 917.729 508.889C917.009 507.875 916.66 506.643 916.74 505.402C917.041 503.096 917.779 500.87 918.916 498.842C920.178 496.273 921.143 493.568 921.79 490.779C922.806 485.53 922.521 480.111 920.958 474.998C917.777 464.451 910.659 455.542 903.615 447.294C896.065 438.776 889.029 429.815 882.544 420.459C876.096 410.83 870.429 400.699 865.598 390.164C861.529 381.243 857.523 369.859 861.87 360.305C865.43 352.491 872.802 348.342 881.016 351.921C885.736 354.326 890.165 357.262 894.218 360.673C898.119 363.713 902.463 366.135 907.099 367.855C916.451 371.167 927.995 369.984 933.345 360.615C935.793 355.677 936.751 350.133 936.102 344.659C935.736 338.748 935.189 332.869 935.052 326.942C934.769 315.258 935.409 303.571 936.963 291.987C938.573 280.247 941.108 268.652 944.546 257.311C946.307 251.476 948.299 245.722 950.522 240.049C952.619 234.704 955.206 229.569 957.305 224.231C960.836 215.254 959.679 205.207 951.897 198.899C945.248 193.513 936.526 191.666 928.172 191.085C924.185 190.817 920.183 190.892 916.209 191.309C914.734 191.349 913.331 191.953 912.288 192.997C911.244 194.04 910.641 195.444 910.6 196.919C909.573 223.205 907.011 259.845 876.481 268.626C870.759 270.416 864.595 270.178 859.028 267.953C855.374 266.4 852.033 264.443 847.951 264.288C844.138 264.205 840.408 265.406 837.36 267.699C830.902 272.452 827.992 279.694 826.987 287.421C826.034 294.761 826.474 302.319 823.398 309.225C820.82 315.032 816.645 319.986 811.361 323.511C804.981 327.696 797.794 328.533 790.516 330.223C784.034 331.681 778.034 334.778 773.089 339.217C768.144 343.657 764.421 349.291 762.274 355.582C757.912 367.888 758.325 381.383 763.429 393.4C769.389 407.746 780.072 419.357 791.743 429.341C802.735 438.753 816.803 446.897 823.69 460.122C825.347 463.062 826.398 466.305 826.781 469.658C827.164 473.011 826.871 476.408 825.92 479.646C824.611 482.715 822.704 485.492 820.311 487.817C817.546 490.683 815.256 493.971 813.526 497.558C807.837 510.615 813.389 525.161 822.398 535.231C827.42 540.517 833.429 544.77 840.084 547.748C846.493 550.87 853.696 553.558 859.057 558.401C863.064 562.017 866.805 567.708 866.114 573.356C865.361 579.658 858.111 582.869 853.904 586.655Z" fill="#753512"/>
<path d="M715.845 121.053C719.473 127.195 723.775 134.846 721.83 142.238C720.859 145.923 717.857 148.546 715.549 151.423C713.19 154.328 711.326 157.602 710.031 161.113C707.706 167.71 707.404 174.85 709.162 181.62C710.921 188.389 714.66 194.479 719.901 199.108C720.419 200.373 721.38 201.405 722.605 202.011C723.83 202.617 725.233 202.755 726.552 202.398C738.596 198.271 744.142 187.138 751.112 177.432C754.079 173.094 758.078 169.562 762.75 167.154C768.294 164.726 774.085 162.91 780.023 161.737C792.47 158.62 804.755 154.331 811.725 142.723C815.124 136.597 817.34 129.885 818.255 122.938C819.403 115.955 821.036 108.158 819.325 101.141C817.391 93.2036 810.484 89.2046 804.106 85.0754L782.773 71.2583C775.355 66.4514 767.935 61.6459 760.513 56.842C753.806 52.4974 746.605 47.0329 738.119 48.5028C730.994 49.7393 726.14 55.9085 721.678 61.07C716.574 66.5929 712.333 72.855 709.098 79.6446C705.969 86.4017 705.078 93.9813 706.554 101.28C708.101 108.464 712.16 114.815 715.845 121.053Z" fill="#753512"/>
<path d="M645.121 275.921C640.785 286.565 632.016 294.736 624.279 302.92C615.903 311.782 606.968 321.699 605.568 334.338C603.998 348.476 615.393 356.692 625.138 364.58L644.679 380.401C650.444 385.069 656.378 391.303 663.581 393.641C672.061 396.402 681.051 392.176 685.823 385.165C686.137 384.993 686.437 384.797 686.72 384.577C698.219 375.529 693.582 359.952 690.585 348.117C687.114 334.292 685.862 320.002 686.877 305.784C687.386 298.537 688.502 291.346 690.211 284.285C691.857 277.461 693.726 270.412 690.076 263.863C687.008 259.132 682.504 255.508 677.227 253.525C671.701 251.07 665.504 248.233 659.483 250.648C649.462 254.694 648.666 267.227 645.121 275.921Z" fill="#753512"/>
<path d="M667.99 435.341C663.706 435.808 659.444 436.351 656.115 439.38C649.86 445.063 652.009 454.43 655.442 460.994C657.64 464.836 660.194 468.464 663.069 471.831C665.835 475.318 668.816 479.061 673.417 479.99C678.365 480.989 683.922 478.722 688.682 477.542C693.842 476.26 699.001 475.026 704.15 473.7C708.245 472.993 711.962 470.873 714.657 467.708C717.391 463.931 716.393 459.829 717.223 455.59C718.717 447.96 727.058 442.924 731.975 437.567C735.176 434.078 738.494 429.809 738.164 424.798C738.068 422.978 737.413 421.232 736.289 419.798C735.165 418.364 733.627 417.312 731.883 416.784C730.555 414.118 728.711 411.742 726.458 409.793C724.205 407.845 721.587 406.364 718.758 405.436C709.112 402.913 705.035 412.687 699.914 418.555C694.569 424.72 687.79 429.476 680.174 432.401C676.251 433.886 672.158 434.874 667.99 435.341ZM728.715 425.213C728.893 425.213 729.07 425.213 729.249 425.2C729.245 425.211 729.24 425.223 729.234 425.233C728.825 425.281 728.693 425.258 728.715 425.213Z" fill="#753512"/>
</g>
</svg>
