<svg width="778" height="428" viewBox="0 0 778 428" fill="none" xmlns="http://www.w3.org/2000/svg">
<path opacity="0.1" fill-rule="evenodd" clip-rule="evenodd" d="M827.625 275.287C805.965 276.105 788.811 285.523 788.059 297.011C788.03 297.463 787.971 297.833 787.928 297.833C787.886 297.833 786.947 297.68 785.842 297.493C777.986 296.165 771.861 296.146 768.454 297.438C762.666 299.635 766.296 303.604 774.693 304.26L775.028 304.286L774.75 304.453C769.321 307.716 767.341 310.365 769.047 312.084C770.145 313.191 771.887 312.923 776.082 311.002C781.432 308.552 782.479 309.277 780.017 313.726C778.094 317.201 778.404 318.986 780.923 318.942C784.071 318.887 786.853 315.38 788.74 309.089C789.064 308.008 789.813 305.902 790.114 305.226L790.37 304.651L790.829 305.196C792.746 307.475 795.341 308.907 798.719 309.551C801.014 309.989 801.039 309.99 811.863 310.064C817.45 310.102 822.342 310.155 822.733 310.182C823.124 310.209 824.121 310.269 824.949 310.317C832.675 310.76 840.29 312.286 846.272 314.589C853.997 317.564 859.346 321.005 870.014 329.858C877.989 336.477 880.57 338.361 883.731 339.868C888.151 341.975 891.969 342.195 895.936 340.572C897.186 340.06 897.124 339.555 896.399 344.373C895.668 349.232 896.515 351.589 899.162 352.059C901.17 352.415 902.473 351.15 902.456 348.86L902.447 347.655L902.916 348.147C905.557 350.914 909.157 351.898 910.596 350.245C911.562 349.136 911.102 347.573 909.029 344.921C908.027 343.64 907.409 342.615 907.312 342.076L907.255 341.76H907.609C908.131 341.76 909.763 342.114 911.705 342.648C915.662 343.738 916.746 343.891 917.743 343.503C921.388 342.085 913.88 335.745 905.331 333.022C904.974 332.908 904.681 332.797 904.681 332.775C904.681 332.752 904.811 332.473 904.97 332.154C910.255 321.574 901.519 304.745 884.257 292.254C868.329 280.728 847.649 274.532 827.625 275.287ZM859.066 291.292C863.288 292.064 868.438 294.139 871.776 296.41C877.986 300.636 885.904 309.843 882.461 308.834C881.386 308.519 879.177 307.222 872.989 303.272C864.453 297.825 861.926 296.283 857.235 293.665C854.588 292.188 854.407 292.05 854.547 291.606C854.593 291.46 854.996 291.236 855.387 291.139C855.74 291.051 858.342 291.16 859.066 291.292ZM888.42 312.83C892.086 314.262 894.785 317.363 895.815 321.326C896.387 323.529 895.731 324.047 893.685 323.007C891.045 321.666 889.084 319.588 887.415 316.365C885.69 313.033 886.015 311.89 888.42 312.83Z" fill="white"/>
<path opacity="0.1" fill-rule="evenodd" clip-rule="evenodd" d="M302.678 448.812C288.227 465.022 283.088 483.919 290.824 492.401C291.129 492.734 291.354 493.032 291.324 493.063C291.295 493.094 290.533 493.666 289.632 494.335C283.222 499.092 278.956 503.503 277.52 506.856C275.081 512.555 280.454 512.676 286.755 507.063L287.006 506.84L286.933 507.156C285.51 513.332 286.04 516.592 288.46 516.548C290.018 516.52 291.035 515.076 292.566 510.719C294.519 505.162 295.767 504.907 297.256 509.759C298.419 513.549 299.917 514.558 301.635 512.708C303.781 510.397 303.191 505.964 299.979 500.254C299.427 499.273 298.433 497.277 298.156 496.592L297.921 496.01L298.631 496.055C301.6 496.245 304.431 495.361 307.24 493.366C309.148 492.011 309.166 491.994 316.733 484.227C320.64 480.217 324.074 476.72 324.365 476.456C324.656 476.193 325.392 475.514 326.001 474.949C331.683 469.675 338.067 465.229 343.876 462.5C351.378 458.976 357.564 457.49 371.335 455.902C381.631 454.715 384.776 454.152 388.054 452.91C392.638 451.174 395.447 448.568 397.033 444.581C397.533 443.325 397.128 443.02 400.088 446.873C403.073 450.759 405.355 451.775 407.531 450.188C409.181 448.984 409.176 447.169 407.518 445.599L406.646 444.773L407.325 444.774C411.147 444.779 414.354 442.858 414.165 440.676C414.039 439.212 412.596 438.464 409.25 438.13C407.634 437.968 406.468 437.707 406.012 437.404L405.746 437.227L405.991 436.971C406.354 436.594 407.742 435.66 409.474 434.626C413.004 432.521 413.868 431.844 414.281 430.856C415.792 427.244 406.022 428.286 398.129 432.579C397.799 432.759 397.516 432.893 397.5 432.877C397.484 432.862 397.374 432.575 397.255 432.24C393.318 421.112 375.156 415.794 354.192 419.631C334.848 423.171 316.036 433.828 302.678 448.812ZM336.011 437.162C339.497 434.646 344.564 432.359 348.515 431.518C355.863 429.952 367.98 430.595 364.864 432.384C363.89 432.944 361.425 433.643 354.29 435.383C344.447 437.784 341.585 438.545 336.446 440.124C333.547 441.015 333.321 441.05 333.099 440.643C333.027 440.509 333.145 440.062 333.347 439.713C333.529 439.398 335.413 437.593 336.011 437.162ZM371.873 430.841C375.448 429.182 379.551 429.376 383.115 431.371C385.096 432.48 385.013 433.311 382.844 434.071C380.048 435.051 377.193 435.032 373.717 434.01C370.124 432.954 369.528 431.929 371.873 430.841Z" fill="white"/>
<path opacity="0.1" fill-rule="evenodd" clip-rule="evenodd" d="M588.783 323.201C567.525 318.764 548.584 323.739 545.093 334.675C544.956 335.105 544.81 335.449 544.768 335.439C544.727 335.428 543.851 335.054 542.822 334.607C535.501 331.425 529.55 329.928 525.928 330.357C519.771 331.086 522.348 335.802 530.356 338.464L530.675 338.57L530.364 338.664C524.302 340.511 521.741 342.597 522.986 344.673C523.787 346.009 525.546 346.17 530.087 345.323C535.877 344.244 536.721 345.198 533.259 348.909C530.554 351.808 530.427 353.61 532.887 354.175C535.961 354.882 539.508 352.16 542.854 346.527C543.429 345.559 544.663 343.702 545.118 343.12L545.505 342.626L545.82 343.264C547.137 345.932 549.316 347.944 552.446 349.383C554.573 350.361 554.597 350.368 565.103 353.051C570.527 354.436 575.271 355.668 575.645 355.789C576.018 355.909 576.973 356.208 577.767 356.454C585.173 358.747 592.211 362.062 597.474 365.735C604.271 370.478 608.646 375.098 616.892 386.241C623.057 394.571 625.114 397.017 627.826 399.238C631.617 402.344 635.277 403.479 639.524 402.865C640.862 402.671 640.924 402.167 639.061 406.655C637.183 411.181 637.441 413.666 639.902 414.76C641.769 415.589 643.34 414.679 643.873 412.459L644.154 411.291L644.491 411.88C646.394 415.195 649.659 417.016 651.455 415.764C652.661 414.923 652.589 413.3 651.211 410.234C650.544 408.752 650.189 407.611 650.224 407.066L650.244 406.746L650.589 406.831C651.097 406.958 652.598 407.694 654.358 408.68C657.944 410.689 658.961 411.1 660.024 410.965C663.909 410.472 658.131 402.525 650.473 397.826C650.152 397.63 649.895 397.451 649.9 397.43C649.905 397.408 650.099 397.17 650.33 396.9C658.011 387.936 653.558 369.542 639.774 353.288C627.055 338.29 608.434 327.303 588.783 323.201ZM615.51 346.278C619.43 348.044 623.94 351.294 626.64 354.298C631.662 359.886 637.151 370.707 634.045 368.899C633.075 368.335 631.239 366.547 626.171 361.231C619.18 353.899 617.092 351.798 613.16 348.132C610.941 346.064 610.798 345.886 611.041 345.491C611.12 345.361 611.567 345.241 611.97 345.241C612.334 345.242 614.838 345.975 615.51 346.278ZM638.88 374.204C642.101 376.475 643.98 380.127 644.029 384.211C644.057 386.481 643.294 386.824 641.554 385.324C639.309 383.389 637.901 380.905 637.053 377.383C636.176 373.742 636.767 372.715 638.88 374.204Z" fill="white"/>
<path opacity="0.1" fill-rule="evenodd" clip-rule="evenodd" d="M277.026 290.706C262.795 307.11 257.913 326.075 265.763 334.451C266.072 334.78 266.301 335.075 266.272 335.106C266.243 335.137 265.489 335.72 264.597 336.401C258.252 341.244 254.046 345.712 252.656 349.085C250.293 354.817 255.668 354.864 261.893 349.167L262.141 348.94L262.072 349.257C260.732 355.452 261.306 358.704 263.725 358.628C265.283 358.579 266.28 357.121 267.752 352.743C269.63 347.161 270.875 346.889 272.429 351.72C273.643 355.494 275.155 356.483 276.847 354.61C278.962 352.27 278.312 347.846 275.023 342.18C274.457 341.206 273.437 339.223 273.151 338.543L272.907 337.964L273.618 338C276.59 338.149 279.409 337.226 282.19 335.194C284.08 333.813 284.097 333.796 291.559 325.927C295.411 321.865 298.798 318.322 299.085 318.054C299.372 317.787 300.099 317.098 300.7 316.525C306.31 311.175 312.634 306.643 318.405 303.835C325.859 300.21 332.025 298.64 345.773 296.866C356.051 295.54 359.189 294.935 362.45 293.649C367.009 291.851 369.783 289.207 371.315 285.199C371.798 283.936 371.389 283.637 374.401 287.45C377.438 291.294 379.734 292.28 381.888 290.664C383.522 289.437 383.492 287.622 381.813 286.075L380.93 285.261L381.609 285.253C385.431 285.206 388.611 283.241 388.393 281.063C388.246 279.6 386.794 278.872 383.444 278.583C381.825 278.443 380.656 278.197 380.197 277.901L379.927 277.728L380.17 277.468C380.527 277.086 381.902 276.133 383.621 275.077C387.122 272.924 387.976 272.236 388.376 271.242C389.838 267.609 380.083 268.783 372.249 273.183C371.921 273.367 371.64 273.505 371.624 273.49C371.607 273.475 371.493 273.189 371.37 272.856C367.283 261.782 349.051 256.71 328.14 260.83C308.846 264.632 290.181 275.542 277.026 290.706ZM310.199 278.605C313.65 276.043 318.686 273.688 322.625 272.793C329.951 271.128 342.075 271.607 338.984 273.439C338.018 274.011 335.562 274.743 328.451 276.58C318.642 279.114 315.79 279.913 310.674 281.562C307.787 282.492 307.561 282.53 307.334 282.126C307.259 281.993 307.372 281.545 307.569 281.193C307.746 280.875 309.607 279.045 310.199 278.605ZM345.972 271.801C349.524 270.094 353.629 270.231 357.22 272.178C359.215 273.26 359.143 274.092 356.986 274.882C354.203 275.899 351.347 275.919 347.858 274.944C344.251 273.936 343.642 272.92 345.972 271.801Z" fill="white"/>
<path opacity="0.1" fill-rule="evenodd" clip-rule="evenodd" d="M629.682 89.8176C645.603 104.586 664.394 110.098 673.027 102.53C673.367 102.233 673.669 102.014 673.699 102.044C673.729 102.074 674.287 102.846 674.938 103.761C679.567 110.263 683.892 114.616 687.217 116.118C692.867 118.67 693.093 113.3 687.606 106.889L687.388 106.633L687.703 106.712C693.849 108.258 697.119 107.793 697.123 105.372C697.126 103.814 695.703 102.768 691.376 101.151C685.859 99.0888 685.628 97.8357 690.509 96.4429C694.321 95.355 695.36 93.8773 693.545 92.1239C691.276 89.9325 686.833 90.4341 681.06 93.5331C680.068 94.0658 678.053 95.0197 677.363 95.283L676.776 95.507L676.836 94.7979C677.084 91.8328 676.256 88.9849 674.317 86.1372C673 84.2028 672.983 84.1845 665.367 76.4651C661.435 72.4798 658.007 68.9769 657.749 68.681C657.491 68.3851 656.828 67.6359 656.275 67.016C651.114 61.2308 646.795 54.7598 644.181 48.8978C640.807 41.3278 639.443 35.1131 638.128 21.3137C637.144 10.9968 636.644 7.84084 635.467 4.53861C633.822 -0.0780911 631.272 -2.93822 627.317 -4.60336C626.071 -5.12809 625.759 -4.72837 629.669 -7.61197C633.613 -10.5197 634.675 -12.7815 633.131 -14.9878C631.96 -16.6619 630.145 -16.6928 628.542 -15.0659L627.699 -14.2104L627.714 -14.889C627.794 -18.7107 625.937 -21.9549 623.752 -21.8092C622.285 -21.7114 621.509 -20.2836 621.108 -16.9455C620.915 -15.3323 620.631 -14.1719 620.319 -13.7226L620.137 -13.4593L619.886 -13.7102C619.516 -14.0804 618.609 -15.486 617.61 -17.2388C615.576 -20.8097 614.916 -21.6862 613.936 -22.1189C610.354 -23.7013 611.203 -13.9125 615.339 -5.93649C615.512 -5.60289 615.641 -5.31702 615.625 -5.30133C615.609 -5.28557 615.32 -5.18106 614.983 -5.06915C603.779 -1.35296 598.103 16.7003 601.525 37.7365C604.682 57.1463 614.964 76.1651 629.682 89.8176ZM618.692 56.2601C616.246 52.725 614.06 47.6139 613.297 43.6474C611.877 36.2695 612.759 24.168 614.487 27.3188C615.026 28.303 615.677 30.782 617.276 37.9502C619.482 47.8379 620.186 50.7151 621.663 55.8838C622.496 58.8002 622.527 59.0265 622.115 59.2402C621.98 59.3104 621.536 59.1827 621.191 58.9745C620.879 58.7864 619.112 56.8663 618.692 56.2601ZM613.082 20.2804C611.495 16.6733 611.769 12.5749 613.834 9.05098C614.982 7.09241 615.811 7.19216 616.528 9.37494C617.453 12.1905 617.377 15.0448 616.287 18.4998C615.16 22.0707 614.124 22.6463 613.082 20.2804Z" fill="white"/>
<path opacity="0.1" fill-rule="evenodd" clip-rule="evenodd" d="M51.553 89.8176C67.4737 104.586 86.2654 110.098 94.8982 102.53C95.238 102.233 95.5405 102.014 95.5706 102.044C95.6006 102.074 96.1579 102.846 96.8089 103.761C101.438 110.263 105.763 114.616 109.088 116.118C114.738 118.67 114.964 113.3 109.477 106.889L109.259 106.633L109.574 106.712C115.72 108.258 118.99 107.793 118.994 105.372C118.997 103.814 117.574 102.768 113.247 101.151C107.73 99.0888 107.499 97.8357 112.38 96.4429C116.192 95.355 117.231 93.8773 115.416 92.1239C113.147 89.9325 108.704 90.4341 102.931 93.5331C101.94 94.0658 99.9238 95.0197 99.234 95.283L98.6472 95.507L98.7067 94.7979C98.955 91.8328 98.1268 88.9849 96.188 86.1372C94.8709 84.2028 94.8539 84.1845 87.2382 76.4651C83.3064 72.4798 79.8784 68.9769 79.6204 68.681C79.3624 68.3851 78.6989 67.6359 78.1459 67.016C72.9852 61.2308 68.6661 54.7598 66.0526 48.8978C62.6776 41.3278 61.3137 35.1131 59.9987 21.3137C59.0156 10.9968 58.515 7.84084 57.3382 4.53861C55.6929 -0.0780911 53.1432 -2.93822 49.1885 -4.60336C47.9423 -5.12809 47.6297 -4.72837 51.5405 -7.61197C55.4841 -10.5197 56.5456 -12.7815 55.0021 -14.9878C53.8309 -16.6619 52.0157 -16.6928 50.4132 -15.0659L49.5703 -14.2104L49.5846 -14.889C49.6649 -18.7107 47.8078 -21.9549 45.6232 -21.8092C44.1565 -21.7114 43.3804 -20.2836 42.9796 -16.9455C42.7858 -15.3323 42.5017 -14.1719 42.1902 -13.7226L42.0077 -13.4593L41.7568 -13.7102C41.3866 -14.0804 40.4803 -15.486 39.4816 -17.2388C37.4467 -20.8097 36.7869 -21.6862 35.8073 -22.1189C32.2251 -23.7013 33.0737 -13.9125 37.2102 -5.93649C37.3831 -5.60289 37.5118 -5.31702 37.4961 -5.30133C37.4804 -5.28557 37.1914 -5.18106 36.8539 -5.06915C25.65 -1.35296 19.974 16.7003 23.3958 37.7365C26.553 57.1463 36.8353 76.1651 51.553 89.8176ZM40.5635 56.2601C38.1175 52.725 35.9311 47.6139 35.1678 43.6474C33.7482 36.2695 34.6302 24.168 36.3579 27.3188C36.8976 28.303 37.5479 30.782 39.147 37.9502C41.3528 47.8379 42.0566 50.7151 43.5339 55.8838C44.3675 58.8002 44.398 59.0265 43.9864 59.2402C43.8513 59.3104 43.407 59.1827 43.062 58.9745C42.7503 58.7864 40.983 56.8663 40.5635 56.2601ZM34.9535 20.2804C33.3658 16.6733 33.6401 12.5749 35.7053 9.05098C36.853 7.09241 37.6826 7.19216 38.3995 9.37494C39.3241 12.1905 39.2486 15.0448 38.158 18.4998C37.0308 22.0707 35.9949 22.6463 34.9535 20.2804Z" fill="white"/>
<path opacity="0.1" fill-rule="evenodd" clip-rule="evenodd" d="M25.9436 401.96C41.8643 416.728 60.656 422.24 69.2888 414.673C69.6286 414.375 69.9311 414.156 69.9612 414.186C69.9912 414.216 70.5485 414.989 71.1995 415.903C75.8286 422.406 80.1541 426.758 83.4786 428.26C89.1284 430.812 89.355 425.442 83.868 419.031L83.6495 418.776L83.9645 418.855C90.1106 420.4 93.3807 419.935 93.3849 417.514C93.3876 415.956 91.9643 414.911 87.6378 413.294C82.1209 411.231 81.8901 409.978 86.7707 408.585C90.5829 407.497 91.6215 406.02 89.8063 404.266C87.5376 402.075 83.0943 402.576 77.3221 405.675C76.3301 406.208 74.3144 407.162 73.6246 407.425L73.0378 407.649L73.0973 406.94C73.3457 403.975 72.5174 401.127 70.5786 398.28C69.2616 396.345 69.2446 396.327 61.6289 388.607C57.697 384.622 54.269 381.119 54.011 380.823C53.753 380.527 53.0895 379.778 52.5365 379.158C47.3759 373.373 43.0567 366.902 40.4432 361.04C37.0683 353.47 35.7043 347.255 34.3893 333.456C33.4062 323.139 32.9057 319.983 31.7288 316.681C30.0835 312.064 27.5338 309.204 23.5792 307.539C22.3329 307.014 22.0204 307.414 25.9312 304.53C29.8748 301.623 30.9362 299.361 29.3927 297.155C28.2215 295.48 26.4064 295.45 24.8038 297.076L23.961 297.932L23.9753 297.253C24.0556 293.432 22.1984 290.187 20.0138 290.333C18.5471 290.431 17.771 291.859 17.3702 295.197C17.1764 296.81 16.8923 297.97 16.5808 298.42L16.3984 298.683L16.1474 298.432C15.7773 298.062 14.8709 296.656 13.8722 294.904C11.8374 291.333 11.1775 290.456 10.198 290.023C6.61576 288.441 7.4643 298.23 11.6008 306.206C11.7738 306.539 11.9025 306.825 11.8868 306.841C11.871 306.857 11.582 306.961 11.2445 307.073C0.0406551 310.789 -5.63536 328.843 -2.21357 349.879C0.943581 369.289 11.226 388.307 25.9436 401.96ZM14.9541 368.402C12.5082 364.867 10.3217 359.756 9.55845 355.79C8.13886 348.412 9.02083 336.31 10.7485 339.461C11.2882 340.445 11.9386 342.924 13.5377 350.093C15.7435 359.98 16.4472 362.857 17.9245 368.026C18.7581 370.943 18.7886 371.169 18.377 371.383C18.2419 371.453 17.7976 371.325 17.4526 371.117C17.141 370.929 15.3736 369.009 14.9541 368.402ZM9.34409 332.423C7.75644 328.816 8.03074 324.717 10.0959 321.193C11.2436 319.235 12.0732 319.334 12.7901 321.517C13.7148 324.333 13.6392 327.187 12.5486 330.642C11.4215 334.213 10.3855 334.789 9.34409 332.423Z" fill="white"/>
<path opacity="0.1" fill-rule="evenodd" clip-rule="evenodd" d="M394.103 138.787C414.628 131.696 428.339 117.714 425.729 106.535C425.626 106.095 425.575 105.725 425.616 105.712C425.656 105.7 426.601 105.572 427.714 105.429C435.63 104.407 441.507 102.64 444.397 100.415C449.309 96.6321 444.678 93.9037 436.438 95.7252L436.11 95.7978L436.328 95.5572C440.586 90.8629 441.715 87.759 439.582 86.6154C438.208 85.8793 436.616 86.6427 433.152 89.6979C428.735 93.5937 427.521 93.2073 428.59 88.2458C429.426 84.3704 428.611 82.7583 426.209 83.534C423.208 84.5035 421.558 88.6596 421.574 95.2111C421.577 96.337 421.469 98.5645 421.377 99.297L421.298 99.9201L420.7 99.5338C418.201 97.9184 415.299 97.3081 411.874 97.6775C409.547 97.9285 409.523 97.9349 399.127 101.018C393.76 102.61 389.055 103.985 388.673 104.073C388.29 104.162 387.317 104.394 386.509 104.59C378.976 106.419 371.233 107.182 364.831 106.727C356.564 106.14 350.439 104.417 337.646 99.0789C328.082 95.0881 325.062 94.0435 321.594 93.5268C316.747 92.8043 313.023 93.7068 309.692 96.4115C308.642 97.2638 308.847 97.7278 308.145 92.9199C307.437 88.0716 305.941 86.0702 303.268 86.3929C301.24 86.6378 300.358 88.2246 301.038 90.4044L301.396 91.5508L300.804 91.2187C297.471 89.3482 293.734 89.4589 292.834 91.4548C292.23 92.7948 293.124 94.1518 295.88 96.0773C297.212 97.0078 298.102 97.8049 298.351 98.2912L298.498 98.5762L298.158 98.6794C297.657 98.8317 295.991 98.9694 293.974 99.0251C289.865 99.1387 288.782 99.3081 287.939 99.9685C284.856 102.384 293.891 106.244 302.875 106.351C303.251 106.355 303.564 106.377 303.57 106.398C303.577 106.419 303.533 106.723 303.473 107.074C301.475 118.708 314.729 132.216 334.898 139.103C353.508 145.458 375.128 145.342 394.103 138.787ZM359.324 132.68C355.053 133.173 349.515 132.696 345.656 131.501C338.479 129.279 328.218 122.803 331.811 122.762C332.934 122.75 335.427 123.343 342.504 125.308C352.265 128.018 355.135 128.752 360.39 129.883C363.356 130.521 363.57 130.6 363.564 131.064C363.563 131.216 363.241 131.548 362.895 131.754C362.582 131.941 360.056 132.596 359.324 132.68ZM324.941 120.687C321.011 120.389 317.525 118.217 315.388 114.736C314.201 112.801 314.68 112.116 316.943 112.512C319.862 113.022 322.345 114.433 324.879 117.022C327.498 119.697 327.518 120.882 324.941 120.687Z" fill="white"/>
<path opacity="0.1" fill-rule="evenodd" clip-rule="evenodd" d="M822.894 523.568C841.28 512.012 851.467 495.287 846.392 484.99C846.192 484.585 846.059 484.236 846.096 484.215C846.133 484.193 847.023 483.855 848.075 483.463C855.554 480.675 860.878 477.623 863.189 474.8C867.116 470.004 861.988 468.395 854.375 472.036L854.072 472.181L854.23 471.897C857.313 466.36 857.71 463.081 855.373 462.451C853.869 462.045 852.491 463.149 849.809 466.909C846.389 471.705 845.119 471.603 845.037 466.528C844.972 462.564 843.814 461.179 841.65 462.478C838.946 464.103 838.281 468.524 839.78 474.902C840.038 475.998 840.438 478.192 840.514 478.926L840.578 479.551L839.909 479.31C837.109 478.303 834.144 478.366 830.891 479.501C828.682 480.273 828.66 480.285 819.232 485.643C814.365 488.409 810.094 490.814 809.742 490.986C809.389 491.159 808.494 491.606 807.752 491.98C800.828 495.467 793.46 497.964 787.121 498.972C778.935 500.272 772.579 499.981 758.91 497.68C748.69 495.959 745.512 495.626 742.018 495.908C737.133 496.302 733.71 498.025 731.078 501.414C730.249 502.482 730.554 502.887 728.781 498.363C726.993 493.802 725.083 492.191 722.552 493.111C720.632 493.809 720.132 495.554 721.289 497.523L721.897 498.559L721.245 498.369C717.575 497.303 713.96 498.257 713.536 500.405C713.251 501.847 714.429 502.966 717.55 504.217C719.058 504.822 720.105 505.396 720.458 505.814L720.665 506.058L720.358 506.235C719.905 506.497 718.312 507.009 716.361 507.52C712.385 508.561 711.368 508.972 710.696 509.806C708.241 512.856 717.915 514.57 726.69 512.639C727.057 512.558 727.367 512.508 727.378 512.527C727.389 512.547 727.415 512.853 727.436 513.208C728.126 524.992 744.095 535.147 765.3 537.286C784.865 539.26 805.897 534.251 822.894 523.568ZM787.635 525.498C783.588 526.945 778.085 527.735 774.056 527.445C766.562 526.907 755.101 522.923 758.592 522.07C759.682 521.803 762.245 521.816 769.583 522.127C779.704 522.556 782.666 522.62 788.041 522.531C791.073 522.481 791.3 522.51 791.4 522.963C791.433 523.112 791.194 523.508 790.904 523.787C790.642 524.039 788.33 525.249 787.635 525.498ZM751.43 521.604C747.535 522.204 743.647 520.879 740.777 517.972C739.183 516.356 739.494 515.581 741.788 515.453C744.747 515.289 747.484 516.101 750.539 518.048C753.697 520.061 753.985 521.211 751.43 521.604Z" fill="white"/>
</svg>
