<svg width="32" height="32" viewBox="0 0 32 32" fill="none" xmlns="http://www.w3.org/2000/svg">
<path d="M5.33594 25.3333H4.33594H5.33594ZM16.0026 29C16.5549 29 17.0026 28.5523 17.0026 28C17.0026 27.4477 16.5549 27 16.0026 27V29ZM10.6693 6.66667V7.66667V6.66667ZM24.0026 6.66667V5.66667V6.66667ZM25.6693 16C25.6693 16.5523 26.117 17 26.6693 17C27.2216 17 27.6693 16.5523 27.6693 16H25.6693ZM22.3359 4C22.3359 3.44772 21.8882 3 21.3359 3C20.7837 3 20.3359 3.44772 20.3359 4H22.3359ZM11.6693 4C11.6693 3.44772 11.2216 3 10.6693 3C10.117 3 9.66927 3.44772 9.66927 4H11.6693ZM26.3359 21.3333C26.3359 20.781 25.8882 20.3333 25.3359 20.3333C24.7837 20.3333 24.3359 20.781 24.3359 21.3333H26.3359ZM24.3359 29.3333C24.3359 29.8856 24.7837 30.3333 25.3359 30.3333C25.8882 30.3333 26.3359 29.8856 26.3359 29.3333H24.3359ZM29.3359 26.3333C29.8882 26.3333 30.3359 25.8856 30.3359 25.3333C30.3359 24.781 29.8882 24.3333 29.3359 24.3333V26.3333ZM21.3359 24.3333C20.7837 24.3333 20.3359 24.781 20.3359 25.3333C20.3359 25.8856 20.7837 26.3333 21.3359 26.3333V24.3333ZM4.33594 12V25.3333H6.33594V12H4.33594ZM4.33594 25.3333C4.33594 26.3058 4.72225 27.2384 5.40988 27.9261L6.82409 26.5118C6.51153 26.1993 6.33594 25.7754 6.33594 25.3333H4.33594ZM5.40988 27.9261C6.09751 28.6137 7.03014 29 8.0026 29V27C7.56058 27 7.13665 26.8244 6.82409 26.5118L5.40988 27.9261ZM8.0026 29H16.0026V27H8.0026V29ZM6.33594 12V9.33333H4.33594V12H6.33594ZM6.33594 9.33333C6.33594 8.89131 6.51153 8.46738 6.82409 8.15482L5.40988 6.74061C4.72225 7.42824 4.33594 8.36087 4.33594 9.33333H6.33594ZM6.82409 8.15482C7.13665 7.84226 7.56058 7.66667 8.0026 7.66667V5.66667C7.03014 5.66667 6.09751 6.05297 5.40988 6.74061L6.82409 8.15482ZM8.0026 7.66667C8.00399 7.66667 8.00537 7.66667 8.00676 7.66667C8.00815 7.66667 8.00955 7.66667 8.01095 7.66667C8.01235 7.66667 8.01375 7.66667 8.01516 7.66667C8.01657 7.66667 8.01799 7.66667 8.01941 7.66667C8.02083 7.66667 8.02225 7.66667 8.02368 7.66667C8.02511 7.66667 8.02654 7.66667 8.02798 7.66667C8.02942 7.66667 8.03086 7.66667 8.03231 7.66667C8.03375 7.66667 8.0352 7.66667 8.03666 7.66667C8.03812 7.66667 8.03958 7.66667 8.04104 7.66667C8.04251 7.66667 8.04398 7.66667 8.04545 7.66667C8.04693 7.66667 8.04841 7.66667 8.04989 7.66667C8.05137 7.66667 8.05286 7.66667 8.05435 7.66667C8.05585 7.66667 8.05734 7.66667 8.05885 7.66667C8.06035 7.66667 8.06185 7.66667 8.06336 7.66667C8.06487 7.66667 8.06639 7.66667 8.06791 7.66667C8.06943 7.66667 8.07095 7.66667 8.07248 7.66667C8.07401 7.66667 8.07554 7.66667 8.07708 7.66667C8.07861 7.66667 8.08015 7.66667 8.0817 7.66667C8.08325 7.66667 8.0848 7.66667 8.08635 7.66667C8.0879 7.66667 8.08946 7.66667 8.09103 7.66667C8.09259 7.66667 8.09416 7.66667 8.09573 7.66667C8.0973 7.66667 8.09887 7.66667 8.10045 7.66667C8.10203 7.66667 8.10362 7.66667 8.10521 7.66667C8.10679 7.66667 8.10839 7.66667 8.10998 7.66667C8.11158 7.66667 8.11318 7.66667 8.11479 7.66667C8.11639 7.66667 8.118 7.66667 8.11962 7.66667C8.12123 7.66667 8.12285 7.66667 8.12447 7.66667C8.12609 7.66667 8.12772 7.66667 8.12935 7.66667C8.13098 7.66667 8.13261 7.66667 8.13425 7.66667C8.13589 7.66667 8.13753 7.66667 8.13918 7.66667C8.14082 7.66667 8.14247 7.66667 8.14413 7.66667C8.14578 7.66667 8.14744 7.66667 8.1491 7.66667C8.2233 7.66667 8.15574 7.66667 8.23189 7.66667C8.23367 7.66667 8.23546 7.66667 8.23725 7.66667C8.23904 7.66667 8.24084 7.66667 8.24264 7.66667C8.24444 7.66667 8.24624 7.66667 8.24805 7.66667C8.24985 7.66667 8.25166 7.66667 8.25348 7.66667C8.25529 7.66667 8.25711 7.66667 8.25893 7.66667C8.26075 7.66667 8.26257 7.66667 8.2644 7.66667C8.26623 7.66667 8.26806 7.66667 8.26989 7.66667C8.27173 7.66667 8.27356 7.66667 8.27541 7.66667C8.27725 7.66667 8.27909 7.66667 8.28094 7.66667C8.28279 7.66667 8.28464 7.66667 8.28649 7.66667C8.28835 7.66667 8.29021 7.66667 8.29207 7.66667C8.29393 7.66667 8.2958 7.66667 8.29766 7.66667C8.29953 7.66667 8.3014 7.66667 8.30328 7.66667C8.30515 7.66667 8.30703 7.66667 8.30891 7.66667C8.3108 7.66667 8.31268 7.66667 8.31457 7.66667C8.31646 7.66667 8.31835 7.66667 8.32024 7.66667C8.32214 7.66667 8.32404 7.66667 8.32594 7.66667C8.32784 7.66667 8.32974 7.66667 8.33165 7.66667C8.33356 7.66667 8.33547 7.66667 8.33738 7.66667C8.3393 7.66667 8.34121 7.66667 8.34314 7.66667C8.34506 7.66667 8.34698 7.66667 8.34891 7.66667C8.35083 7.66667 8.35276 7.66667 8.35469 7.66667C8.35663 7.66667 8.35856 7.66667 8.3605 7.66667C8.36244 7.66667 8.36438 7.66667 8.36633 7.66667C8.36827 7.66667 8.37022 7.66667 8.37217 7.66667C8.37412 7.66667 8.37608 7.66667 8.37804 7.66667C8.37999 7.66667 8.38195 7.66667 8.38392 7.66667C8.38588 7.66667 8.38785 7.66667 8.38982 7.66667C8.39178 7.66667 8.39376 7.66667 8.39573 7.66667C8.39771 7.66667 8.39968 7.66667 8.40167 7.66667C8.40365 7.66667 8.40563 7.66667 8.40762 7.66667C8.4096 7.66667 8.41159 7.66667 8.41359 7.66667C8.41558 7.66667 8.41757 7.66667 8.41957 7.66667C8.42157 7.66667 8.42357 7.66667 8.42557 7.66667C8.42758 7.66667 8.42959 7.66667 8.43159 7.66667C8.4336 7.66667 8.43562 7.66667 8.43763 7.66667C8.43965 7.66667 8.44166 7.66667 8.44368 7.66667C8.4457 7.66667 8.44773 7.66667 8.44975 7.66667C8.45178 7.66667 8.45381 7.66667 8.45584 7.66667C8.45787 7.66667 8.45991 7.66667 8.46194 7.66667C8.46398 7.66667 8.46602 7.66667 8.46806 7.66667C8.4701 7.66667 8.47215 7.66667 8.47419 7.66667C8.47624 7.66667 8.47829 7.66667 8.48034 7.66667C8.4824 7.66667 8.48445 7.66667 8.48651 7.66667C8.48857 7.66667 8.49063 7.66667 8.49269 7.66667C8.49475 7.66667 8.49682 7.66667 8.49889 7.66667C8.50095 7.66667 8.50303 7.66667 8.5051 7.66667C8.50717 7.66667 8.50925 7.66667 8.51132 7.66667C8.5134 7.66667 8.51548 7.66667 8.51757 7.66667C8.51965 7.66667 8.52173 7.66667 8.52382 7.66667C8.52591 7.66667 8.528 7.66667 8.53009 7.66667C8.53218 7.66667 8.53428 7.66667 8.53638 7.66667C8.53847 7.66667 8.54057 7.66667 8.54268 7.66667C8.54478 7.66667 8.54688 7.66667 8.54899 7.66667C8.5511 7.66667 8.55321 7.66667 8.55532 7.66667C8.55743 7.66667 8.55954 7.66667 8.56166 7.66667C8.56377 7.66667 8.56589 7.66667 8.56801 7.66667C8.57013 7.66667 8.57226 7.66667 8.57438 7.66667C8.57651 7.66667 8.57863 7.66667 8.58076 7.66667C8.58289 7.66667 8.58503 7.66667 8.58716 7.66667C8.58929 7.66667 8.59143 7.66667 8.59357 7.66667C8.59571 7.66667 8.59785 7.66667 8.59999 7.66667C8.60213 7.66667 8.60428 7.66667 8.60642 7.66667C8.60857 7.66667 8.61072 7.66667 8.61287 7.66667C8.61502 7.66667 8.61718 7.66667 8.61933 7.66667C8.62149 7.66667 8.62364 7.66667 8.6258 7.66667C8.62796 7.66667 8.63012 7.66667 8.63229 7.66667C8.63445 7.66667 8.63662 7.66667 8.63878 7.66667C8.64095 7.66667 8.64312 7.66667 8.64529 7.66667C8.64746 7.66667 8.64964 7.66667 8.65181 7.66667C8.65399 7.66667 8.65617 7.66667 8.65835 7.66667C8.66053 7.66667 8.66271 7.66667 8.66489 7.66667C8.66707 7.66667 8.66926 7.66667 8.67144 7.66667C8.67363 7.66667 8.67582 7.66667 8.67801 7.66667C8.6802 7.66667 8.68239 7.66667 8.68459 7.66667C8.68678 7.66667 8.68898 7.66667 8.69118 7.66667C8.69338 7.66667 8.69558 7.66667 8.69778 7.66667C8.69998 7.66667 8.70218 7.66667 8.70439 7.66667C8.70659 7.66667 8.7088 7.66667 8.71101 7.66667C8.71322 7.66667 8.71543 7.66667 8.71764 7.66667C8.71985 7.66667 8.72207 7.66667 8.72428 7.66667C8.7265 7.66667 8.72871 7.66667 8.73093 7.66667C8.73315 7.66667 8.73537 7.66667 8.73759 7.66667C8.73982 7.66667 8.74204 7.66667 8.74427 7.66667C8.74649 7.66667 8.74872 7.66667 8.75095 7.66667C8.75318 7.66667 8.75541 7.66667 8.75764 7.66667C8.75987 7.66667 8.7621 7.66667 8.76434 7.66667C8.76657 7.66667 8.76881 7.66667 8.77105 7.66667C8.77329 7.66667 8.77552 7.66667 8.77777 7.66667C8.78001 7.66667 8.78225 7.66667 8.78449 7.66667C8.78674 7.66667 8.78898 7.66667 8.79123 7.66667C8.79348 7.66667 8.79573 7.66667 8.79798 7.66667C8.80022 7.66667 8.80248 7.66667 8.80473 7.66667C8.80698 7.66667 8.80924 7.66667 8.81149 7.66667C8.81375 7.66667 8.816 7.66667 8.81826 7.66667C8.82052 7.66667 8.82278 7.66667 8.82504 7.66667C8.8273 7.66667 8.82956 7.66667 8.83183 7.66667C8.83409 7.66667 8.83635 7.66667 8.83862 7.66667C8.84089 7.66667 8.84315 7.66667 8.84542 7.66667C8.84769 7.66667 8.84996 7.66667 8.85223 7.66667C8.8545 7.66667 8.85678 7.66667 8.85905 7.66667C8.86132 7.66667 8.8636 7.66667 8.86587 7.66667C8.86815 7.66667 8.87043 7.66667 8.8727 7.66667C8.87498 7.66667 8.87726 7.66667 8.87954 7.66667C8.88182 7.66667 8.88411 7.66667 8.88639 7.66667C8.88867 7.66667 8.89096 7.66667 8.89324 7.66667C8.89553 7.66667 8.89781 7.66667 8.9001 7.66667C8.90239 7.66667 8.90467 7.66667 8.90696 7.66667C8.90925 7.66667 8.91154 7.66667 8.91383 7.66667C8.91613 7.66667 8.91842 7.66667 8.92071 7.66667C8.92301 7.66667 8.9253 7.66667 8.9276 7.66667C8.92989 7.66667 8.93219 7.66667 8.93448 7.66667C8.93678 7.66667 8.93908 7.66667 8.94138 7.66667C8.94368 7.66667 8.94598 7.66667 8.94828 7.66667C8.95058 7.66667 8.95288 7.66667 8.95519 7.66667C8.95749 7.66667 8.95979 7.66667 8.9621 7.66667C8.9644 7.66667 8.96671 7.66667 8.96901 7.66667C8.97132 7.66667 8.97363 7.66667 8.97593 7.66667C8.97824 7.66667 8.98055 7.66667 8.98286 7.66667C8.98517 7.66667 8.98748 7.66667 8.98979 7.66667C8.9921 7.66667 8.99441 7.66667 8.99672 7.66667C8.99904 7.66667 9.00135 7.66667 9.00366 7.66667C9.00598 7.66667 9.00829 7.66667 9.01061 7.66667C9.01292 7.66667 9.01524 7.66667 9.01756 7.66667C9.01987 7.66667 9.02219 7.66667 9.02451 7.66667C9.02683 7.66667 9.02914 7.66667 9.03146 7.66667C9.03378 7.66667 9.0361 7.66667 9.03842 7.66667C9.04074 7.66667 9.04306 7.66667 9.04539 7.66667C9.04771 7.66667 9.05003 7.66667 9.05235 7.66667C9.05467 7.66667 9.057 7.66667 9.05932 7.66667C9.06165 7.66667 9.06397 7.66667 9.06629 7.66667C9.06862 7.66667 9.07094 7.66667 9.07327 7.66667C9.0756 7.66667 9.07792 7.66667 9.08025 7.66667C9.08257 7.66667 9.0849 7.66667 9.08723 7.66667C9.08956 7.66667 9.09188 7.66667 9.09421 7.66667C9.09654 7.66667 9.09887 7.66667 9.1012 7.66667C9.10353 7.66667 9.10586 7.66667 9.10819 7.66667C9.11052 7.66667 9.11285 7.66667 9.11518 7.66667C9.11751 7.66667 9.11984 7.66667 9.12217 7.66667C9.1245 7.66667 9.12683 7.66667 9.12916 7.66667C9.13149 7.66667 9.13383 7.66667 9.13616 7.66667C9.13849 7.66667 9.14082 7.66667 9.14316 7.66667C9.14549 7.66667 9.14782 7.66667 9.15016 7.66667C9.15249 7.66667 9.15482 7.66667 9.15715 7.66667C9.15949 7.66667 9.16182 7.66667 9.16416 7.66667C9.16649 7.66667 9.16882 7.66667 9.17116 7.66667C9.17349 7.66667 9.17583 7.66667 9.17816 7.66667C9.1805 7.66667 9.18283 7.66667 9.18516 7.66667C9.1875 7.66667 9.18983 7.66667 9.19217 7.66667C9.1945 7.66667 9.19684 7.66667 9.19917 7.66667C9.20151 7.66667 9.20384 7.66667 9.20618 7.66667C9.20851 7.66667 9.21085 7.66667 9.21318 7.66667C9.21552 7.66667 9.21785 7.66667 9.22019 7.66667C9.22252 7.66667 9.22486 7.66667 9.22719 7.66667C9.22953 7.66667 9.23186 7.66667 9.23419 7.66667C9.23653 7.66667 9.23886 7.66667 9.2412 7.66667C9.24353 7.66667 9.24587 7.66667 9.2482 7.66667C9.25054 7.66667 9.25287 7.66667 9.2552 7.66667C9.25754 7.66667 9.25987 7.66667 9.2622 7.66667C9.26454 7.66667 9.26687 7.66667 9.2692 7.66667C9.27154 7.66667 9.27387 7.66667 9.2762 7.66667C9.27854 7.66667 9.28087 7.66667 9.2832 7.66667C9.28553 7.66667 9.28787 7.66667 9.2902 7.66667C9.29253 7.66667 9.29486 7.66667 9.29719 7.66667C9.29952 7.66667 9.30185 7.66667 9.30418 7.66667C9.30651 7.66667 9.30885 7.66667 9.31118 7.66667C9.31351 7.66667 9.31583 7.66667 9.31816 7.66667C9.32049 7.66667 9.32282 7.66667 9.32515 7.66667C9.32748 7.66667 9.32981 7.66667 9.33213 7.66667C9.33446 7.66667 9.33679 7.66667 9.33912 7.66667C9.34144 7.66667 9.34377 7.66667 9.3461 7.66667C9.34842 7.66667 9.35075 7.66667 9.35307 7.66667C9.3554 7.66667 9.35772 7.66667 9.36004 7.66667C9.36237 7.66667 9.36469 7.66667 9.36702 7.66667C9.36934 7.66667 9.37166 7.66667 9.37398 7.66667C9.3763 7.66667 9.37863 7.66667 9.38095 7.66667C9.38327 7.66667 9.38559 7.66667 9.38791 7.66667C9.39023 7.66667 9.39254 7.66667 9.39486 7.66667C9.39718 7.66667 9.3995 7.66667 9.40182 7.66667C9.40413 7.66667 9.40645 7.66667 9.40876 7.66667C9.41108 7.66667 9.4134 7.66667 9.41571 7.66667C9.41802 7.66667 9.42034 7.66667 9.42265 7.66667C9.42496 7.66667 9.42727 7.66667 9.42959 7.66667C9.4319 7.66667 9.43421 7.66667 9.43652 7.66667C9.43883 7.66667 9.44114 7.66667 9.44345 7.66667C9.44575 7.66667 9.44806 7.66667 9.45037 7.66667C9.45267 7.66667 9.45498 7.66667 9.45728 7.66667C9.45959 7.66667 9.46189 7.66667 9.4642 7.66667C9.4665 7.66667 9.4688 7.66667 9.4711 7.66667C9.47341 7.66667 9.47571 7.66667 9.47801 7.66667C9.48031 7.66667 9.4826 7.66667 9.4849 7.66667C9.4872 7.66667 9.4895 7.66667 9.49179 7.66667C9.49409 7.66667 9.49638 7.66667 9.49868 7.66667C9.50097 7.66667 9.50326 7.66667 9.50556 7.66667C9.50785 7.66667 9.51014 7.66667 9.51243 7.66667C9.51472 7.66667 9.51701 7.66667 9.51929 7.66667C9.52158 7.66667 9.52387 7.66667 9.52615 7.66667C9.52844 7.66667 9.53073 7.66667 9.53301 7.66667C9.53529 7.66667 9.53757 7.66667 9.53986 7.66667C9.54214 7.66667 9.54442 7.66667 9.5467 7.66667C9.54897 7.66667 9.55125 7.66667 9.55353 7.66667C9.55581 7.66667 9.55808 7.66667 9.56035 7.66667C9.56263 7.66667 9.5649 7.66667 9.56717 7.66667C9.56945 7.66667 9.57172 7.66667 9.57399 7.66667C9.57625 7.66667 9.57852 7.66667 9.58079 7.66667C9.58306 7.66667 9.58532 7.66667 9.58758 7.66667C9.58985 7.66667 9.59211 7.66667 9.59437 7.66667C9.59664 7.66667 9.5989 7.66667 9.60115 7.66667C9.60341 7.66667 9.60567 7.66667 9.60793 7.66667C9.61018 7.66667 9.61244 7.66667 9.61469 7.66667C9.61694 7.66667 9.6192 7.66667 9.62145 7.66667C9.6237 7.66667 9.62595 7.66667 9.62819 7.66667C9.63044 7.66667 9.63269 7.66667 9.63493 7.66667C9.63718 7.66667 9.63942 7.66667 9.64166 7.66667C9.6439 7.66667 9.64614 7.66667 9.64838 7.66667C9.65062 7.66667 9.65286 7.66667 9.65509 7.66667C9.65733 7.66667 9.65956 7.66667 9.6618 7.66667C9.66403 7.66667 9.66626 7.66667 9.66849 7.66667C9.67072 7.66667 9.67295 7.66667 9.67517 7.66667C9.6774 7.66667 9.67963 7.66667 9.68185 7.66667C9.68407 7.66667 9.68629 7.66667 9.68851 7.66667C9.69073 7.66667 9.69295 7.66667 9.69517 7.66667C9.69738 7.66667 9.6996 7.66667 9.70181 7.66667C9.70402 7.66667 9.70623 7.66667 9.70844 7.66667C9.71065 7.66667 9.71286 7.66667 9.71507 7.66667C9.71727 7.66667 9.71948 7.66667 9.72168 7.66667C9.72388 7.66667 9.72608 7.66667 9.72828 7.66667C9.73048 7.66667 9.73268 7.66667 9.73487 7.66667C9.73707 7.66667 9.73926 7.66667 9.74145 7.66667C9.74365 7.66667 9.74584 7.66667 9.74802 7.66667C9.75021 7.66667 9.7524 7.66667 9.75458 7.66667C9.75677 7.66667 9.75895 7.66667 9.76113 7.66667C9.76331 7.66667 9.76549 7.66667 9.76766 7.66667C9.76984 7.66667 9.77201 7.66667 9.77419 7.66667C9.77636 7.66667 9.77853 7.66667 9.7807 7.66667C9.78287 7.66667 9.78503 7.66667 9.7872 7.66667C9.78936 7.66667 9.79152 7.66667 9.79369 7.66667C9.79585 7.66667 9.798 7.66667 9.80016 7.66667C9.80232 7.66667 9.80447 7.66667 9.80662 7.66667C9.80878 7.66667 9.81093 7.66667 9.81307 7.66667C9.81522 7.66667 9.81737 7.66667 9.81951 7.66667C9.82166 7.66667 9.8238 7.66667 9.82594 7.66667C9.82808 7.66667 9.83021 7.66667 9.83235 7.66667C9.83448 7.66667 9.83662 7.66667 9.83875 7.66667C9.84088 7.66667 9.84301 7.66667 9.84513 7.66667C9.84726 7.66667 9.84938 7.66667 9.8515 7.66667C9.85363 7.66667 9.85575 7.66667 9.85786 7.66667C9.85998 7.66667 9.86209 7.66667 9.86421 7.66667C9.86632 7.66667 9.86843 7.66667 9.87054 7.66667C9.87265 7.66667 9.87475 7.66667 9.87686 7.66667C9.87896 7.66667 9.88106 7.66667 9.88316 7.66667C9.88526 7.66667 9.88735 7.66667 9.88945 7.66667C9.89154 7.66667 9.89363 7.66667 9.89572 7.66667C9.89781 7.66667 9.8999 7.66667 9.90198 7.66667C9.90406 7.66667 9.90615 7.66667 9.90823 7.66667C9.91031 7.66667 9.91238 7.66667 9.91446 7.66667C9.91653 7.66667 9.9186 7.66667 9.92067 7.66667C9.92274 7.66667 9.92481 7.66667 9.92687 7.66667C9.92894 7.66667 9.931 7.66667 9.93306 7.66667C9.93511 7.66667 9.93717 7.66667 9.93922 7.66667C9.94128 7.66667 9.94333 7.66667 9.94538 7.66667C9.94743 7.66667 9.94947 7.66667 9.95152 7.66667C9.95356 7.66667 9.9556 7.66667 9.95764 7.66667C9.95968 7.66667 9.96171 7.66667 9.96374 7.66667C9.96578 7.66667 9.96781 7.66667 9.96983 7.66667C9.97186 7.66667 9.97389 7.66667 9.97591 7.66667C9.97793 7.66667 9.97995 7.66667 9.98197 7.66667C9.98398 7.66667 9.986 7.66667 9.98801 7.66667C9.99002 7.66667 9.99203 7.66667 9.99403 7.66667C9.99604 7.66667 9.99804 7.66667 10 7.66667C10.002 7.66667 10.004 7.66667 10.006 7.66667C10.008 7.66667 10.01 7.66667 10.012 7.66667C10.014 7.66667 10.016 7.66667 10.018 7.66667C10.0199 7.66667 10.0219 7.66667 10.0239 7.66667C10.0259 7.66667 10.0278 7.66667 10.0298 7.66667C10.0318 7.66667 10.0338 7.66667 10.0357 7.66667C10.0377 7.66667 10.0396 7.66667 10.0416 7.66667C10.0436 7.66667 10.0455 7.66667 10.0475 7.66667C10.0494 7.66667 10.0514 7.66667 10.0533 7.66667C10.0553 7.66667 10.0572 7.66667 10.0592 7.66667C10.0611 7.66667 10.063 7.66667 10.065 7.66667C10.0669 7.66667 10.0688 7.66667 10.0708 7.66667C10.0727 7.66667 10.0746 7.66667 10.0765 7.66667C10.0785 7.66667 10.0804 7.66667 10.0823 7.66667C10.0842 7.66667 10.0861 7.66667 10.088 7.66667C10.0899 7.66667 10.0918 7.66667 10.0937 7.66667C10.0956 7.66667 10.0975 7.66667 10.0994 7.66667C10.1013 7.66667 10.1032 7.66667 10.1051 7.66667C10.1447 7.66667 10.1107 7.66667 10.1498 7.66667C10.1517 7.66667 10.1535 7.66667 10.1553 7.66667C10.1572 7.66667 10.159 7.66667 10.1608 7.66667C10.1626 7.66667 10.1645 7.66667 10.1663 7.66667C10.1681 7.66667 10.1699 7.66667 10.1717 7.66667C10.1735 7.66667 10.1753 7.66667 10.1771 7.66667C10.1789 7.66667 10.1807 7.66667 10.1825 7.66667C10.1843 7.66667 10.1861 7.66667 10.1879 7.66667C10.1897 7.66667 10.1915 7.66667 10.1932 7.66667C10.195 7.66667 10.1968 7.66667 10.1986 7.66667C10.2003 7.66667 10.2021 7.66667 10.2039 7.66667C10.2056 7.66667 10.2074 7.66667 10.2091 7.66667C10.2109 7.66667 10.2127 7.66667 10.2144 7.66667C10.2162 7.66667 10.2179 7.66667 10.2196 7.66667C10.2214 7.66667 10.2231 7.66667 10.2249 7.66667C10.2266 7.66667 10.2283 7.66667 10.2301 7.66667C10.2318 7.66667 10.2335 7.66667 10.2352 7.66667C10.2369 7.66667 10.2387 7.66667 10.2404 7.66667C10.2421 7.66667 10.2438 7.66667 10.2455 7.66667C10.2472 7.66667 10.2489 7.66667 10.2506 7.66667C10.2523 7.66667 10.254 7.66667 10.2557 7.66667C10.2574 7.66667 10.259 7.66667 10.2607 7.66667C10.2624 7.66667 10.2641 7.66667 10.2658 7.66667C10.2674 7.66667 10.2691 7.66667 10.2708 7.66667C10.2724 7.66667 10.2741 7.66667 10.2757 7.66667C10.2774 7.66667 10.279 7.66667 10.2807 7.66667C10.2823 7.66667 10.284 7.66667 10.2856 7.66667C10.2873 7.66667 10.2889 7.66667 10.2905 7.66667C10.2922 7.66667 10.2938 7.66667 10.2954 7.66667C10.297 7.66667 10.2987 7.66667 10.3003 7.66667C10.3019 7.66667 10.3035 7.66667 10.3051 7.66667C10.3067 7.66667 10.3083 7.66667 10.3099 7.66667C10.3115 7.66667 10.3131 7.66667 10.3147 7.66667C10.3163 7.66667 10.3179 7.66667 10.3195 7.66667C10.3211 7.66667 10.3226 7.66667 10.3242 7.66667C10.3258 7.66667 10.3273 7.66667 10.3289 7.66667C10.3305 7.66667 10.332 7.66667 10.3336 7.66667C10.3351 7.66667 10.3367 7.66667 10.3382 7.66667C10.3398 7.66667 10.3413 7.66667 10.3429 7.66667C10.3444 7.66667 10.346 7.66667 10.3475 7.66667C10.349 7.66667 10.3505 7.66667 10.3521 7.66667C10.3536 7.66667 10.3551 7.66667 10.3566 7.66667C10.3581 7.66667 10.3596 7.66667 10.3611 7.66667C10.3626 7.66667 10.3641 7.66667 10.3656 7.66667C10.3671 7.66667 10.3686 7.66667 10.3701 7.66667C10.3716 7.66667 10.3731 7.66667 10.3745 7.66667C10.376 7.66667 10.3775 7.66667 10.379 7.66667C10.3804 7.66667 10.3819 7.66667 10.3834 7.66667C10.3848 7.66667 10.3863 7.66667 10.3877 7.66667C10.3892 7.66667 10.3906 7.66667 10.3921 7.66667C10.3935 7.66667 10.3949 7.66667 10.3964 7.66667C10.3978 7.66667 10.3992 7.66667 10.4006 7.66667C10.4021 7.66667 10.4035 7.66667 10.4049 7.66667C10.4063 7.66667 10.4077 7.66667 10.4091 7.66667C10.4105 7.66667 10.4119 7.66667 10.4133 7.66667C10.4147 7.66667 10.4161 7.66667 10.4175 7.66667C10.4189 7.66667 10.4202 7.66667 10.4216 7.66667C10.423 7.66667 10.4243 7.66667 10.4257 7.66667C10.4271 7.66667 10.4284 7.66667 10.4298 7.66667C10.4311 7.66667 10.4325 7.66667 10.4338 7.66667C10.4352 7.66667 10.4365 7.66667 10.4379 7.66667C10.4392 7.66667 10.4405 7.66667 10.4419 7.66667C10.4432 7.66667 10.4445 7.66667 10.4458 7.66667C10.4471 7.66667 10.4484 7.66667 10.4497 7.66667C10.4511 7.66667 10.4524 7.66667 10.4537 7.66667C10.4549 7.66667 10.4562 7.66667 10.4575 7.66667C10.4588 7.66667 10.4601 7.66667 10.4614 7.66667C10.4626 7.66667 10.4639 7.66667 10.4652 7.66667C10.4664 7.66667 10.4677 7.66667 10.469 7.66667C10.4702 7.66667 10.4715 7.66667 10.4727 7.66667C10.474 7.66667 10.4752 7.66667 10.4764 7.66667C10.4777 7.66667 10.4789 7.66667 10.4801 7.66667C10.4813 7.66667 10.4826 7.66667 10.4838 7.66667C10.485 7.66667 10.4862 7.66667 10.4874 7.66667C10.4886 7.66667 10.4898 7.66667 10.491 7.66667C10.4922 7.66667 10.4934 7.66667 10.4946 7.66667C10.4958 7.66667 10.4969 7.66667 10.4981 7.66667C10.4993 7.66667 10.5004 7.66667 10.5016 7.66667C10.5028 7.66667 10.5039 7.66667 10.5051 7.66667C10.5062 7.66667 10.5074 7.66667 10.5085 7.66667C10.5097 7.66667 10.5108 7.66667 10.5119 7.66667C10.5131 7.66667 10.5142 7.66667 10.5153 7.66667C10.5164 7.66667 10.5175 7.66667 10.5186 7.66667C10.5198 7.66667 10.5209 7.66667 10.522 7.66667C10.5231 7.66667 10.5241 7.66667 10.5252 7.66667C10.5263 7.66667 10.5274 7.66667 10.5285 7.66667C10.5296 7.66667 10.5306 7.66667 10.5317 7.66667C10.5328 7.66667 10.5338 7.66667 10.5349 7.66667C10.5359 7.66667 10.537 7.66667 10.538 7.66667C10.5391 7.66667 10.5401 7.66667 10.5411 7.66667C10.5422 7.66667 10.5432 7.66667 10.5442 7.66667C10.5452 7.66667 10.5462 7.66667 10.5472 7.66667C10.5483 7.66667 10.5493 7.66667 10.5503 7.66667C10.5513 7.66667 10.5522 7.66667 10.5532 7.66667C10.5542 7.66667 10.5552 7.66667 10.5562 7.66667C10.5571 7.66667 10.5581 7.66667 10.5591 7.66667C10.56 7.66667 10.561 7.66667 10.562 7.66667C10.5629 7.66667 10.5639 7.66667 10.5648 7.66667C10.5657 7.66667 10.5667 7.66667 10.5676 7.66667C10.5685 7.66667 10.5695 7.66667 10.5704 7.66667C10.5713 7.66667 10.5722 7.66667 10.5731 7.66667C10.574 7.66667 10.5749 7.66667 10.5758 7.66667C10.5767 7.66667 10.5776 7.66667 10.5785 7.66667C10.5794 7.66667 10.5802 7.66667 10.5811 7.66667C10.582 7.66667 10.5828 7.66667 10.5837 7.66667C10.5846 7.66667 10.5854 7.66667 10.5863 7.66667C10.5871 7.66667 10.5879 7.66667 10.5888 7.66667C10.5896 7.66667 10.5904 7.66667 10.5913 7.66667C10.5921 7.66667 10.5929 7.66667 10.5937 7.66667C10.5945 7.66667 10.5953 7.66667 10.5961 7.66667C10.5969 7.66667 10.5977 7.66667 10.5985 7.66667C10.5993 7.66667 10.6001 7.66667 10.6008 7.66667C10.6016 7.66667 10.6024 7.66667 10.6032 7.66667C10.6039 7.66667 10.6047 7.66667 10.6054 7.66667C10.6062 7.66667 10.6069 7.66667 10.6077 7.66667C10.6084 7.66667 10.6091 7.66667 10.6098 7.66667C10.6106 7.66667 10.6113 7.66667 10.612 7.66667C10.6127 7.66667 10.6134 7.66667 10.6141 7.66667C10.6148 7.66667 10.6155 7.66667 10.6162 7.66667C10.6169 7.66667 10.6176 7.66667 10.6182 7.66667C10.6189 7.66667 10.6196 7.66667 10.6203 7.66667C10.6209 7.66667 10.6216 7.66667 10.6222 7.66667C10.6229 7.66667 10.6235 7.66667 10.6242 7.66667C10.6248 7.66667 10.6254 7.66667 10.626 7.66667C10.6267 7.66667 10.6273 7.66667 10.6279 7.66667C10.6285 7.66667 10.6291 7.66667 10.6297 7.66667C10.6303 7.66667 10.6309 7.66667 10.6315 7.66667C10.6321 7.66667 10.6327 7.66667 10.6332 7.66667C10.6338 7.66667 10.6344 7.66667 10.6349 7.66667C10.6355 7.66667 10.636 7.66667 10.6366 7.66667C10.6371 7.66667 10.6377 7.66667 10.6382 7.66667C10.6387 7.66667 10.6393 7.66667 10.6398 7.66667C10.6403 7.66667 10.6408 7.66667 10.6413 7.66667C10.6418 7.66667 10.6423 7.66667 10.6428 7.66667C10.6433 7.66667 10.6438 7.66667 10.6443 7.66667C10.6448 7.66667 10.6452 7.66667 10.6457 7.66667C10.6462 7.66667 10.6466 7.66667 10.6471 7.66667C10.6475 7.66667 10.648 7.66667 10.6484 7.66667C10.6489 7.66667 10.6493 7.66667 10.6497 7.66667C10.6502 7.66667 10.6506 7.66667 10.651 7.66667C10.6514 7.66667 10.6518 7.66667 10.6522 7.66667C10.6526 7.66667 10.653 7.66667 10.6534 7.66667C10.6538 7.66667 10.6542 7.66667 10.6545 7.66667C10.6549 7.66667 10.6553 7.66667 10.6556 7.66667C10.656 7.66667 10.6563 7.66667 10.6567 7.66667C10.657 7.66667 10.6574 7.66667 10.6577 7.66667C10.658 7.66667 10.6584 7.66667 10.6587 7.66667C10.659 7.66667 10.6593 7.66667 10.6596 7.66667C10.6599 7.66667 10.6602 7.66667 10.6605 7.66667C10.6608 7.66667 10.6611 7.66667 10.6613 7.66667C10.6616 7.66667 10.6619 7.66667 10.6621 7.66667C10.6624 7.66667 10.6627 7.66667 10.6629 7.66667C10.6632 7.66667 10.6634 7.66667 10.6636 7.66667C10.6639 7.66667 10.6641 7.66667 10.6643 7.66667C10.6645 7.66667 10.6647 7.66667 10.6649 7.66667C10.6651 7.66667 10.6653 7.66667 10.6655 7.66667C10.6657 7.66667 10.6659 7.66667 10.6661 7.66667C10.6663 7.66667 10.6664 7.66667 10.6666 7.66667C10.6668 7.66667 10.6669 7.66667 10.6671 7.66667C10.6672 7.66667 10.6673 7.66667 10.6675 7.66667C10.6676 7.66667 10.6677 7.66667 10.6678 7.66667C10.668 7.66667 10.6681 7.66667 10.6682 7.66667C10.6683 7.66667 10.6684 7.66667 10.6685 7.66667C10.6686 7.66667 10.6686 7.66667 10.6687 7.66667C10.6688 7.66667 10.6689 7.66667 10.6689 7.66667C10.669 7.66667 10.669 7.66667 10.6691 7.66667C10.6691 7.66667 10.6692 7.66667 10.6692 7.66667C10.6692 7.66667 10.6692 7.66667 10.6692 7.66667C10.6693 7.66667 10.6693 7.66667 10.6693 6.66667C10.6693 5.66667 10.6693 5.66667 10.6692 5.66667C10.6692 5.66667 10.6692 5.66667 10.6692 5.66667C10.6692 5.66667 10.6691 5.66667 10.6691 5.66667C10.669 5.66667 10.669 5.66667 10.6689 5.66667C10.6689 5.66667 10.6688 5.66667 10.6687 5.66667C10.6686 5.66667 10.6686 5.66667 10.6685 5.66667C10.6684 5.66667 10.6683 5.66667 10.6682 5.66667C10.6681 5.66667 10.668 5.66667 10.6678 5.66667C10.6677 5.66667 10.6676 5.66667 10.6675 5.66667C10.6673 5.66667 10.6672 5.66667 10.6671 5.66667C10.6669 5.66667 10.6668 5.66667 10.6666 5.66667C10.6664 5.66667 10.6663 5.66667 10.6661 5.66667C10.6659 5.66667 10.6657 5.66667 10.6655 5.66667C10.6653 5.66667 10.6651 5.66667 10.6649 5.66667C10.6647 5.66667 10.6645 5.66667 10.6643 5.66667C10.6641 5.66667 10.6639 5.66667 10.6636 5.66667C10.6634 5.66667 10.6632 5.66667 10.6629 5.66667C10.6627 5.66667 10.6624 5.66667 10.6621 5.66667C10.6619 5.66667 10.6616 5.66667 10.6613 5.66667C10.6611 5.66667 10.6608 5.66667 10.6605 5.66667C10.6602 5.66667 10.6599 5.66667 10.6596 5.66667C10.6593 5.66667 10.659 5.66667 10.6587 5.66667C10.6584 5.66667 10.658 5.66667 10.6577 5.66667C10.6574 5.66667 10.657 5.66667 10.6567 5.66667C10.6563 5.66667 10.656 5.66667 10.6556 5.66667C10.6553 5.66667 10.6549 5.66667 10.6545 5.66667C10.6542 5.66667 10.6538 5.66667 10.6534 5.66667C10.653 5.66667 10.6526 5.66667 10.6522 5.66667C10.6518 5.66667 10.6514 5.66667 10.651 5.66667C10.6506 5.66667 10.6502 5.66667 10.6497 5.66667C10.6493 5.66667 10.6489 5.66667 10.6484 5.66667C10.648 5.66667 10.6475 5.66667 10.6471 5.66667C10.6466 5.66667 10.6462 5.66667 10.6457 5.66667C10.6452 5.66667 10.6448 5.66667 10.6443 5.66667C10.6438 5.66667 10.6433 5.66667 10.6428 5.66667C10.6423 5.66667 10.6418 5.66667 10.6413 5.66667C10.6408 5.66667 10.6403 5.66667 10.6398 5.66667C10.6393 5.66667 10.6387 5.66667 10.6382 5.66667C10.6377 5.66667 10.6371 5.66667 10.6366 5.66667C10.636 5.66667 10.6355 5.66667 10.6349 5.66667C10.6344 5.66667 10.6338 5.66667 10.6332 5.66667C10.6327 5.66667 10.6321 5.66667 10.6315 5.66667C10.6309 5.66667 10.6303 5.66667 10.6297 5.66667C10.6291 5.66667 10.6285 5.66667 10.6279 5.66667C10.6273 5.66667 10.6267 5.66667 10.626 5.66667C10.6254 5.66667 10.6248 5.66667 10.6242 5.66667C10.6235 5.66667 10.6229 5.66667 10.6222 5.66667C10.6216 5.66667 10.6209 5.66667 10.6203 5.66667C10.6196 5.66667 10.6189 5.66667 10.6182 5.66667C10.6176 5.66667 10.6169 5.66667 10.6162 5.66667C10.6155 5.66667 10.6148 5.66667 10.6141 5.66667C10.6134 5.66667 10.6127 5.66667 10.612 5.66667C10.6113 5.66667 10.6106 5.66667 10.6098 5.66667C10.6091 5.66667 10.6084 5.66667 10.6077 5.66667C10.6069 5.66667 10.6062 5.66667 10.6054 5.66667C10.6047 5.66667 10.6039 5.66667 10.6032 5.66667C10.6024 5.66667 10.6016 5.66667 10.6008 5.66667C10.6001 5.66667 10.5993 5.66667 10.5985 5.66667C10.5977 5.66667 10.5969 5.66667 10.5961 5.66667C10.5953 5.66667 10.5945 5.66667 10.5937 5.66667C10.5929 5.66667 10.5921 5.66667 10.5913 5.66667C10.5904 5.66667 10.5896 5.66667 10.5888 5.66667C10.5879 5.66667 10.5871 5.66667 10.5863 5.66667C10.5854 5.66667 10.5846 5.66667 10.5837 5.66667C10.5828 5.66667 10.582 5.66667 10.5811 5.66667C10.5802 5.66667 10.5794 5.66667 10.5785 5.66667C10.5776 5.66667 10.5767 5.66667 10.5758 5.66667C10.5749 5.66667 10.574 5.66667 10.5731 5.66667C10.5722 5.66667 10.5713 5.66667 10.5704 5.66667C10.5695 5.66667 10.5685 5.66667 10.5676 5.66667C10.5667 5.66667 10.5657 5.66667 10.5648 5.66667C10.5639 5.66667 10.5629 5.66667 10.562 5.66667C10.561 5.66667 10.56 5.66667 10.5591 5.66667C10.5581 5.66667 10.5571 5.66667 10.5562 5.66667C10.5552 5.66667 10.5542 5.66667 10.5532 5.66667C10.5522 5.66667 10.5513 5.66667 10.5503 5.66667C10.5493 5.66667 10.5483 5.66667 10.5472 5.66667C10.5462 5.66667 10.5452 5.66667 10.5442 5.66667C10.5432 5.66667 10.5422 5.66667 10.5411 5.66667C10.5401 5.66667 10.5391 5.66667 10.538 5.66667C10.537 5.66667 10.5359 5.66667 10.5349 5.66667C10.5338 5.66667 10.5328 5.66667 10.5317 5.66667C10.5306 5.66667 10.5296 5.66667 10.5285 5.66667C10.5274 5.66667 10.5263 5.66667 10.5252 5.66667C10.5241 5.66667 10.5231 5.66667 10.522 5.66667C10.5209 5.66667 10.5198 5.66667 10.5186 5.66667C10.5175 5.66667 10.5164 5.66667 10.5153 5.66667C10.5142 5.66667 10.5131 5.66667 10.5119 5.66667C10.5108 5.66667 10.5097 5.66667 10.5085 5.66667C10.5074 5.66667 10.5062 5.66667 10.5051 5.66667C10.5039 5.66667 10.5028 5.66667 10.5016 5.66667C10.5004 5.66667 10.4993 5.66667 10.4981 5.66667C10.4969 5.66667 10.4958 5.66667 10.4946 5.66667C10.4934 5.66667 10.4922 5.66667 10.491 5.66667C10.4898 5.66667 10.4886 5.66667 10.4874 5.66667C10.4862 5.66667 10.485 5.66667 10.4838 5.66667C10.4826 5.66667 10.4813 5.66667 10.4801 5.66667C10.4789 5.66667 10.4777 5.66667 10.4764 5.66667C10.4752 5.66667 10.474 5.66667 10.4727 5.66667C10.4715 5.66667 10.4702 5.66667 10.469 5.66667C10.4677 5.66667 10.4664 5.66667 10.4652 5.66667C10.4639 5.66667 10.4626 5.66667 10.4614 5.66667C10.4601 5.66667 10.4588 5.66667 10.4575 5.66667C10.4562 5.66667 10.4549 5.66667 10.4537 5.66667C10.4524 5.66667 10.4511 5.66667 10.4497 5.66667C10.4484 5.66667 10.4471 5.66667 10.4458 5.66667C10.4445 5.66667 10.4432 5.66667 10.4419 5.66667C10.4405 5.66667 10.4392 5.66667 10.4379 5.66667C10.4365 5.66667 10.4352 5.66667 10.4338 5.66667C10.4325 5.66667 10.4311 5.66667 10.4298 5.66667C10.4284 5.66667 10.4271 5.66667 10.4257 5.66667C10.4243 5.66667 10.423 5.66667 10.4216 5.66667C10.4202 5.66667 10.4189 5.66667 10.4175 5.66667C10.4161 5.66667 10.4147 5.66667 10.4133 5.66667C10.4119 5.66667 10.4105 5.66667 10.4091 5.66667C10.4077 5.66667 10.4063 5.66667 10.4049 5.66667C10.4035 5.66667 10.4021 5.66667 10.4006 5.66667C10.3992 5.66667 10.3978 5.66667 10.3964 5.66667C10.3949 5.66667 10.3935 5.66667 10.3921 5.66667C10.3906 5.66667 10.3892 5.66667 10.3877 5.66667C10.3863 5.66667 10.3848 5.66667 10.3834 5.66667C10.3819 5.66667 10.3804 5.66667 10.379 5.66667C10.3775 5.66667 10.376 5.66667 10.3745 5.66667C10.3731 5.66667 10.3716 5.66667 10.3701 5.66667C10.3686 5.66667 10.3671 5.66667 10.3656 5.66667C10.3641 5.66667 10.3626 5.66667 10.3611 5.66667C10.3596 5.66667 10.3581 5.66667 10.3566 5.66667C10.3551 5.66667 10.3536 5.66667 10.3521 5.66667C10.3505 5.66667 10.349 5.66667 10.3475 5.66667C10.346 5.66667 10.3444 5.66667 10.3429 5.66667C10.3413 5.66667 10.3398 5.66667 10.3382 5.66667C10.3367 5.66667 10.3351 5.66667 10.3336 5.66667C10.332 5.66667 10.3305 5.66667 10.3289 5.66667C10.3273 5.66667 10.3258 5.66667 10.3242 5.66667C10.3226 5.66667 10.3211 5.66667 10.3195 5.66667C10.3179 5.66667 10.3163 5.66667 10.3147 5.66667C10.3131 5.66667 10.3115 5.66667 10.3099 5.66667C10.3083 5.66667 10.3067 5.66667 10.3051 5.66667C10.3035 5.66667 10.3019 5.66667 10.3003 5.66667C10.2987 5.66667 10.297 5.66667 10.2954 5.66667C10.2938 5.66667 10.2922 5.66667 10.2905 5.66667C10.2889 5.66667 10.2873 5.66667 10.2856 5.66667C10.284 5.66667 10.2823 5.66667 10.2807 5.66667C10.279 5.66667 10.2774 5.66667 10.2757 5.66667C10.2741 5.66667 10.2724 5.66667 10.2708 5.66667C10.2691 5.66667 10.2674 5.66667 10.2658 5.66667C10.2641 5.66667 10.2624 5.66667 10.2607 5.66667C10.259 5.66667 10.2574 5.66667 10.2557 5.66667C10.254 5.66667 10.2523 5.66667 10.2506 5.66667C10.2489 5.66667 10.2472 5.66667 10.2455 5.66667C10.2438 5.66667 10.2421 5.66667 10.2404 5.66667C10.2387 5.66667 10.2369 5.66667 10.2352 5.66667C10.2335 5.66667 10.2318 5.66667 10.2301 5.66667C10.2283 5.66667 10.2266 5.66667 10.2249 5.66667C10.2231 5.66667 10.2214 5.66667 10.2196 5.66667C10.2179 5.66667 10.2162 5.66667 10.2144 5.66667C10.2127 5.66667 10.2109 5.66667 10.2091 5.66667C10.2074 5.66667 10.2056 5.66667 10.2039 5.66667C10.2021 5.66667 10.2003 5.66667 10.1986 5.66667C10.1968 5.66667 10.195 5.66667 10.1932 5.66667C10.1144 5.66667 10.1858 5.66667 10.1051 5.66667C10.1032 5.66667 10.1013 5.66667 10.0994 5.66667C10.0975 5.66667 10.0956 5.66667 10.0937 5.66667C10.0918 5.66667 10.0899 5.66667 10.088 5.66667C10.0861 5.66667 10.0842 5.66667 10.0823 5.66667C10.0804 5.66667 10.0785 5.66667 10.0765 5.66667C10.0746 5.66667 10.0727 5.66667 10.0708 5.66667C10.0688 5.66667 10.0669 5.66667 10.065 5.66667C10.063 5.66667 10.0611 5.66667 10.0592 5.66667C10.0572 5.66667 10.0553 5.66667 10.0533 5.66667C10.0514 5.66667 10.0494 5.66667 10.0475 5.66667C10.0455 5.66667 10.0436 5.66667 10.0416 5.66667C10.0396 5.66667 10.0377 5.66667 10.0357 5.66667C10.0338 5.66667 10.0318 5.66667 10.0298 5.66667C10.0278 5.66667 10.0259 5.66667 10.0239 5.66667C10.0219 5.66667 10.0199 5.66667 10.018 5.66667C10.016 5.66667 10.014 5.66667 10.012 5.66667C10.01 5.66667 10.008 5.66667 10.006 5.66667C10.004 5.66667 10.002 5.66667 10 5.66667C9.99804 5.66667 9.99604 5.66667 9.99403 5.66667C9.99203 5.66667 9.99002 5.66667 9.98801 5.66667C9.986 5.66667 9.98398 5.66667 9.98197 5.66667C9.97995 5.66667 9.97793 5.66667 9.97591 5.66667C9.97389 5.66667 9.97186 5.66667 9.96983 5.66667C9.96781 5.66667 9.96578 5.66667 9.96374 5.66667C9.96171 5.66667 9.95968 5.66667 9.95764 5.66667C9.9556 5.66667 9.95356 5.66667 9.95152 5.66667C9.94947 5.66667 9.94743 5.66667 9.94538 5.66667C9.94333 5.66667 9.94128 5.66667 9.93922 5.66667C9.93717 5.66667 9.93511 5.66667 9.93306 5.66667C9.931 5.66667 9.92894 5.66667 9.92687 5.66667C9.92481 5.66667 9.92274 5.66667 9.92067 5.66667C9.9186 5.66667 9.91653 5.66667 9.91446 5.66667C9.91238 5.66667 9.91031 5.66667 9.90823 5.66667C9.90615 5.66667 9.90406 5.66667 9.90198 5.66667C9.8999 5.66667 9.89781 5.66667 9.89572 5.66667C9.89363 5.66667 9.89154 5.66667 9.88945 5.66667C9.88735 5.66667 9.88526 5.66667 9.88316 5.66667C9.88106 5.66667 9.87896 5.66667 9.87686 5.66667C9.87475 5.66667 9.87265 5.66667 9.87054 5.66667C9.86843 5.66667 9.86632 5.66667 9.86421 5.66667C9.86209 5.66667 9.85998 5.66667 9.85786 5.66667C9.85575 5.66667 9.85363 5.66667 9.8515 5.66667C9.84938 5.66667 9.84726 5.66667 9.84513 5.66667C9.84301 5.66667 9.84088 5.66667 9.83875 5.66667C9.83662 5.66667 9.83448 5.66667 9.83235 5.66667C9.83021 5.66667 9.82808 5.66667 9.82594 5.66667C9.8238 5.66667 9.82166 5.66667 9.81951 5.66667C9.81737 5.66667 9.81522 5.66667 9.81307 5.66667C9.81093 5.66667 9.80878 5.66667 9.80662 5.66667C9.80447 5.66667 9.80232 5.66667 9.80016 5.66667C9.798 5.66667 9.79585 5.66667 9.79369 5.66667C9.79152 5.66667 9.78936 5.66667 9.7872 5.66667C9.78503 5.66667 9.78287 5.66667 9.7807 5.66667C9.77853 5.66667 9.77636 5.66667 9.77419 5.66667C9.77201 5.66667 9.76984 5.66667 9.76766 5.66667C9.76549 5.66667 9.76331 5.66667 9.76113 5.66667C9.75895 5.66667 9.75677 5.66667 9.75458 5.66667C9.7524 5.66667 9.75021 5.66667 9.74802 5.66667C9.74584 5.66667 9.74365 5.66667 9.74145 5.66667C9.73926 5.66667 9.73707 5.66667 9.73487 5.66667C9.73268 5.66667 9.73048 5.66667 9.72828 5.66667C9.72608 5.66667 9.72388 5.66667 9.72168 5.66667C9.71948 5.66667 9.71727 5.66667 9.71507 5.66667C9.71286 5.66667 9.71065 5.66667 9.70844 5.66667C9.70623 5.66667 9.70402 5.66667 9.70181 5.66667C9.6996 5.66667 9.69738 5.66667 9.69517 5.66667C9.69295 5.66667 9.69073 5.66667 9.68851 5.66667C9.68629 5.66667 9.68407 5.66667 9.68185 5.66667C9.67963 5.66667 9.6774 5.66667 9.67517 5.66667C9.67295 5.66667 9.67072 5.66667 9.66849 5.66667C9.66626 5.66667 9.66403 5.66667 9.6618 5.66667C9.65956 5.66667 9.65733 5.66667 9.65509 5.66667C9.65286 5.66667 9.65062 5.66667 9.64838 5.66667C9.64614 5.66667 9.6439 5.66667 9.64166 5.66667C9.63942 5.66667 9.63718 5.66667 9.63493 5.66667C9.63269 5.66667 9.63044 5.66667 9.62819 5.66667C9.62595 5.66667 9.6237 5.66667 9.62145 5.66667C9.6192 5.66667 9.61694 5.66667 9.61469 5.66667C9.61244 5.66667 9.61018 5.66667 9.60793 5.66667C9.60567 5.66667 9.60341 5.66667 9.60115 5.66667C9.5989 5.66667 9.59664 5.66667 9.59437 5.66667C9.59211 5.66667 9.58985 5.66667 9.58758 5.66667C9.58532 5.66667 9.58306 5.66667 9.58079 5.66667C9.57852 5.66667 9.57625 5.66667 9.57399 5.66667C9.57172 5.66667 9.56945 5.66667 9.56717 5.66667C9.5649 5.66667 9.56263 5.66667 9.56035 5.66667C9.55808 5.66667 9.55581 5.66667 9.55353 5.66667C9.55125 5.66667 9.54897 5.66667 9.5467 5.66667C9.54442 5.66667 9.54214 5.66667 9.53986 5.66667C9.53757 5.66667 9.53529 5.66667 9.53301 5.66667C9.53073 5.66667 9.52844 5.66667 9.52615 5.66667C9.52387 5.66667 9.52158 5.66667 9.51929 5.66667C9.51701 5.66667 9.51472 5.66667 9.51243 5.66667C9.51014 5.66667 9.50785 5.66667 9.50556 5.66667C9.50326 5.66667 9.50097 5.66667 9.49868 5.66667C9.49638 5.66667 9.49409 5.66667 9.49179 5.66667C9.4895 5.66667 9.4872 5.66667 9.4849 5.66667C9.4826 5.66667 9.48031 5.66667 9.47801 5.66667C9.47571 5.66667 9.47341 5.66667 9.4711 5.66667C9.4688 5.66667 9.4665 5.66667 9.4642 5.66667C9.46189 5.66667 9.45959 5.66667 9.45728 5.66667C9.45498 5.66667 9.45267 5.66667 9.45037 5.66667C9.44806 5.66667 9.44575 5.66667 9.44345 5.66667C9.44114 5.66667 9.43883 5.66667 9.43652 5.66667C9.43421 5.66667 9.4319 5.66667 9.42959 5.66667C9.42727 5.66667 9.42496 5.66667 9.42265 5.66667C9.42034 5.66667 9.41802 5.66667 9.41571 5.66667C9.4134 5.66667 9.41108 5.66667 9.40876 5.66667C9.40645 5.66667 9.40413 5.66667 9.40182 5.66667C9.3995 5.66667 9.39718 5.66667 9.39486 5.66667C9.39254 5.66667 9.39023 5.66667 9.38791 5.66667C9.38559 5.66667 9.38327 5.66667 9.38095 5.66667C9.37863 5.66667 9.3763 5.66667 9.37398 5.66667C9.37166 5.66667 9.36934 5.66667 9.36702 5.66667C9.36469 5.66667 9.36237 5.66667 9.36004 5.66667C9.35772 5.66667 9.3554 5.66667 9.35307 5.66667C9.35075 5.66667 9.34842 5.66667 9.3461 5.66667C9.34377 5.66667 9.34144 5.66667 9.33912 5.66667C9.33679 5.66667 9.33446 5.66667 9.33213 5.66667C9.32981 5.66667 9.32748 5.66667 9.32515 5.66667C9.32282 5.66667 9.32049 5.66667 9.31816 5.66667C9.31583 5.66667 9.31351 5.66667 9.31118 5.66667C9.30885 5.66667 9.30651 5.66667 9.30418 5.66667C9.30185 5.66667 9.29952 5.66667 9.29719 5.66667C9.29486 5.66667 9.29253 5.66667 9.2902 5.66667C9.28787 5.66667 9.28553 5.66667 9.2832 5.66667C9.28087 5.66667 9.27854 5.66667 9.2762 5.66667C9.27387 5.66667 9.27154 5.66667 9.2692 5.66667C9.26687 5.66667 9.26454 5.66667 9.2622 5.66667C9.25987 5.66667 9.25754 5.66667 9.2552 5.66667C9.25287 5.66667 9.25054 5.66667 9.2482 5.66667C9.24587 5.66667 9.24353 5.66667 9.2412 5.66667C9.23886 5.66667 9.23653 5.66667 9.23419 5.66667C9.23186 5.66667 9.22953 5.66667 9.22719 5.66667C9.22486 5.66667 9.22252 5.66667 9.22019 5.66667C9.21785 5.66667 9.21552 5.66667 9.21318 5.66667C9.21085 5.66667 9.20851 5.66667 9.20618 5.66667C9.20384 5.66667 9.20151 5.66667 9.19917 5.66667C9.19684 5.66667 9.1945 5.66667 9.19217 5.66667C9.18983 5.66667 9.1875 5.66667 9.18516 5.66667C9.18283 5.66667 9.1805 5.66667 9.17816 5.66667C9.17583 5.66667 9.17349 5.66667 9.17116 5.66667C9.16882 5.66667 9.16649 5.66667 9.16416 5.66667C9.16182 5.66667 9.15949 5.66667 9.15715 5.66667C9.15482 5.66667 9.15249 5.66667 9.15016 5.66667C9.14782 5.66667 9.14549 5.66667 9.14316 5.66667C9.14082 5.66667 9.13849 5.66667 9.13616 5.66667C9.13383 5.66667 9.13149 5.66667 9.12916 5.66667C9.12683 5.66667 9.1245 5.66667 9.12217 5.66667C9.11984 5.66667 9.11751 5.66667 9.11518 5.66667C9.11285 5.66667 9.11052 5.66667 9.10819 5.66667C9.10586 5.66667 9.10353 5.66667 9.1012 5.66667C9.09887 5.66667 9.09654 5.66667 9.09421 5.66667C9.09188 5.66667 9.08956 5.66667 9.08723 5.66667C9.0849 5.66667 9.08257 5.66667 9.08025 5.66667C9.07792 5.66667 9.0756 5.66667 9.07327 5.66667C9.07094 5.66667 9.06862 5.66667 9.06629 5.66667C9.06397 5.66667 9.06165 5.66667 9.05932 5.66667C9.057 5.66667 9.05467 5.66667 9.05235 5.66667C9.05003 5.66667 9.04771 5.66667 9.04539 5.66667C9.04306 5.66667 9.04074 5.66667 9.03842 5.66667C9.0361 5.66667 9.03378 5.66667 9.03146 5.66667C9.02914 5.66667 9.02683 5.66667 9.02451 5.66667C9.02219 5.66667 9.01987 5.66667 9.01756 5.66667C9.01524 5.66667 9.01292 5.66667 9.01061 5.66667C9.00829 5.66667 9.00598 5.66667 9.00366 5.66667C9.00135 5.66667 8.99904 5.66667 8.99672 5.66667C8.99441 5.66667 8.9921 5.66667 8.98979 5.66667C8.98748 5.66667 8.98517 5.66667 8.98286 5.66667C8.98055 5.66667 8.97824 5.66667 8.97593 5.66667C8.97363 5.66667 8.97132 5.66667 8.96901 5.66667C8.96671 5.66667 8.9644 5.66667 8.9621 5.66667C8.95979 5.66667 8.95749 5.66667 8.95519 5.66667C8.95288 5.66667 8.95058 5.66667 8.94828 5.66667C8.94598 5.66667 8.94368 5.66667 8.94138 5.66667C8.93908 5.66667 8.93678 5.66667 8.93448 5.66667C8.93219 5.66667 8.92989 5.66667 8.9276 5.66667C8.9253 5.66667 8.92301 5.66667 8.92071 5.66667C8.91842 5.66667 8.91613 5.66667 8.91383 5.66667C8.91154 5.66667 8.90925 5.66667 8.90696 5.66667C8.90467 5.66667 8.90239 5.66667 8.9001 5.66667C8.89781 5.66667 8.89553 5.66667 8.89324 5.66667C8.89096 5.66667 8.88867 5.66667 8.88639 5.66667C8.88411 5.66667 8.88182 5.66667 8.87954 5.66667C8.87726 5.66667 8.87498 5.66667 8.8727 5.66667C8.87043 5.66667 8.86815 5.66667 8.86587 5.66667C8.8636 5.66667 8.86132 5.66667 8.85905 5.66667C8.85678 5.66667 8.8545 5.66667 8.85223 5.66667C8.84996 5.66667 8.84769 5.66667 8.84542 5.66667C8.84315 5.66667 8.84089 5.66667 8.83862 5.66667C8.83635 5.66667 8.83409 5.66667 8.83183 5.66667C8.82956 5.66667 8.8273 5.66667 8.82504 5.66667C8.82278 5.66667 8.82052 5.66667 8.81826 5.66667C8.816 5.66667 8.81375 5.66667 8.81149 5.66667C8.80924 5.66667 8.80698 5.66667 8.80473 5.66667C8.80248 5.66667 8.80022 5.66667 8.79798 5.66667C8.79573 5.66667 8.79348 5.66667 8.79123 5.66667C8.78898 5.66667 8.78674 5.66667 8.78449 5.66667C8.78225 5.66667 8.78001 5.66667 8.77777 5.66667C8.77552 5.66667 8.77329 5.66667 8.77105 5.66667C8.76881 5.66667 8.76657 5.66667 8.76434 5.66667C8.7621 5.66667 8.75987 5.66667 8.75764 5.66667C8.75541 5.66667 8.75318 5.66667 8.75095 5.66667C8.74872 5.66667 8.74649 5.66667 8.74427 5.66667C8.74204 5.66667 8.73982 5.66667 8.73759 5.66667C8.73537 5.66667 8.73315 5.66667 8.73093 5.66667C8.72871 5.66667 8.7265 5.66667 8.72428 5.66667C8.72207 5.66667 8.71985 5.66667 8.71764 5.66667C8.71543 5.66667 8.71322 5.66667 8.71101 5.66667C8.7088 5.66667 8.70659 5.66667 8.70439 5.66667C8.70218 5.66667 8.69998 5.66667 8.69778 5.66667C8.69558 5.66667 8.69338 5.66667 8.69118 5.66667C8.68898 5.66667 8.68678 5.66667 8.68459 5.66667C8.68239 5.66667 8.6802 5.66667 8.67801 5.66667C8.67582 5.66667 8.67363 5.66667 8.67144 5.66667C8.66926 5.66667 8.66707 5.66667 8.66489 5.66667C8.66271 5.66667 8.66053 5.66667 8.65835 5.66667C8.65617 5.66667 8.65399 5.66667 8.65181 5.66667C8.64964 5.66667 8.64746 5.66667 8.64529 5.66667C8.64312 5.66667 8.64095 5.66667 8.63878 5.66667C8.63662 5.66667 8.63445 5.66667 8.63229 5.66667C8.63012 5.66667 8.62796 5.66667 8.6258 5.66667C8.62364 5.66667 8.62149 5.66667 8.61933 5.66667C8.61718 5.66667 8.61502 5.66667 8.61287 5.66667C8.61072 5.66667 8.60857 5.66667 8.60642 5.66667C8.60428 5.66667 8.60213 5.66667 8.59999 5.66667C8.59785 5.66667 8.59571 5.66667 8.59357 5.66667C8.59143 5.66667 8.58929 5.66667 8.58716 5.66667C8.58503 5.66667 8.58289 5.66667 8.58076 5.66667C8.57863 5.66667 8.57651 5.66667 8.57438 5.66667C8.57226 5.66667 8.57013 5.66667 8.56801 5.66667C8.56589 5.66667 8.56377 5.66667 8.56166 5.66667C8.55954 5.66667 8.55743 5.66667 8.55532 5.66667C8.55321 5.66667 8.5511 5.66667 8.54899 5.66667C8.54688 5.66667 8.54478 5.66667 8.54268 5.66667C8.54057 5.66667 8.53847 5.66667 8.53638 5.66667C8.53428 5.66667 8.53218 5.66667 8.53009 5.66667C8.528 5.66667 8.52591 5.66667 8.52382 5.66667C8.52173 5.66667 8.51965 5.66667 8.51757 5.66667C8.51548 5.66667 8.5134 5.66667 8.51132 5.66667C8.50925 5.66667 8.50717 5.66667 8.5051 5.66667C8.50303 5.66667 8.50095 5.66667 8.49889 5.66667C8.49682 5.66667 8.49475 5.66667 8.49269 5.66667C8.49063 5.66667 8.48857 5.66667 8.48651 5.66667C8.48445 5.66667 8.4824 5.66667 8.48034 5.66667C8.47829 5.66667 8.47624 5.66667 8.47419 5.66667C8.47215 5.66667 8.4701 5.66667 8.46806 5.66667C8.46602 5.66667 8.46398 5.66667 8.46194 5.66667C8.45991 5.66667 8.45787 5.66667 8.45584 5.66667C8.45381 5.66667 8.45178 5.66667 8.44975 5.66667C8.44773 5.66667 8.4457 5.66667 8.44368 5.66667C8.44166 5.66667 8.43965 5.66667 8.43763 5.66667C8.43562 5.66667 8.4336 5.66667 8.43159 5.66667C8.42959 5.66667 8.42758 5.66667 8.42557 5.66667C8.42357 5.66667 8.42157 5.66667 8.41957 5.66667C8.41757 5.66667 8.41558 5.66667 8.41359 5.66667C8.41159 5.66667 8.4096 5.66667 8.40762 5.66667C8.40563 5.66667 8.40365 5.66667 8.40167 5.66667C8.39968 5.66667 8.39771 5.66667 8.39573 5.66667C8.39376 5.66667 8.39178 5.66667 8.38982 5.66667C8.38785 5.66667 8.38588 5.66667 8.38392 5.66667C8.38195 5.66667 8.37999 5.66667 8.37804 5.66667C8.37608 5.66667 8.37412 5.66667 8.37217 5.66667C8.37022 5.66667 8.36827 5.66667 8.36633 5.66667C8.36438 5.66667 8.36244 5.66667 8.3605 5.66667C8.35856 5.66667 8.35663 5.66667 8.35469 5.66667C8.35276 5.66667 8.35083 5.66667 8.34891 5.66667C8.34698 5.66667 8.34506 5.66667 8.34314 5.66667C8.34121 5.66667 8.3393 5.66667 8.33738 5.66667C8.33547 5.66667 8.33356 5.66667 8.33165 5.66667C8.32974 5.66667 8.32784 5.66667 8.32594 5.66667C8.32404 5.66667 8.32214 5.66667 8.32024 5.66667C8.31835 5.66667 8.31646 5.66667 8.31457 5.66667C8.31268 5.66667 8.3108 5.66667 8.30891 5.66667C8.30703 5.66667 8.30515 5.66667 8.30328 5.66667C8.3014 5.66667 8.29953 5.66667 8.29766 5.66667C8.2958 5.66667 8.29393 5.66667 8.29207 5.66667C8.29021 5.66667 8.28835 5.66667 8.28649 5.66667C8.28464 5.66667 8.28279 5.66667 8.28094 5.66667C8.27909 5.66667 8.27725 5.66667 8.27541 5.66667C8.27356 5.66667 8.27173 5.66667 8.26989 5.66667C8.26806 5.66667 8.26623 5.66667 8.2644 5.66667C8.26257 5.66667 8.26075 5.66667 8.25893 5.66667C8.25711 5.66667 8.25529 5.66667 8.25348 5.66667C8.25166 5.66667 8.24985 5.66667 8.24805 5.66667C8.24624 5.66667 8.24444 5.66667 8.24264 5.66667C8.24084 5.66667 8.23904 5.66667 8.23725 5.66667C8.23546 5.66667 8.23367 5.66667 8.23189 5.66667C8.19461 5.66667 8.22657 5.66667 8.18976 5.66667C8.18804 5.66667 8.18631 5.66667 8.1846 5.66667C8.18288 5.66667 8.18117 5.66667 8.17946 5.66667C8.17775 5.66667 8.17604 5.66667 8.17434 5.66667C8.17264 5.66667 8.17094 5.66667 8.16924 5.66667C8.16755 5.66667 8.16586 5.66667 8.16417 5.66667C8.16249 5.66667 8.1608 5.66667 8.15913 5.66667C8.15745 5.66667 8.15577 5.66667 8.1541 5.66667C8.15243 5.66667 8.15076 5.66667 8.1491 5.66667C8.14744 5.66667 8.14578 5.66667 8.14413 5.66667C8.14247 5.66667 8.14082 5.66667 8.13918 5.66667C8.13753 5.66667 8.13589 5.66667 8.13425 5.66667C8.13261 5.66667 8.13098 5.66667 8.12935 5.66667C8.12772 5.66667 8.12609 5.66667 8.12447 5.66667C8.12285 5.66667 8.12123 5.66667 8.11962 5.66667C8.118 5.66667 8.11639 5.66667 8.11479 5.66667C8.11318 5.66667 8.11158 5.66667 8.10998 5.66667C8.10839 5.66667 8.10679 5.66667 8.10521 5.66667C8.10362 5.66667 8.10203 5.66667 8.10045 5.66667C8.09887 5.66667 8.0973 5.66667 8.09573 5.66667C8.09416 5.66667 8.09259 5.66667 8.09103 5.66667C8.08946 5.66667 8.0879 5.66667 8.08635 5.66667C8.0848 5.66667 8.08325 5.66667 8.0817 5.66667C8.08015 5.66667 8.07861 5.66667 8.07708 5.66667C8.07554 5.66667 8.07401 5.66667 8.07248 5.66667C8.07095 5.66667 8.06943 5.66667 8.06791 5.66667C8.06639 5.66667 8.06487 5.66667 8.06336 5.66667C8.06185 5.66667 8.06035 5.66667 8.05885 5.66667C8.05734 5.66667 8.05585 5.66667 8.05435 5.66667C8.05286 5.66667 8.05137 5.66667 8.04989 5.66667C8.04841 5.66667 8.04693 5.66667 8.04545 5.66667C8.04398 5.66667 8.04251 5.66667 8.04104 5.66667C8.03958 5.66667 8.03812 5.66667 8.03666 5.66667C8.0352 5.66667 8.03375 5.66667 8.03231 5.66667C8.03086 5.66667 8.02942 5.66667 8.02798 5.66667C8.02654 5.66667 8.02511 5.66667 8.02368 5.66667C8.02225 5.66667 8.02083 5.66667 8.01941 5.66667C8.01799 5.66667 8.01657 5.66667 8.01516 5.66667C8.01375 5.66667 8.01235 5.66667 8.01095 5.66667C8.00955 5.66667 8.00815 5.66667 8.00676 5.66667C8.00537 5.66667 8.00399 5.66667 8.0026 5.66667V7.66667ZM5.33594 13H26.6693V11H5.33594V13ZM27.6693 12V9.33333H25.6693V12H27.6693ZM27.6693 9.33333C27.6693 8.36087 27.283 7.42824 26.5953 6.74061L25.1811 8.15482C25.4937 8.46738 25.6693 8.89131 25.6693 9.33333H27.6693ZM26.5953 6.74061C25.9077 6.05298 24.9751 5.66667 24.0026 5.66667V7.66667C24.4446 7.66667 24.8686 7.84226 25.1811 8.15482L26.5953 6.74061ZM24.0026 5.66667H21.3359V7.66667H24.0026V5.66667ZM25.6693 12V16H27.6693V12H25.6693ZM22.3359 6.66667V4H20.3359V6.66667H22.3359ZM21.3359 5.66667H10.6693V7.66667H21.3359V5.66667ZM9.66927 4V6.66667H11.6693V4H9.66927ZM24.3359 21.3333V25.3333H26.3359V21.3333H24.3359ZM26.3359 29.3333V25.3333H24.3359V29.3333H26.3359ZM25.3359 26.3333H29.3359V24.3333H25.3359V26.3333ZM25.3359 24.3333H21.3359V26.3333H25.3359V24.3333Z" fill="#395937"/>
</svg>
