<svg width="62" height="78" viewBox="0 0 62 78" fill="none" xmlns="http://www.w3.org/2000/svg">
<path d="M31 0.5C22.9801 0.509461 15.2914 3.69954 9.6205 9.37047C3.94958 15.0414 0.759493 22.7301 0.750032 30.75C0.740427 37.3039 2.88123 43.6799 6.84403 48.9C6.84403 48.9 7.66903 49.9863 7.80378 50.143L31 77.5L54.2073 50.1293C54.3283 49.9835 55.156 48.9 55.156 48.9L55.1588 48.8918C59.1196 43.6739 61.2594 37.3009 61.25 30.75C61.2406 22.7301 58.0505 15.0414 52.3796 9.37047C46.7086 3.69954 39.0199 0.509461 31 0.5ZM40.9 44.5L31 38.1997L21.1 44.5L22.75 33.2965L14.5 25.7257L26.05 24.3315L31 14.25L36.258 24.3342L47.5 25.7257L39.25 33.2965L40.9 44.5Z" fill="#395937"/>
</svg>
