<svg width="70" height="65" viewBox="0 0 70 65" fill="none" xmlns="http://www.w3.org/2000/svg">
<path opacity="0.1" d="M24.9765 30.7895H6.58756C7.1678 26.5554 8.54756 22.5004 10.6387 18.8836C12.7299 15.2668 15.4865 12.1677 18.7324 9.78421L24.3209 5.67895L20.8866 0L15.2981 4.10526C10.594 7.54026 6.73651 12.1945 4.06784 17.6551C1.39917 23.1157 0.00189536 29.2136 0 35.4079V58.1579C0 59.9725 0.657862 61.7128 1.82886 62.996C2.99987 64.2791 4.58808 65 6.24413 65H24.9765C26.6326 65 28.2208 64.2791 29.3918 62.996C30.5628 61.7128 31.2207 59.9725 31.2207 58.1579V37.6316C31.2207 35.8169 30.5628 34.0766 29.3918 32.7935C28.2208 31.5103 26.6326 30.7895 24.9765 30.7895ZM63.7559 30.7895H45.3669C45.9471 26.5554 47.3269 22.5004 49.4181 18.8836C51.5092 15.2668 54.2658 12.1677 57.5117 9.78421L63.1002 5.67895L59.6972 0L54.0775 4.10526C49.3734 7.54026 45.5159 12.1945 42.8472 17.6551C40.1785 23.1157 38.7812 29.2136 38.7793 35.4079V58.1579C38.7793 59.9725 39.4372 61.7128 40.6082 62.996C41.7792 64.2791 43.3674 65 45.0235 65H63.7559C65.4119 65 67.0001 64.2791 68.1711 62.996C69.3421 61.7128 70 59.9725 70 58.1579V37.6316C70 35.8169 69.3421 34.0766 68.1711 32.7935C67.0001 31.5103 65.4119 30.7895 63.7559 30.7895Z" fill="#395937"/>
</svg>
