<svg width="70" height="69" viewBox="0 0 70 69" fill="none" xmlns="http://www.w3.org/2000/svg">
<g opacity="0.2">
<path d="M26.6875 32.3438H13.9872C14.3879 29.675 15.3409 27.1193 16.7851 24.8396C18.2294 22.56 20.1332 20.6067 22.375 19.1044L26.2347 16.5169L23.8628 12.9375L20.0031 15.525C16.7543 17.69 14.0901 20.6236 12.2469 24.0653C10.4038 27.507 9.43881 31.3505 9.4375 35.2547V49.5938C9.4375 50.7375 9.89185 51.8344 10.7006 52.6431C11.5094 53.4519 12.6063 53.9062 13.75 53.9062H26.6875C27.8312 53.9062 28.9281 53.4519 29.7369 52.6431C30.5456 51.8344 31 50.7375 31 49.5938V36.6562C31 35.5125 30.5456 34.4156 29.7369 33.6069C28.9281 32.7981 27.8312 32.3438 26.6875 32.3438ZM56.875 32.3438H44.1747C44.5754 29.675 45.5284 27.1193 46.9726 24.8396C48.4169 22.56 50.3207 20.6067 52.5625 19.1044L56.4222 16.5169L54.0719 12.9375L50.1906 15.525C46.9418 17.69 44.2776 20.6236 42.4344 24.0653C40.5913 27.507 39.6263 31.3505 39.625 35.2547V49.5938C39.625 50.7375 40.0794 51.8344 40.8881 52.6431C41.6969 53.4519 42.7938 53.9062 43.9375 53.9062H56.875C58.0187 53.9062 59.1156 53.4519 59.9244 52.6431C60.7331 51.8344 61.1875 50.7375 61.1875 49.5938V36.6562C61.1875 35.5125 60.7331 34.4156 59.9244 33.6069C59.1156 32.7981 58.0187 32.3438 56.875 32.3438Z" fill="#385836"/>
</g>
</svg>
